%TF.GenerationSoftware,KiCad,Pcbnew,6.0.11+dfsg-1*%
%TF.CreationDate,2026-01-31T15:55:08+01:00*%
%TF.ProjectId,baliza,62616c69-7a61-42e6-9b69-6361645f7063,2*%
%TF.SameCoordinates,Original*%
%TF.FileFunction,Soldermask,Bot*%
%TF.FilePolarity,Negative*%
%FSLAX46Y46*%
G04 Gerber Fmt 4.6, Leading zero omitted, Abs format (unit mm)*
G04 Created by KiCad (PCBNEW 6.0.11+dfsg-1) date 2026-01-31 15:55:08*
%MOMM*%
%LPD*%
G01*
G04 APERTURE LIST*
%ADD10R,1.800000X1.800000*%
%ADD11C,1.800000*%
%ADD12R,1.905000X2.000000*%
%ADD13O,1.905000X2.000000*%
%ADD14C,0.800000*%
%ADD15C,5.000000*%
%ADD16R,1.700000X1.700000*%
%ADD17O,1.700000X1.700000*%
%ADD18R,2.500000X2.500000*%
%ADD19C,2.500000*%
%ADD20R,1.600000X1.600000*%
%ADD21C,1.600000*%
%ADD22O,1.600000X1.600000*%
%ADD23C,3.000000*%
%ADD24R,1.500000X1.050000*%
%ADD25O,1.500000X1.050000*%
%ADD26C,1.400000*%
%ADD27O,1.400000X1.400000*%
%ADD28R,2.200000X2.200000*%
%ADD29O,2.200000X2.200000*%
G04 APERTURE END LIST*
D10*
%TO.C,D4*%
X130810000Y-69210000D03*
D11*
X130810000Y-71750000D03*
%TD*%
D12*
%TO.C,U1*%
X118110000Y-64445000D03*
D13*
X120650000Y-64445000D03*
X123190000Y-64445000D03*
%TD*%
D14*
%TO.C,REF\u002A\u002A*%
X161345825Y-55824175D03*
X158145000Y-57150000D03*
X160020000Y-55275000D03*
X160020000Y-59025000D03*
X158694175Y-55824175D03*
X161345825Y-58475825D03*
X158694175Y-58475825D03*
X161895000Y-57150000D03*
D15*
X160020000Y-57150000D03*
%TD*%
D16*
%TO.C,JP1*%
X124460000Y-115570000D03*
D17*
X124460000Y-113030000D03*
%TD*%
D18*
%TO.C,J2*%
X97830000Y-114800000D03*
D19*
X102830000Y-114800000D03*
%TD*%
D20*
%TO.C,C4*%
X161290000Y-64770000D03*
D21*
X159290000Y-64770000D03*
%TD*%
D14*
%TO.C,REF\u002A\u002A*%
X91440000Y-55275000D03*
X91440000Y-59025000D03*
X89565000Y-57150000D03*
X93315000Y-57150000D03*
D15*
X91440000Y-57150000D03*
D14*
X90114175Y-55824175D03*
X92765825Y-58475825D03*
X92765825Y-55824175D03*
X90114175Y-58475825D03*
%TD*%
D20*
%TO.C,C1*%
X109220000Y-68580000D03*
D21*
X109220000Y-66580000D03*
%TD*%
D20*
%TO.C,A1*%
X139700000Y-69850000D03*
D22*
X139700000Y-72390000D03*
X139700000Y-74930000D03*
X139700000Y-77470000D03*
X139700000Y-80010000D03*
X139700000Y-82550000D03*
X139700000Y-85090000D03*
X139700000Y-87630000D03*
X139700000Y-90170000D03*
X139700000Y-92710000D03*
X139700000Y-95250000D03*
X139700000Y-97790000D03*
X139700000Y-100330000D03*
X139700000Y-102870000D03*
X139700000Y-105410000D03*
X154940000Y-105410000D03*
X154940000Y-102870000D03*
X154940000Y-100330000D03*
X154940000Y-97790000D03*
X154940000Y-95250000D03*
X154940000Y-92710000D03*
X154940000Y-90170000D03*
X154940000Y-87630000D03*
X154940000Y-85090000D03*
X154940000Y-82550000D03*
X154940000Y-80010000D03*
X154940000Y-77470000D03*
X154940000Y-74930000D03*
X154940000Y-72390000D03*
X154940000Y-69850000D03*
%TD*%
D21*
%TO.C,C3*%
X129520000Y-96480000D03*
X129520000Y-91480000D03*
%TD*%
D10*
%TO.C,D6*%
X123190000Y-83180000D03*
D11*
X123190000Y-85720000D03*
%TD*%
D23*
%TO.C,K2*%
X112190000Y-78740000D03*
X97990000Y-84740000D03*
X97990000Y-72740000D03*
X110190000Y-72740000D03*
X110190000Y-84740000D03*
%TD*%
D24*
%TO.C,Q1*%
X123190000Y-93980000D03*
D25*
X123190000Y-92710000D03*
X123190000Y-91440000D03*
%TD*%
D26*
%TO.C,R3*%
X135890000Y-82550000D03*
D27*
X135890000Y-77470000D03*
%TD*%
D26*
%TO.C,R5*%
X136525000Y-88265000D03*
D27*
X131445000Y-88265000D03*
%TD*%
D20*
%TO.C,D3*%
X124460000Y-58420000D03*
D22*
X132080000Y-58420000D03*
%TD*%
D23*
%TO.C,K1*%
X112190000Y-95250000D03*
X97990000Y-101250000D03*
X97990000Y-89250000D03*
X110190000Y-89250000D03*
X110190000Y-101250000D03*
%TD*%
D14*
%TO.C,REF\u002A\u002A*%
X92765825Y-116895825D03*
X90114175Y-116895825D03*
X91440000Y-113695000D03*
D15*
X91440000Y-115570000D03*
D14*
X89565000Y-115570000D03*
X92765825Y-114244175D03*
X93315000Y-115570000D03*
X91440000Y-117445000D03*
X90114175Y-114244175D03*
%TD*%
D21*
%TO.C,C2*%
X118150000Y-68580000D03*
X123150000Y-68580000D03*
%TD*%
D26*
%TO.C,R1*%
X125730000Y-76200000D03*
D27*
X130810000Y-76200000D03*
%TD*%
D21*
%TO.C,C5*%
X160020000Y-77430000D03*
X160020000Y-72430000D03*
%TD*%
D10*
%TO.C,D5*%
X130810000Y-79370000D03*
D11*
X130810000Y-81910000D03*
%TD*%
D16*
%TO.C,JP3*%
X134620000Y-115570000D03*
D17*
X134620000Y-113030000D03*
%TD*%
D24*
%TO.C,Q2*%
X121920000Y-72390000D03*
D25*
X121920000Y-73660000D03*
X121920000Y-74930000D03*
%TD*%
D28*
%TO.C,D1*%
X116840000Y-99060000D03*
D29*
X116840000Y-88900000D03*
%TD*%
D14*
%TO.C,REF\u002A\u002A*%
X158694175Y-116895825D03*
D15*
X160020000Y-115570000D03*
D14*
X161345825Y-114244175D03*
X160020000Y-113695000D03*
X160020000Y-117445000D03*
X161345825Y-116895825D03*
X158694175Y-114244175D03*
X158145000Y-115570000D03*
X161895000Y-115570000D03*
%TD*%
D28*
%TO.C,D2*%
X116840000Y-82550000D03*
D29*
X116840000Y-72390000D03*
%TD*%
D18*
%TO.C,J1*%
X142240000Y-58420000D03*
D19*
X137240000Y-58420000D03*
%TD*%
D16*
%TO.C,JP4*%
X135890000Y-70485000D03*
D17*
X135890000Y-67945000D03*
%TD*%
D18*
%TO.C,J3*%
X109260000Y-114800000D03*
D19*
X114260000Y-114800000D03*
%TD*%
D26*
%TO.C,R4*%
X136525000Y-85090000D03*
D27*
X131445000Y-85090000D03*
%TD*%
D16*
%TO.C,JP2*%
X129540000Y-115570000D03*
D17*
X129540000Y-113030000D03*
%TD*%
D26*
%TO.C,R2*%
X134620000Y-97790000D03*
D27*
X134620000Y-92710000D03*
%TD*%
D18*
%TO.C,J4*%
X102870000Y-58420000D03*
D19*
X97870000Y-58420000D03*
%TD*%
M02*
