%TF.GenerationSoftware,KiCad,Pcbnew,6.0.11+dfsg-1*%
%TF.CreationDate,2026-01-31T15:54:36+01:00*%
%TF.ProjectId,baliza,62616c69-7a61-42e6-9b69-6361645f7063,2*%
%TF.SameCoordinates,Original*%
%TF.FileFunction,Drillmap*%
%TF.FilePolarity,Positive*%
%FSLAX45Y45*%
G04 Gerber Fmt 4.5, Leading zero omitted, Abs format (unit mm)*
G04 Created by KiCad (PCBNEW 6.0.11+dfsg-1) date 2026-01-31 15:54:36*
%MOMM*%
%LPD*%
G01*
G04 APERTURE LIST*
%ADD10C,0.100000*%
%ADD11C,0.200000*%
G04 APERTURE END LIST*
D10*
X16510000Y-5334000D02*
X16510000Y-11938000D01*
X8890000Y-11938000D02*
X8890000Y-5334000D01*
X16256000Y-5334000D02*
X16510000Y-5334000D01*
X8890000Y-5334000D02*
X16256000Y-5334000D01*
X16510000Y-11938000D02*
X8890000Y-11938000D01*
D11*
X9142619Y-12253476D02*
X9142619Y-12053476D01*
X9190238Y-12053476D01*
X9218810Y-12063000D01*
X9237857Y-12082048D01*
X9247381Y-12101095D01*
X9256905Y-12139190D01*
X9256905Y-12167762D01*
X9247381Y-12205857D01*
X9237857Y-12224905D01*
X9218810Y-12243952D01*
X9190238Y-12253476D01*
X9142619Y-12253476D01*
X9342619Y-12253476D02*
X9342619Y-12120143D01*
X9342619Y-12158238D02*
X9352143Y-12139190D01*
X9361667Y-12129667D01*
X9380714Y-12120143D01*
X9399762Y-12120143D01*
X9466429Y-12253476D02*
X9466429Y-12120143D01*
X9466429Y-12053476D02*
X9456905Y-12063000D01*
X9466429Y-12072524D01*
X9475952Y-12063000D01*
X9466429Y-12053476D01*
X9466429Y-12072524D01*
X9590238Y-12253476D02*
X9571190Y-12243952D01*
X9561667Y-12224905D01*
X9561667Y-12053476D01*
X9695000Y-12253476D02*
X9675952Y-12243952D01*
X9666429Y-12224905D01*
X9666429Y-12053476D01*
X9923571Y-12253476D02*
X9923571Y-12053476D01*
X9990238Y-12196333D01*
X10056905Y-12053476D01*
X10056905Y-12253476D01*
X10237857Y-12253476D02*
X10237857Y-12148714D01*
X10228333Y-12129667D01*
X10209286Y-12120143D01*
X10171190Y-12120143D01*
X10152143Y-12129667D01*
X10237857Y-12243952D02*
X10218810Y-12253476D01*
X10171190Y-12253476D01*
X10152143Y-12243952D01*
X10142619Y-12224905D01*
X10142619Y-12205857D01*
X10152143Y-12186809D01*
X10171190Y-12177286D01*
X10218810Y-12177286D01*
X10237857Y-12167762D01*
X10333095Y-12120143D02*
X10333095Y-12320143D01*
X10333095Y-12129667D02*
X10352143Y-12120143D01*
X10390238Y-12120143D01*
X10409286Y-12129667D01*
X10418810Y-12139190D01*
X10428333Y-12158238D01*
X10428333Y-12215381D01*
X10418810Y-12234428D01*
X10409286Y-12243952D01*
X10390238Y-12253476D01*
X10352143Y-12253476D01*
X10333095Y-12243952D01*
X10514048Y-12234428D02*
X10523571Y-12243952D01*
X10514048Y-12253476D01*
X10504524Y-12243952D01*
X10514048Y-12234428D01*
X10514048Y-12253476D01*
X10514048Y-12129667D02*
X10523571Y-12139190D01*
X10514048Y-12148714D01*
X10504524Y-12139190D01*
X10514048Y-12129667D01*
X10514048Y-12148714D01*
M02*
