%TF.GenerationSoftware,KiCad,Pcbnew,6.0.11+dfsg-1*%
%TF.CreationDate,2026-01-30T16:23:38+01:00*%
%TF.ProjectId,baliza,62616c69-7a61-42e6-9b69-6361645f7063,rev?*%
%TF.SameCoordinates,Original*%
%TF.FileFunction,Legend,Top*%
%TF.FilePolarity,Positive*%
%FSLAX46Y46*%
G04 Gerber Fmt 4.6, Leading zero omitted, Abs format (unit mm)*
G04 Created by KiCad (PCBNEW 6.0.11+dfsg-1) date 2026-01-30 16:23:38*
%MOMM*%
%LPD*%
G01*
G04 APERTURE LIST*
%ADD10C,0.150000*%
%ADD11C,0.120000*%
G04 APERTURE END LIST*
D10*
X132802380Y-62300952D02*
X133802380Y-61967619D01*
X132802380Y-61634285D01*
X133707142Y-60729523D02*
X133754761Y-60777142D01*
X133802380Y-60920000D01*
X133802380Y-61015238D01*
X133754761Y-61158095D01*
X133659523Y-61253333D01*
X133564285Y-61300952D01*
X133373809Y-61348571D01*
X133230952Y-61348571D01*
X133040476Y-61300952D01*
X132945238Y-61253333D01*
X132850000Y-61158095D01*
X132802380Y-61015238D01*
X132802380Y-60920000D01*
X132850000Y-60777142D01*
X132897619Y-60729523D01*
X133707142Y-59729523D02*
X133754761Y-59777142D01*
X133802380Y-59920000D01*
X133802380Y-60015238D01*
X133754761Y-60158095D01*
X133659523Y-60253333D01*
X133564285Y-60300952D01*
X133373809Y-60348571D01*
X133230952Y-60348571D01*
X133040476Y-60300952D01*
X132945238Y-60253333D01*
X132850000Y-60158095D01*
X132802380Y-60015238D01*
X132802380Y-59920000D01*
X132850000Y-59777142D01*
X132897619Y-59729523D01*
X133802380Y-58539047D02*
X132802380Y-58539047D01*
X133802380Y-58062857D02*
X132802380Y-58062857D01*
X133802380Y-57491428D01*
X132802380Y-57491428D01*
X133802380Y-57015238D02*
X132802380Y-57015238D01*
X132802380Y-56634285D01*
X132850000Y-56539047D01*
X132897619Y-56491428D01*
X132992857Y-56443809D01*
X133135714Y-56443809D01*
X133230952Y-56491428D01*
X133278571Y-56539047D01*
X133326190Y-56634285D01*
X133326190Y-57015238D01*
X132802380Y-56015238D02*
X133611904Y-56015238D01*
X133707142Y-55967619D01*
X133754761Y-55920000D01*
X133802380Y-55824761D01*
X133802380Y-55634285D01*
X133754761Y-55539047D01*
X133707142Y-55491428D01*
X133611904Y-55443809D01*
X132802380Y-55443809D01*
X132802380Y-55110476D02*
X132802380Y-54539047D01*
X133802380Y-54824761D02*
X132802380Y-54824761D01*
X113752380Y-67380952D02*
X114752380Y-67047619D01*
X113752380Y-66714285D01*
X114657142Y-65809523D02*
X114704761Y-65857142D01*
X114752380Y-66000000D01*
X114752380Y-66095238D01*
X114704761Y-66238095D01*
X114609523Y-66333333D01*
X114514285Y-66380952D01*
X114323809Y-66428571D01*
X114180952Y-66428571D01*
X113990476Y-66380952D01*
X113895238Y-66333333D01*
X113800000Y-66238095D01*
X113752380Y-66095238D01*
X113752380Y-66000000D01*
X113800000Y-65857142D01*
X113847619Y-65809523D01*
X114657142Y-64809523D02*
X114704761Y-64857142D01*
X114752380Y-65000000D01*
X114752380Y-65095238D01*
X114704761Y-65238095D01*
X114609523Y-65333333D01*
X114514285Y-65380952D01*
X114323809Y-65428571D01*
X114180952Y-65428571D01*
X113990476Y-65380952D01*
X113895238Y-65333333D01*
X113800000Y-65238095D01*
X113752380Y-65095238D01*
X113752380Y-65000000D01*
X113800000Y-64857142D01*
X113847619Y-64809523D01*
X114752380Y-63619047D02*
X113752380Y-63619047D01*
X114752380Y-63142857D02*
X113752380Y-63142857D01*
X114752380Y-62571428D01*
X113752380Y-62571428D01*
X114752380Y-62095238D02*
X113752380Y-62095238D01*
X113752380Y-61714285D01*
X113800000Y-61619047D01*
X113847619Y-61571428D01*
X113942857Y-61523809D01*
X114085714Y-61523809D01*
X114180952Y-61571428D01*
X114228571Y-61619047D01*
X114276190Y-61714285D01*
X114276190Y-62095238D01*
X113752380Y-61095238D02*
X114561904Y-61095238D01*
X114657142Y-61047619D01*
X114704761Y-61000000D01*
X114752380Y-60904761D01*
X114752380Y-60714285D01*
X114704761Y-60619047D01*
X114657142Y-60571428D01*
X114561904Y-60523809D01*
X113752380Y-60523809D01*
X113752380Y-60190476D02*
X113752380Y-59619047D01*
X114752380Y-59904761D02*
X113752380Y-59904761D01*
X127071428Y-67230238D02*
X127071428Y-66468333D01*
X127452380Y-66849285D02*
X126690476Y-66849285D01*
X126452380Y-65515952D02*
X126452380Y-65992142D01*
X126928571Y-66039761D01*
X126880952Y-65992142D01*
X126833333Y-65896904D01*
X126833333Y-65658809D01*
X126880952Y-65563571D01*
X126928571Y-65515952D01*
X127023809Y-65468333D01*
X127261904Y-65468333D01*
X127357142Y-65515952D01*
X127404761Y-65563571D01*
X127452380Y-65658809D01*
X127452380Y-65896904D01*
X127404761Y-65992142D01*
X127357142Y-66039761D01*
X126452380Y-65182619D02*
X127452380Y-64849285D01*
X126452380Y-64515952D01*
X126452380Y-63230238D02*
X126452380Y-63039761D01*
X126500000Y-62944523D01*
X126595238Y-62849285D01*
X126785714Y-62801666D01*
X127119047Y-62801666D01*
X127309523Y-62849285D01*
X127404761Y-62944523D01*
X127452380Y-63039761D01*
X127452380Y-63230238D01*
X127404761Y-63325476D01*
X127309523Y-63420714D01*
X127119047Y-63468333D01*
X126785714Y-63468333D01*
X126595238Y-63420714D01*
X126500000Y-63325476D01*
X126452380Y-63230238D01*
X126452380Y-62373095D02*
X127261904Y-62373095D01*
X127357142Y-62325476D01*
X127404761Y-62277857D01*
X127452380Y-62182619D01*
X127452380Y-61992142D01*
X127404761Y-61896904D01*
X127357142Y-61849285D01*
X127261904Y-61801666D01*
X126452380Y-61801666D01*
X126452380Y-61468333D02*
X126452380Y-60896904D01*
X127452380Y-61182619D02*
X126452380Y-61182619D01*
X118888095Y-57872380D02*
X119554761Y-57872380D01*
X119126190Y-58872380D01*
X120078571Y-58300952D02*
X119983333Y-58253333D01*
X119935714Y-58205714D01*
X119888095Y-58110476D01*
X119888095Y-58062857D01*
X119935714Y-57967619D01*
X119983333Y-57920000D01*
X120078571Y-57872380D01*
X120269047Y-57872380D01*
X120364285Y-57920000D01*
X120411904Y-57967619D01*
X120459523Y-58062857D01*
X120459523Y-58110476D01*
X120411904Y-58205714D01*
X120364285Y-58253333D01*
X120269047Y-58300952D01*
X120078571Y-58300952D01*
X119983333Y-58348571D01*
X119935714Y-58396190D01*
X119888095Y-58491428D01*
X119888095Y-58681904D01*
X119935714Y-58777142D01*
X119983333Y-58824761D01*
X120078571Y-58872380D01*
X120269047Y-58872380D01*
X120364285Y-58824761D01*
X120411904Y-58777142D01*
X120459523Y-58681904D01*
X120459523Y-58491428D01*
X120411904Y-58396190D01*
X120364285Y-58348571D01*
X120269047Y-58300952D01*
X121078571Y-57872380D02*
X121173809Y-57872380D01*
X121269047Y-57920000D01*
X121316666Y-57967619D01*
X121364285Y-58062857D01*
X121411904Y-58253333D01*
X121411904Y-58491428D01*
X121364285Y-58681904D01*
X121316666Y-58777142D01*
X121269047Y-58824761D01*
X121173809Y-58872380D01*
X121078571Y-58872380D01*
X120983333Y-58824761D01*
X120935714Y-58777142D01*
X120888095Y-58681904D01*
X120840476Y-58491428D01*
X120840476Y-58253333D01*
X120888095Y-58062857D01*
X120935714Y-57967619D01*
X120983333Y-57920000D01*
X121078571Y-57872380D01*
X122316666Y-57872380D02*
X121840476Y-57872380D01*
X121792857Y-58348571D01*
X121840476Y-58300952D01*
X121935714Y-58253333D01*
X122173809Y-58253333D01*
X122269047Y-58300952D01*
X122316666Y-58348571D01*
X122364285Y-58443809D01*
X122364285Y-58681904D01*
X122316666Y-58777142D01*
X122269047Y-58824761D01*
X122173809Y-58872380D01*
X121935714Y-58872380D01*
X121840476Y-58824761D01*
X121792857Y-58777142D01*
X137668095Y-115070000D02*
X137572857Y-115022380D01*
X137430000Y-115022380D01*
X137287142Y-115070000D01*
X137191904Y-115165238D01*
X137144285Y-115260476D01*
X137096666Y-115450952D01*
X137096666Y-115593809D01*
X137144285Y-115784285D01*
X137191904Y-115879523D01*
X137287142Y-115974761D01*
X137430000Y-116022380D01*
X137525238Y-116022380D01*
X137668095Y-115974761D01*
X137715714Y-115927142D01*
X137715714Y-115593809D01*
X137525238Y-115593809D01*
X138144285Y-116022380D02*
X138144285Y-115022380D01*
X138715714Y-116022380D01*
X138715714Y-115022380D01*
X139191904Y-116022380D02*
X139191904Y-115022380D01*
X139430000Y-115022380D01*
X139572857Y-115070000D01*
X139668095Y-115165238D01*
X139715714Y-115260476D01*
X139763333Y-115450952D01*
X139763333Y-115593809D01*
X139715714Y-115784285D01*
X139668095Y-115879523D01*
X139572857Y-115974761D01*
X139430000Y-116022380D01*
X139191904Y-116022380D01*
X104648095Y-108085000D02*
X104552857Y-108037380D01*
X104410000Y-108037380D01*
X104267142Y-108085000D01*
X104171904Y-108180238D01*
X104124285Y-108275476D01*
X104076666Y-108465952D01*
X104076666Y-108608809D01*
X104124285Y-108799285D01*
X104171904Y-108894523D01*
X104267142Y-108989761D01*
X104410000Y-109037380D01*
X104505238Y-109037380D01*
X104648095Y-108989761D01*
X104695714Y-108942142D01*
X104695714Y-108608809D01*
X104505238Y-108608809D01*
X105124285Y-109037380D02*
X105124285Y-108037380D01*
X105695714Y-109037380D01*
X105695714Y-108037380D01*
X106171904Y-109037380D02*
X106171904Y-108037380D01*
X106410000Y-108037380D01*
X106552857Y-108085000D01*
X106648095Y-108180238D01*
X106695714Y-108275476D01*
X106743333Y-108465952D01*
X106743333Y-108608809D01*
X106695714Y-108799285D01*
X106648095Y-108894523D01*
X106552857Y-108989761D01*
X106410000Y-109037380D01*
X106171904Y-109037380D01*
X145550000Y-59181904D02*
X145502380Y-59277142D01*
X145502380Y-59420000D01*
X145550000Y-59562857D01*
X145645238Y-59658095D01*
X145740476Y-59705714D01*
X145930952Y-59753333D01*
X146073809Y-59753333D01*
X146264285Y-59705714D01*
X146359523Y-59658095D01*
X146454761Y-59562857D01*
X146502380Y-59420000D01*
X146502380Y-59324761D01*
X146454761Y-59181904D01*
X146407142Y-59134285D01*
X146073809Y-59134285D01*
X146073809Y-59324761D01*
X146502380Y-58705714D02*
X145502380Y-58705714D01*
X146502380Y-58134285D01*
X145502380Y-58134285D01*
X146502380Y-57658095D02*
X145502380Y-57658095D01*
X145502380Y-57420000D01*
X145550000Y-57277142D01*
X145645238Y-57181904D01*
X145740476Y-57134285D01*
X145930952Y-57086666D01*
X146073809Y-57086666D01*
X146264285Y-57134285D01*
X146359523Y-57181904D01*
X146454761Y-57277142D01*
X146502380Y-57420000D01*
X146502380Y-57658095D01*
X106180000Y-59181904D02*
X106132380Y-59277142D01*
X106132380Y-59420000D01*
X106180000Y-59562857D01*
X106275238Y-59658095D01*
X106370476Y-59705714D01*
X106560952Y-59753333D01*
X106703809Y-59753333D01*
X106894285Y-59705714D01*
X106989523Y-59658095D01*
X107084761Y-59562857D01*
X107132380Y-59420000D01*
X107132380Y-59324761D01*
X107084761Y-59181904D01*
X107037142Y-59134285D01*
X106703809Y-59134285D01*
X106703809Y-59324761D01*
X107132380Y-58705714D02*
X106132380Y-58705714D01*
X107132380Y-58134285D01*
X106132380Y-58134285D01*
X107132380Y-57658095D02*
X106132380Y-57658095D01*
X106132380Y-57420000D01*
X106180000Y-57277142D01*
X106275238Y-57181904D01*
X106370476Y-57134285D01*
X106560952Y-57086666D01*
X106703809Y-57086666D01*
X106894285Y-57134285D01*
X106989523Y-57181904D01*
X107084761Y-57277142D01*
X107132380Y-57420000D01*
X107132380Y-57658095D01*
X94417142Y-67127380D02*
X93845714Y-67127380D01*
X94131428Y-67127380D02*
X94131428Y-66127380D01*
X94036190Y-66270238D01*
X93940952Y-66365476D01*
X93845714Y-66413095D01*
X94750476Y-66127380D02*
X95369523Y-66127380D01*
X95036190Y-66508333D01*
X95179047Y-66508333D01*
X95274285Y-66555952D01*
X95321904Y-66603571D01*
X95369523Y-66698809D01*
X95369523Y-66936904D01*
X95321904Y-67032142D01*
X95274285Y-67079761D01*
X95179047Y-67127380D01*
X94893333Y-67127380D01*
X94798095Y-67079761D01*
X94750476Y-67032142D01*
X95702857Y-66460714D02*
X95940952Y-67127380D01*
X96179047Y-66460714D01*
X96702857Y-66555952D02*
X96607619Y-66508333D01*
X96560000Y-66460714D01*
X96512380Y-66365476D01*
X96512380Y-66317857D01*
X96560000Y-66222619D01*
X96607619Y-66175000D01*
X96702857Y-66127380D01*
X96893333Y-66127380D01*
X96988571Y-66175000D01*
X97036190Y-66222619D01*
X97083809Y-66317857D01*
X97083809Y-66365476D01*
X97036190Y-66460714D01*
X96988571Y-66508333D01*
X96893333Y-66555952D01*
X96702857Y-66555952D01*
X96607619Y-66603571D01*
X96560000Y-66651190D01*
X96512380Y-66746428D01*
X96512380Y-66936904D01*
X96560000Y-67032142D01*
X96607619Y-67079761D01*
X96702857Y-67127380D01*
X96893333Y-67127380D01*
X96988571Y-67079761D01*
X97036190Y-67032142D01*
X97083809Y-66936904D01*
X97083809Y-66746428D01*
X97036190Y-66651190D01*
X96988571Y-66603571D01*
X96893333Y-66555952D01*
X98274285Y-66603571D02*
X98607619Y-66603571D01*
X98750476Y-67127380D02*
X98274285Y-67127380D01*
X98274285Y-66127380D01*
X98750476Y-66127380D01*
X99179047Y-67127380D02*
X99179047Y-66127380D01*
X99750476Y-67127380D01*
X99750476Y-66127380D01*
X100083809Y-66127380D02*
X100655238Y-66127380D01*
X100369523Y-67127380D02*
X100369523Y-66127380D01*
X101560000Y-67127380D02*
X101226666Y-66651190D01*
X100988571Y-67127380D02*
X100988571Y-66127380D01*
X101369523Y-66127380D01*
X101464761Y-66175000D01*
X101512380Y-66222619D01*
X101560000Y-66317857D01*
X101560000Y-66460714D01*
X101512380Y-66555952D01*
X101464761Y-66603571D01*
X101369523Y-66651190D01*
X100988571Y-66651190D01*
X101940952Y-66841666D02*
X102417142Y-66841666D01*
X101845714Y-67127380D02*
X102179047Y-66127380D01*
X102512380Y-67127380D01*
X102845714Y-67127380D02*
X102845714Y-66127380D01*
X103083809Y-66127380D01*
X103226666Y-66175000D01*
X103321904Y-66270238D01*
X103369523Y-66365476D01*
X103417142Y-66555952D01*
X103417142Y-66698809D01*
X103369523Y-66889285D01*
X103321904Y-66984523D01*
X103226666Y-67079761D01*
X103083809Y-67127380D01*
X102845714Y-67127380D01*
X103798095Y-66841666D02*
X104274285Y-66841666D01*
X103702857Y-67127380D02*
X104036190Y-66127380D01*
X104369523Y-67127380D01*
X131897619Y-72842380D02*
X131564285Y-72366190D01*
X131326190Y-72842380D02*
X131326190Y-71842380D01*
X131707142Y-71842380D01*
X131802380Y-71890000D01*
X131850000Y-71937619D01*
X131897619Y-72032857D01*
X131897619Y-72175714D01*
X131850000Y-72270952D01*
X131802380Y-72318571D01*
X131707142Y-72366190D01*
X131326190Y-72366190D01*
X132326190Y-72318571D02*
X132659523Y-72318571D01*
X132802380Y-72842380D02*
X132326190Y-72842380D01*
X132326190Y-71842380D01*
X132802380Y-71842380D01*
X133183333Y-72794761D02*
X133326190Y-72842380D01*
X133564285Y-72842380D01*
X133659523Y-72794761D01*
X133707142Y-72747142D01*
X133754761Y-72651904D01*
X133754761Y-72556666D01*
X133707142Y-72461428D01*
X133659523Y-72413809D01*
X133564285Y-72366190D01*
X133373809Y-72318571D01*
X133278571Y-72270952D01*
X133230952Y-72223333D01*
X133183333Y-72128095D01*
X133183333Y-72032857D01*
X133230952Y-71937619D01*
X133278571Y-71890000D01*
X133373809Y-71842380D01*
X133611904Y-71842380D01*
X133754761Y-71890000D01*
X134183333Y-72318571D02*
X134516666Y-72318571D01*
X134659523Y-72842380D02*
X134183333Y-72842380D01*
X134183333Y-71842380D01*
X134659523Y-71842380D01*
X134945238Y-71842380D02*
X135516666Y-71842380D01*
X135230952Y-72842380D02*
X135230952Y-71842380D01*
X134676190Y-64936666D02*
X135152380Y-64936666D01*
X134580952Y-65222380D02*
X134914285Y-64222380D01*
X135247619Y-65222380D01*
X136057142Y-65222380D02*
X135580952Y-65222380D01*
X135580952Y-64222380D01*
X136390476Y-65222380D02*
X136390476Y-64222380D01*
X136866666Y-65222380D02*
X136866666Y-64222380D01*
X137200000Y-64936666D01*
X137533333Y-64222380D01*
X137533333Y-65222380D01*
X138009523Y-64698571D02*
X138342857Y-64698571D01*
X138485714Y-65222380D02*
X138009523Y-65222380D01*
X138009523Y-64222380D01*
X138485714Y-64222380D01*
X138914285Y-65222380D02*
X138914285Y-64222380D01*
X139485714Y-65222380D01*
X139485714Y-64222380D01*
X139819047Y-64222380D02*
X140390476Y-64222380D01*
X140104761Y-65222380D02*
X140104761Y-64222380D01*
X140676190Y-64936666D02*
X141152380Y-64936666D01*
X140580952Y-65222380D02*
X140914285Y-64222380D01*
X141247619Y-65222380D01*
X142152380Y-65127142D02*
X142104761Y-65174761D01*
X141961904Y-65222380D01*
X141866666Y-65222380D01*
X141723809Y-65174761D01*
X141628571Y-65079523D01*
X141580952Y-64984285D01*
X141533333Y-64793809D01*
X141533333Y-64650952D01*
X141580952Y-64460476D01*
X141628571Y-64365238D01*
X141723809Y-64270000D01*
X141866666Y-64222380D01*
X141961904Y-64222380D01*
X142104761Y-64270000D01*
X142152380Y-64317619D01*
X142580952Y-65222380D02*
X142580952Y-64222380D01*
X143247619Y-64222380D02*
X143438095Y-64222380D01*
X143533333Y-64270000D01*
X143628571Y-64365238D01*
X143676190Y-64555714D01*
X143676190Y-64889047D01*
X143628571Y-65079523D01*
X143533333Y-65174761D01*
X143438095Y-65222380D01*
X143247619Y-65222380D01*
X143152380Y-65174761D01*
X143057142Y-65079523D01*
X143009523Y-64889047D01*
X143009523Y-64555714D01*
X143057142Y-64365238D01*
X143152380Y-64270000D01*
X143247619Y-64222380D01*
X144104761Y-65222380D02*
X144104761Y-64222380D01*
X144676190Y-65222380D01*
X144676190Y-64222380D01*
X99306190Y-107767380D02*
X99306190Y-106767380D01*
X99687142Y-106767380D01*
X99782380Y-106815000D01*
X99830000Y-106862619D01*
X99877619Y-106957857D01*
X99877619Y-107100714D01*
X99830000Y-107195952D01*
X99782380Y-107243571D01*
X99687142Y-107291190D01*
X99306190Y-107291190D01*
X100163333Y-106767380D02*
X100734761Y-106767380D01*
X100449047Y-107767380D02*
X100449047Y-106767380D01*
X100925238Y-106767380D02*
X101496666Y-106767380D01*
X101210952Y-107767380D02*
X101210952Y-106767380D01*
X109736190Y-107481666D02*
X110212380Y-107481666D01*
X109640952Y-107767380D02*
X109974285Y-106767380D01*
X110307619Y-107767380D01*
X110640952Y-106767380D02*
X110640952Y-107576904D01*
X110688571Y-107672142D01*
X110736190Y-107719761D01*
X110831428Y-107767380D01*
X111021904Y-107767380D01*
X111117142Y-107719761D01*
X111164761Y-107672142D01*
X111212380Y-107576904D01*
X111212380Y-106767380D01*
X111688571Y-107767380D02*
X111688571Y-106767380D01*
X111926666Y-106767380D01*
X112069523Y-106815000D01*
X112164761Y-106910238D01*
X112212380Y-107005476D01*
X112260000Y-107195952D01*
X112260000Y-107338809D01*
X112212380Y-107529285D01*
X112164761Y-107624523D01*
X112069523Y-107719761D01*
X111926666Y-107767380D01*
X111688571Y-107767380D01*
X112688571Y-107767380D02*
X112688571Y-106767380D01*
X113355238Y-106767380D02*
X113545714Y-106767380D01*
X113640952Y-106815000D01*
X113736190Y-106910238D01*
X113783809Y-107100714D01*
X113783809Y-107434047D01*
X113736190Y-107624523D01*
X113640952Y-107719761D01*
X113545714Y-107767380D01*
X113355238Y-107767380D01*
X113260000Y-107719761D01*
X113164761Y-107624523D01*
X113117142Y-107434047D01*
X113117142Y-107100714D01*
X113164761Y-106910238D01*
X113260000Y-106815000D01*
X113355238Y-106767380D01*
X134786666Y-108497142D02*
X134786666Y-108020952D01*
X135072380Y-108592380D02*
X134072380Y-108259047D01*
X135072380Y-107925714D01*
X135072380Y-107592380D02*
X134072380Y-107592380D01*
X134072380Y-107211428D01*
X134120000Y-107116190D01*
X134167619Y-107068571D01*
X134262857Y-107020952D01*
X134405714Y-107020952D01*
X134500952Y-107068571D01*
X134548571Y-107116190D01*
X134596190Y-107211428D01*
X134596190Y-107592380D01*
X134786666Y-106640000D02*
X134786666Y-106163809D01*
X135072380Y-106735238D02*
X134072380Y-106401904D01*
X135072380Y-106068571D01*
X134120000Y-105211428D02*
X134072380Y-105306666D01*
X134072380Y-105449523D01*
X134120000Y-105592380D01*
X134215238Y-105687619D01*
X134310476Y-105735238D01*
X134500952Y-105782857D01*
X134643809Y-105782857D01*
X134834285Y-105735238D01*
X134929523Y-105687619D01*
X135024761Y-105592380D01*
X135072380Y-105449523D01*
X135072380Y-105354285D01*
X135024761Y-105211428D01*
X134977142Y-105163809D01*
X134643809Y-105163809D01*
X134643809Y-105354285D01*
X134786666Y-104782857D02*
X134786666Y-104306666D01*
X135072380Y-104878095D02*
X134072380Y-104544761D01*
X135072380Y-104211428D01*
X135072380Y-103878095D02*
X134072380Y-103878095D01*
X134072380Y-103640000D01*
X134120000Y-103497142D01*
X134215238Y-103401904D01*
X134310476Y-103354285D01*
X134500952Y-103306666D01*
X134643809Y-103306666D01*
X134834285Y-103354285D01*
X134929523Y-103401904D01*
X135024761Y-103497142D01*
X135072380Y-103640000D01*
X135072380Y-103878095D01*
X134072380Y-102687619D02*
X134072380Y-102497142D01*
X134120000Y-102401904D01*
X134215238Y-102306666D01*
X134405714Y-102259047D01*
X134739047Y-102259047D01*
X134929523Y-102306666D01*
X135024761Y-102401904D01*
X135072380Y-102497142D01*
X135072380Y-102687619D01*
X135024761Y-102782857D01*
X134929523Y-102878095D01*
X134739047Y-102925714D01*
X134405714Y-102925714D01*
X134215238Y-102878095D01*
X134120000Y-102782857D01*
X134072380Y-102687619D01*
X134072380Y-100401904D02*
X134072380Y-99782857D01*
X134453333Y-100116190D01*
X134453333Y-99973333D01*
X134500952Y-99878095D01*
X134548571Y-99830476D01*
X134643809Y-99782857D01*
X134881904Y-99782857D01*
X134977142Y-99830476D01*
X135024761Y-99878095D01*
X135072380Y-99973333D01*
X135072380Y-100259047D01*
X135024761Y-100354285D01*
X134977142Y-100401904D01*
X129706666Y-108116190D02*
X129706666Y-107640000D01*
X129992380Y-108211428D02*
X128992380Y-107878095D01*
X129992380Y-107544761D01*
X129992380Y-107211428D02*
X128992380Y-107211428D01*
X128992380Y-106830476D01*
X129040000Y-106735238D01*
X129087619Y-106687619D01*
X129182857Y-106640000D01*
X129325714Y-106640000D01*
X129420952Y-106687619D01*
X129468571Y-106735238D01*
X129516190Y-106830476D01*
X129516190Y-107211428D01*
X129706666Y-106259047D02*
X129706666Y-105782857D01*
X129992380Y-106354285D02*
X128992380Y-106020952D01*
X129992380Y-105687619D01*
X129040000Y-104830476D02*
X128992380Y-104925714D01*
X128992380Y-105068571D01*
X129040000Y-105211428D01*
X129135238Y-105306666D01*
X129230476Y-105354285D01*
X129420952Y-105401904D01*
X129563809Y-105401904D01*
X129754285Y-105354285D01*
X129849523Y-105306666D01*
X129944761Y-105211428D01*
X129992380Y-105068571D01*
X129992380Y-104973333D01*
X129944761Y-104830476D01*
X129897142Y-104782857D01*
X129563809Y-104782857D01*
X129563809Y-104973333D01*
X129706666Y-104401904D02*
X129706666Y-103925714D01*
X129992380Y-104497142D02*
X128992380Y-104163809D01*
X129992380Y-103830476D01*
X129992380Y-103497142D02*
X128992380Y-103497142D01*
X128992380Y-103259047D01*
X129040000Y-103116190D01*
X129135238Y-103020952D01*
X129230476Y-102973333D01*
X129420952Y-102925714D01*
X129563809Y-102925714D01*
X129754285Y-102973333D01*
X129849523Y-103020952D01*
X129944761Y-103116190D01*
X129992380Y-103259047D01*
X129992380Y-103497142D01*
X128992380Y-102306666D02*
X128992380Y-102116190D01*
X129040000Y-102020952D01*
X129135238Y-101925714D01*
X129325714Y-101878095D01*
X129659047Y-101878095D01*
X129849523Y-101925714D01*
X129944761Y-102020952D01*
X129992380Y-102116190D01*
X129992380Y-102306666D01*
X129944761Y-102401904D01*
X129849523Y-102497142D01*
X129659047Y-102544761D01*
X129325714Y-102544761D01*
X129135238Y-102497142D01*
X129040000Y-102401904D01*
X128992380Y-102306666D01*
X129087619Y-100735238D02*
X129040000Y-100687619D01*
X128992380Y-100592380D01*
X128992380Y-100354285D01*
X129040000Y-100259047D01*
X129087619Y-100211428D01*
X129182857Y-100163809D01*
X129278095Y-100163809D01*
X129420952Y-100211428D01*
X129992380Y-100782857D01*
X129992380Y-100163809D01*
X124626666Y-108116190D02*
X124626666Y-107640000D01*
X124912380Y-108211428D02*
X123912380Y-107878095D01*
X124912380Y-107544761D01*
X124912380Y-107211428D02*
X123912380Y-107211428D01*
X123912380Y-106830476D01*
X123960000Y-106735238D01*
X124007619Y-106687619D01*
X124102857Y-106640000D01*
X124245714Y-106640000D01*
X124340952Y-106687619D01*
X124388571Y-106735238D01*
X124436190Y-106830476D01*
X124436190Y-107211428D01*
X124626666Y-106259047D02*
X124626666Y-105782857D01*
X124912380Y-106354285D02*
X123912380Y-106020952D01*
X124912380Y-105687619D01*
X123960000Y-104830476D02*
X123912380Y-104925714D01*
X123912380Y-105068571D01*
X123960000Y-105211428D01*
X124055238Y-105306666D01*
X124150476Y-105354285D01*
X124340952Y-105401904D01*
X124483809Y-105401904D01*
X124674285Y-105354285D01*
X124769523Y-105306666D01*
X124864761Y-105211428D01*
X124912380Y-105068571D01*
X124912380Y-104973333D01*
X124864761Y-104830476D01*
X124817142Y-104782857D01*
X124483809Y-104782857D01*
X124483809Y-104973333D01*
X124626666Y-104401904D02*
X124626666Y-103925714D01*
X124912380Y-104497142D02*
X123912380Y-104163809D01*
X124912380Y-103830476D01*
X124912380Y-103497142D02*
X123912380Y-103497142D01*
X123912380Y-103259047D01*
X123960000Y-103116190D01*
X124055238Y-103020952D01*
X124150476Y-102973333D01*
X124340952Y-102925714D01*
X124483809Y-102925714D01*
X124674285Y-102973333D01*
X124769523Y-103020952D01*
X124864761Y-103116190D01*
X124912380Y-103259047D01*
X124912380Y-103497142D01*
X123912380Y-102306666D02*
X123912380Y-102116190D01*
X123960000Y-102020952D01*
X124055238Y-101925714D01*
X124245714Y-101878095D01*
X124579047Y-101878095D01*
X124769523Y-101925714D01*
X124864761Y-102020952D01*
X124912380Y-102116190D01*
X124912380Y-102306666D01*
X124864761Y-102401904D01*
X124769523Y-102497142D01*
X124579047Y-102544761D01*
X124245714Y-102544761D01*
X124055238Y-102497142D01*
X123960000Y-102401904D01*
X123912380Y-102306666D01*
X124912380Y-100163809D02*
X124912380Y-100735238D01*
X124912380Y-100449523D02*
X123912380Y-100449523D01*
X124055238Y-100544761D01*
X124150476Y-100640000D01*
X124198095Y-100735238D01*
X162417142Y-109075238D02*
X162512380Y-108789523D01*
X162607619Y-108694285D01*
X162798095Y-108599047D01*
X163083809Y-108599047D01*
X163274285Y-108694285D01*
X163369523Y-108789523D01*
X163464761Y-108980000D01*
X163464761Y-109741904D01*
X161464761Y-109741904D01*
X161464761Y-109075238D01*
X161560000Y-108884761D01*
X161655238Y-108789523D01*
X161845714Y-108694285D01*
X162036190Y-108694285D01*
X162226666Y-108789523D01*
X162321904Y-108884761D01*
X162417142Y-109075238D01*
X162417142Y-109741904D01*
X162893333Y-107837142D02*
X162893333Y-106884761D01*
X163464761Y-108027619D02*
X161464761Y-107360952D01*
X163464761Y-106694285D01*
X163464761Y-105075238D02*
X163464761Y-106027619D01*
X161464761Y-106027619D01*
X163464761Y-104408571D02*
X161464761Y-104408571D01*
X161464761Y-103646666D02*
X161464761Y-102313333D01*
X163464761Y-103646666D01*
X163464761Y-102313333D01*
X162893333Y-101646666D02*
X162893333Y-100694285D01*
X163464761Y-101837142D02*
X161464761Y-101170476D01*
X163464761Y-100503809D01*
X162417142Y-98313333D02*
X162417142Y-97646666D01*
X163464761Y-97360952D02*
X163464761Y-98313333D01*
X161464761Y-98313333D01*
X161464761Y-97360952D01*
X162893333Y-96599047D02*
X162893333Y-95646666D01*
X163464761Y-96789523D02*
X161464761Y-96122857D01*
X163464761Y-95456190D01*
X161464761Y-94980000D02*
X161464761Y-93646666D01*
X163464761Y-94503809D01*
X163464761Y-92884761D02*
X161464761Y-92884761D01*
X162417142Y-92884761D02*
X162417142Y-91741904D01*
X163464761Y-91741904D02*
X161464761Y-91741904D01*
X161560000Y-89741904D02*
X161464761Y-89932380D01*
X161464761Y-90218095D01*
X161560000Y-90503809D01*
X161750476Y-90694285D01*
X161940952Y-90789523D01*
X162321904Y-90884761D01*
X162607619Y-90884761D01*
X162988571Y-90789523D01*
X163179047Y-90694285D01*
X163369523Y-90503809D01*
X163464761Y-90218095D01*
X163464761Y-90027619D01*
X163369523Y-89741904D01*
X163274285Y-89646666D01*
X162607619Y-89646666D01*
X162607619Y-90027619D01*
X162702857Y-88789523D02*
X162702857Y-87265714D01*
X162417142Y-85646666D02*
X162417142Y-86313333D01*
X163464761Y-86313333D02*
X161464761Y-86313333D01*
X161464761Y-85360952D01*
X162131428Y-83741904D02*
X163464761Y-83741904D01*
X161369523Y-84218095D02*
X162798095Y-84694285D01*
X162798095Y-83456190D01*
X163464761Y-81741904D02*
X163464761Y-82694285D01*
X161464761Y-82694285D01*
X162417142Y-81075238D02*
X162417142Y-80408571D01*
X163464761Y-80122857D02*
X163464761Y-81075238D01*
X161464761Y-81075238D01*
X161464761Y-80122857D01*
X163274285Y-78122857D02*
X163369523Y-78218095D01*
X163464761Y-78503809D01*
X163464761Y-78694285D01*
X163369523Y-78980000D01*
X163179047Y-79170476D01*
X162988571Y-79265714D01*
X162607619Y-79360952D01*
X162321904Y-79360952D01*
X161940952Y-79265714D01*
X161750476Y-79170476D01*
X161560000Y-78980000D01*
X161464761Y-78694285D01*
X161464761Y-78503809D01*
X161560000Y-78218095D01*
X161655238Y-78122857D01*
%TO.C,U1*%
X119888095Y-59627380D02*
X119888095Y-60436904D01*
X119935714Y-60532142D01*
X119983333Y-60579761D01*
X120078571Y-60627380D01*
X120269047Y-60627380D01*
X120364285Y-60579761D01*
X120411904Y-60532142D01*
X120459523Y-60436904D01*
X120459523Y-59627380D01*
X121459523Y-60627380D02*
X120888095Y-60627380D01*
X121173809Y-60627380D02*
X121173809Y-59627380D01*
X121078571Y-59770238D01*
X120983333Y-59865476D01*
X120888095Y-59913095D01*
%TO.C,JP1*%
X123626666Y-117352380D02*
X123626666Y-118066666D01*
X123579047Y-118209523D01*
X123483809Y-118304761D01*
X123340952Y-118352380D01*
X123245714Y-118352380D01*
X124102857Y-118352380D02*
X124102857Y-117352380D01*
X124483809Y-117352380D01*
X124579047Y-117400000D01*
X124626666Y-117447619D01*
X124674285Y-117542857D01*
X124674285Y-117685714D01*
X124626666Y-117780952D01*
X124579047Y-117828571D01*
X124483809Y-117876190D01*
X124102857Y-117876190D01*
X125626666Y-118352380D02*
X125055238Y-118352380D01*
X125340952Y-118352380D02*
X125340952Y-117352380D01*
X125245714Y-117495238D01*
X125150476Y-117590476D01*
X125055238Y-117638095D01*
%TO.C,J2*%
X99996666Y-108192380D02*
X99996666Y-108906666D01*
X99949047Y-109049523D01*
X99853809Y-109144761D01*
X99710952Y-109192380D01*
X99615714Y-109192380D01*
X100425238Y-108287619D02*
X100472857Y-108240000D01*
X100568095Y-108192380D01*
X100806190Y-108192380D01*
X100901428Y-108240000D01*
X100949047Y-108287619D01*
X100996666Y-108382857D01*
X100996666Y-108478095D01*
X100949047Y-108620952D01*
X100377619Y-109192380D01*
X100996666Y-109192380D01*
%TO.C,C4*%
X149007142Y-58856666D02*
X149054761Y-58904285D01*
X149102380Y-59047142D01*
X149102380Y-59142380D01*
X149054761Y-59285238D01*
X148959523Y-59380476D01*
X148864285Y-59428095D01*
X148673809Y-59475714D01*
X148530952Y-59475714D01*
X148340476Y-59428095D01*
X148245238Y-59380476D01*
X148150000Y-59285238D01*
X148102380Y-59142380D01*
X148102380Y-59047142D01*
X148150000Y-58904285D01*
X148197619Y-58856666D01*
X148435714Y-57999523D02*
X149102380Y-57999523D01*
X148054761Y-58237619D02*
X148769047Y-58475714D01*
X148769047Y-57856666D01*
%TO.C,C1*%
X105827142Y-67746666D02*
X105874761Y-67794285D01*
X105922380Y-67937142D01*
X105922380Y-68032380D01*
X105874761Y-68175238D01*
X105779523Y-68270476D01*
X105684285Y-68318095D01*
X105493809Y-68365714D01*
X105350952Y-68365714D01*
X105160476Y-68318095D01*
X105065238Y-68270476D01*
X104970000Y-68175238D01*
X104922380Y-68032380D01*
X104922380Y-67937142D01*
X104970000Y-67794285D01*
X105017619Y-67746666D01*
X105922380Y-66794285D02*
X105922380Y-67365714D01*
X105922380Y-67080000D02*
X104922380Y-67080000D01*
X105065238Y-67175238D01*
X105160476Y-67270476D01*
X105208095Y-67365714D01*
%TO.C,A1*%
X146605714Y-64936666D02*
X147081904Y-64936666D01*
X146510476Y-65222380D02*
X146843809Y-64222380D01*
X147177142Y-65222380D01*
X148034285Y-65222380D02*
X147462857Y-65222380D01*
X147748571Y-65222380D02*
X147748571Y-64222380D01*
X147653333Y-64365238D01*
X147558095Y-64460476D01*
X147462857Y-64508095D01*
X146058095Y-104862380D02*
X146058095Y-105671904D01*
X146105714Y-105767142D01*
X146153333Y-105814761D01*
X146248571Y-105862380D01*
X146439047Y-105862380D01*
X146534285Y-105814761D01*
X146581904Y-105767142D01*
X146629523Y-105671904D01*
X146629523Y-104862380D01*
X147058095Y-105814761D02*
X147200952Y-105862380D01*
X147439047Y-105862380D01*
X147534285Y-105814761D01*
X147581904Y-105767142D01*
X147629523Y-105671904D01*
X147629523Y-105576666D01*
X147581904Y-105481428D01*
X147534285Y-105433809D01*
X147439047Y-105386190D01*
X147248571Y-105338571D01*
X147153333Y-105290952D01*
X147105714Y-105243333D01*
X147058095Y-105148095D01*
X147058095Y-105052857D01*
X147105714Y-104957619D01*
X147153333Y-104910000D01*
X147248571Y-104862380D01*
X147486666Y-104862380D01*
X147629523Y-104910000D01*
X148391428Y-105338571D02*
X148534285Y-105386190D01*
X148581904Y-105433809D01*
X148629523Y-105529047D01*
X148629523Y-105671904D01*
X148581904Y-105767142D01*
X148534285Y-105814761D01*
X148439047Y-105862380D01*
X148058095Y-105862380D01*
X148058095Y-104862380D01*
X148391428Y-104862380D01*
X148486666Y-104910000D01*
X148534285Y-104957619D01*
X148581904Y-105052857D01*
X148581904Y-105148095D01*
X148534285Y-105243333D01*
X148486666Y-105290952D01*
X148391428Y-105338571D01*
X148058095Y-105338571D01*
%TO.C,C3*%
X127377142Y-94146666D02*
X127424761Y-94194285D01*
X127472380Y-94337142D01*
X127472380Y-94432380D01*
X127424761Y-94575238D01*
X127329523Y-94670476D01*
X127234285Y-94718095D01*
X127043809Y-94765714D01*
X126900952Y-94765714D01*
X126710476Y-94718095D01*
X126615238Y-94670476D01*
X126520000Y-94575238D01*
X126472380Y-94432380D01*
X126472380Y-94337142D01*
X126520000Y-94194285D01*
X126567619Y-94146666D01*
X126472380Y-93813333D02*
X126472380Y-93194285D01*
X126853333Y-93527619D01*
X126853333Y-93384761D01*
X126900952Y-93289523D01*
X126948571Y-93241904D01*
X127043809Y-93194285D01*
X127281904Y-93194285D01*
X127377142Y-93241904D01*
X127424761Y-93289523D01*
X127472380Y-93384761D01*
X127472380Y-93670476D01*
X127424761Y-93765714D01*
X127377142Y-93813333D01*
%TO.C,K2*%
X103351904Y-69992380D02*
X103351904Y-68992380D01*
X103923333Y-69992380D02*
X103494761Y-69420952D01*
X103923333Y-68992380D02*
X103351904Y-69563809D01*
X104304285Y-69087619D02*
X104351904Y-69040000D01*
X104447142Y-68992380D01*
X104685238Y-68992380D01*
X104780476Y-69040000D01*
X104828095Y-69087619D01*
X104875714Y-69182857D01*
X104875714Y-69278095D01*
X104828095Y-69420952D01*
X104256666Y-69992380D01*
X104875714Y-69992380D01*
%TO.C,Q1*%
X120177619Y-92805238D02*
X120130000Y-92900476D01*
X120034761Y-92995714D01*
X119891904Y-93138571D01*
X119844285Y-93233809D01*
X119844285Y-93329047D01*
X120082380Y-93281428D02*
X120034761Y-93376666D01*
X119939523Y-93471904D01*
X119749047Y-93519523D01*
X119415714Y-93519523D01*
X119225238Y-93471904D01*
X119130000Y-93376666D01*
X119082380Y-93281428D01*
X119082380Y-93090952D01*
X119130000Y-92995714D01*
X119225238Y-92900476D01*
X119415714Y-92852857D01*
X119749047Y-92852857D01*
X119939523Y-92900476D01*
X120034761Y-92995714D01*
X120082380Y-93090952D01*
X120082380Y-93281428D01*
X120082380Y-91900476D02*
X120082380Y-92471904D01*
X120082380Y-92186190D02*
X119082380Y-92186190D01*
X119225238Y-92281428D01*
X119320476Y-92376666D01*
X119368095Y-92471904D01*
%TO.C,K1*%
X97051904Y-104592380D02*
X97051904Y-103592380D01*
X97623333Y-104592380D02*
X97194761Y-104020952D01*
X97623333Y-103592380D02*
X97051904Y-104163809D01*
X98575714Y-104592380D02*
X98004285Y-104592380D01*
X98290000Y-104592380D02*
X98290000Y-103592380D01*
X98194761Y-103735238D01*
X98099523Y-103830476D01*
X98004285Y-103878095D01*
%TO.C,C2*%
X125563333Y-68937142D02*
X125515714Y-68984761D01*
X125372857Y-69032380D01*
X125277619Y-69032380D01*
X125134761Y-68984761D01*
X125039523Y-68889523D01*
X124991904Y-68794285D01*
X124944285Y-68603809D01*
X124944285Y-68460952D01*
X124991904Y-68270476D01*
X125039523Y-68175238D01*
X125134761Y-68080000D01*
X125277619Y-68032380D01*
X125372857Y-68032380D01*
X125515714Y-68080000D01*
X125563333Y-68127619D01*
X125944285Y-68127619D02*
X125991904Y-68080000D01*
X126087142Y-68032380D01*
X126325238Y-68032380D01*
X126420476Y-68080000D01*
X126468095Y-68127619D01*
X126515714Y-68222857D01*
X126515714Y-68318095D01*
X126468095Y-68460952D01*
X125896666Y-69032380D01*
X126515714Y-69032380D01*
%TO.C,R1*%
X131913333Y-78542380D02*
X131580000Y-78066190D01*
X131341904Y-78542380D02*
X131341904Y-77542380D01*
X131722857Y-77542380D01*
X131818095Y-77590000D01*
X131865714Y-77637619D01*
X131913333Y-77732857D01*
X131913333Y-77875714D01*
X131865714Y-77970952D01*
X131818095Y-78018571D01*
X131722857Y-78066190D01*
X131341904Y-78066190D01*
X132865714Y-78542380D02*
X132294285Y-78542380D01*
X132580000Y-78542380D02*
X132580000Y-77542380D01*
X132484761Y-77685238D01*
X132389523Y-77780476D01*
X132294285Y-77828095D01*
%TO.C,C5*%
X157877142Y-75096666D02*
X157924761Y-75144285D01*
X157972380Y-75287142D01*
X157972380Y-75382380D01*
X157924761Y-75525238D01*
X157829523Y-75620476D01*
X157734285Y-75668095D01*
X157543809Y-75715714D01*
X157400952Y-75715714D01*
X157210476Y-75668095D01*
X157115238Y-75620476D01*
X157020000Y-75525238D01*
X156972380Y-75382380D01*
X156972380Y-75287142D01*
X157020000Y-75144285D01*
X157067619Y-75096666D01*
X156972380Y-74191904D02*
X156972380Y-74668095D01*
X157448571Y-74715714D01*
X157400952Y-74668095D01*
X157353333Y-74572857D01*
X157353333Y-74334761D01*
X157400952Y-74239523D01*
X157448571Y-74191904D01*
X157543809Y-74144285D01*
X157781904Y-74144285D01*
X157877142Y-74191904D01*
X157924761Y-74239523D01*
X157972380Y-74334761D01*
X157972380Y-74572857D01*
X157924761Y-74668095D01*
X157877142Y-74715714D01*
%TO.C,JP3*%
X133786666Y-117352380D02*
X133786666Y-118066666D01*
X133739047Y-118209523D01*
X133643809Y-118304761D01*
X133500952Y-118352380D01*
X133405714Y-118352380D01*
X134262857Y-118352380D02*
X134262857Y-117352380D01*
X134643809Y-117352380D01*
X134739047Y-117400000D01*
X134786666Y-117447619D01*
X134834285Y-117542857D01*
X134834285Y-117685714D01*
X134786666Y-117780952D01*
X134739047Y-117828571D01*
X134643809Y-117876190D01*
X134262857Y-117876190D01*
X135167619Y-117352380D02*
X135786666Y-117352380D01*
X135453333Y-117733333D01*
X135596190Y-117733333D01*
X135691428Y-117780952D01*
X135739047Y-117828571D01*
X135786666Y-117923809D01*
X135786666Y-118161904D01*
X135739047Y-118257142D01*
X135691428Y-118304761D01*
X135596190Y-118352380D01*
X135310476Y-118352380D01*
X135215238Y-118304761D01*
X135167619Y-118257142D01*
%TO.C,Q2*%
X127297619Y-80105238D02*
X127250000Y-80200476D01*
X127154761Y-80295714D01*
X127011904Y-80438571D01*
X126964285Y-80533809D01*
X126964285Y-80629047D01*
X127202380Y-80581428D02*
X127154761Y-80676666D01*
X127059523Y-80771904D01*
X126869047Y-80819523D01*
X126535714Y-80819523D01*
X126345238Y-80771904D01*
X126250000Y-80676666D01*
X126202380Y-80581428D01*
X126202380Y-80390952D01*
X126250000Y-80295714D01*
X126345238Y-80200476D01*
X126535714Y-80152857D01*
X126869047Y-80152857D01*
X127059523Y-80200476D01*
X127154761Y-80295714D01*
X127202380Y-80390952D01*
X127202380Y-80581428D01*
X126297619Y-79771904D02*
X126250000Y-79724285D01*
X126202380Y-79629047D01*
X126202380Y-79390952D01*
X126250000Y-79295714D01*
X126297619Y-79248095D01*
X126392857Y-79200476D01*
X126488095Y-79200476D01*
X126630952Y-79248095D01*
X127202380Y-79819523D01*
X127202380Y-79200476D01*
%TO.C,D1*%
X117292380Y-102338095D02*
X116292380Y-102338095D01*
X116292380Y-102100000D01*
X116340000Y-101957142D01*
X116435238Y-101861904D01*
X116530476Y-101814285D01*
X116720952Y-101766666D01*
X116863809Y-101766666D01*
X117054285Y-101814285D01*
X117149523Y-101861904D01*
X117244761Y-101957142D01*
X117292380Y-102100000D01*
X117292380Y-102338095D01*
X117292380Y-100814285D02*
X117292380Y-101385714D01*
X117292380Y-101100000D02*
X116292380Y-101100000D01*
X116435238Y-101195238D01*
X116530476Y-101290476D01*
X116578095Y-101385714D01*
X115192380Y-99321904D02*
X114192380Y-99321904D01*
X115192380Y-98750476D02*
X114620952Y-99179047D01*
X114192380Y-98750476D02*
X114763809Y-99321904D01*
%TO.C,D2*%
X117292380Y-85828095D02*
X116292380Y-85828095D01*
X116292380Y-85590000D01*
X116340000Y-85447142D01*
X116435238Y-85351904D01*
X116530476Y-85304285D01*
X116720952Y-85256666D01*
X116863809Y-85256666D01*
X117054285Y-85304285D01*
X117149523Y-85351904D01*
X117244761Y-85447142D01*
X117292380Y-85590000D01*
X117292380Y-85828095D01*
X116387619Y-84875714D02*
X116340000Y-84828095D01*
X116292380Y-84732857D01*
X116292380Y-84494761D01*
X116340000Y-84399523D01*
X116387619Y-84351904D01*
X116482857Y-84304285D01*
X116578095Y-84304285D01*
X116720952Y-84351904D01*
X117292380Y-84923333D01*
X117292380Y-84304285D01*
X115192380Y-82811904D02*
X114192380Y-82811904D01*
X115192380Y-82240476D02*
X114620952Y-82669047D01*
X114192380Y-82240476D02*
X114763809Y-82811904D01*
%TO.C,J1*%
X146986666Y-54697380D02*
X146986666Y-55411666D01*
X146939047Y-55554523D01*
X146843809Y-55649761D01*
X146700952Y-55697380D01*
X146605714Y-55697380D01*
X147986666Y-55697380D02*
X147415238Y-55697380D01*
X147700952Y-55697380D02*
X147700952Y-54697380D01*
X147605714Y-54840238D01*
X147510476Y-54935476D01*
X147415238Y-54983095D01*
%TO.C,JP4*%
X135691666Y-75032380D02*
X135691666Y-75746666D01*
X135644047Y-75889523D01*
X135548809Y-75984761D01*
X135405952Y-76032380D01*
X135310714Y-76032380D01*
X136167857Y-76032380D02*
X136167857Y-75032380D01*
X136548809Y-75032380D01*
X136644047Y-75080000D01*
X136691666Y-75127619D01*
X136739285Y-75222857D01*
X136739285Y-75365714D01*
X136691666Y-75460952D01*
X136644047Y-75508571D01*
X136548809Y-75556190D01*
X136167857Y-75556190D01*
X137596428Y-75365714D02*
X137596428Y-76032380D01*
X137358333Y-74984761D02*
X137120238Y-75699047D01*
X137739285Y-75699047D01*
%TO.C,J3*%
X111426666Y-108192380D02*
X111426666Y-108906666D01*
X111379047Y-109049523D01*
X111283809Y-109144761D01*
X111140952Y-109192380D01*
X111045714Y-109192380D01*
X111807619Y-108192380D02*
X112426666Y-108192380D01*
X112093333Y-108573333D01*
X112236190Y-108573333D01*
X112331428Y-108620952D01*
X112379047Y-108668571D01*
X112426666Y-108763809D01*
X112426666Y-109001904D01*
X112379047Y-109097142D01*
X112331428Y-109144761D01*
X112236190Y-109192380D01*
X111950476Y-109192380D01*
X111855238Y-109144761D01*
X111807619Y-109097142D01*
%TO.C,JP2*%
X128706666Y-117352380D02*
X128706666Y-118066666D01*
X128659047Y-118209523D01*
X128563809Y-118304761D01*
X128420952Y-118352380D01*
X128325714Y-118352380D01*
X129182857Y-118352380D02*
X129182857Y-117352380D01*
X129563809Y-117352380D01*
X129659047Y-117400000D01*
X129706666Y-117447619D01*
X129754285Y-117542857D01*
X129754285Y-117685714D01*
X129706666Y-117780952D01*
X129659047Y-117828571D01*
X129563809Y-117876190D01*
X129182857Y-117876190D01*
X130135238Y-117447619D02*
X130182857Y-117400000D01*
X130278095Y-117352380D01*
X130516190Y-117352380D01*
X130611428Y-117400000D01*
X130659047Y-117447619D01*
X130706666Y-117542857D01*
X130706666Y-117638095D01*
X130659047Y-117780952D01*
X130087619Y-118352380D01*
X130706666Y-118352380D01*
%TO.C,R2*%
X133152380Y-95416666D02*
X132676190Y-95750000D01*
X133152380Y-95988095D02*
X132152380Y-95988095D01*
X132152380Y-95607142D01*
X132200000Y-95511904D01*
X132247619Y-95464285D01*
X132342857Y-95416666D01*
X132485714Y-95416666D01*
X132580952Y-95464285D01*
X132628571Y-95511904D01*
X132676190Y-95607142D01*
X132676190Y-95988095D01*
X132247619Y-95035714D02*
X132200000Y-94988095D01*
X132152380Y-94892857D01*
X132152380Y-94654761D01*
X132200000Y-94559523D01*
X132247619Y-94511904D01*
X132342857Y-94464285D01*
X132438095Y-94464285D01*
X132580952Y-94511904D01*
X133152380Y-95083333D01*
X133152380Y-94464285D01*
%TO.C,J4*%
X100036666Y-63932380D02*
X100036666Y-64646666D01*
X99989047Y-64789523D01*
X99893809Y-64884761D01*
X99750952Y-64932380D01*
X99655714Y-64932380D01*
X100941428Y-64265714D02*
X100941428Y-64932380D01*
X100703333Y-63884761D02*
X100465238Y-64599047D01*
X101084285Y-64599047D01*
D11*
%TO.C,U1*%
X125770000Y-61175000D02*
X125770000Y-65816000D01*
X115530000Y-61175000D02*
X125770000Y-61175000D01*
X115530000Y-61175000D02*
X115530000Y-65816000D01*
X115530000Y-65816000D02*
X125770000Y-65816000D01*
X122501000Y-61175000D02*
X122501000Y-62685000D01*
X115530000Y-62685000D02*
X125770000Y-62685000D01*
X118800000Y-61175000D02*
X118800000Y-62685000D01*
%TO.C,JP1*%
X125790000Y-111700000D02*
X123130000Y-111700000D01*
X125790000Y-114300000D02*
X123130000Y-114300000D01*
X125790000Y-114300000D02*
X125790000Y-111700000D01*
X125790000Y-116900000D02*
X124460000Y-116900000D01*
X125790000Y-115570000D02*
X125790000Y-116900000D01*
X123130000Y-114300000D02*
X123130000Y-111700000D01*
%TO.C,J2*%
X95270000Y-118860000D02*
X105390000Y-118860000D01*
X105390000Y-109740000D02*
X105390000Y-118860000D01*
X103900000Y-113525000D02*
X103841000Y-113584000D01*
X104105000Y-113731000D02*
X104011000Y-113824000D01*
X95030000Y-117360000D02*
X95030000Y-119100000D01*
X101820000Y-116016000D02*
X101761000Y-116074000D01*
X95030000Y-119100000D02*
X96530000Y-119100000D01*
X95270000Y-117300000D02*
X105390000Y-117300000D01*
X101650000Y-115776000D02*
X101556000Y-115869000D01*
X95270000Y-109740000D02*
X105390000Y-109740000D01*
X95270000Y-109740000D02*
X95270000Y-118860000D01*
X97041000Y-116284000D02*
G75*
G03*
X97859383Y-116480450I788998J1483995D01*
G01*
X96346000Y-114011000D02*
G75*
G03*
X96346047Y-115589089I1483995J-789000D01*
G01*
X97830000Y-116480000D02*
G75*
G03*
X98618712Y-116283352I0J1680000D01*
G01*
X99314001Y-115589000D02*
G75*
G03*
X99313953Y-114010911I-1484001J789000D01*
G01*
X98619000Y-113316000D02*
G75*
G03*
X97040911Y-113316047I-789000J-1483995D01*
G01*
X104510000Y-114800000D02*
G75*
G03*
X104510000Y-114800000I-1680000J0D01*
G01*
X103730000Y-111800000D02*
G75*
G03*
X103730000Y-111800000I-900000J0D01*
G01*
X98730000Y-111800000D02*
G75*
G03*
X98730000Y-111800000I-900000J0D01*
G01*
%TO.C,C4*%
X149844000Y-58330000D02*
X151360000Y-58330000D01*
X153440000Y-58010000D02*
X154891000Y-58010000D01*
X153440000Y-57929000D02*
X154868000Y-57929000D01*
X149932000Y-57929000D02*
X151360000Y-57929000D01*
X153440000Y-57289000D02*
X154575000Y-57289000D01*
X153440000Y-56969000D02*
X154337000Y-56969000D01*
X150795000Y-56649000D02*
X154005000Y-56649000D01*
X153440000Y-58250000D02*
X154943000Y-58250000D01*
X150574000Y-56849000D02*
X151360000Y-56849000D01*
X150251000Y-57249000D02*
X151360000Y-57249000D01*
X149986000Y-57769000D02*
X151360000Y-57769000D01*
X149824000Y-58530000D02*
X151360000Y-58530000D01*
X153440000Y-56689000D02*
X154053000Y-56689000D01*
X151723000Y-56169000D02*
X153077000Y-56169000D01*
X153440000Y-57169000D02*
X154495000Y-57169000D01*
X150675000Y-61244775D02*
X151175000Y-61244775D01*
X150925000Y-61494775D02*
X150925000Y-60994775D01*
X153440000Y-56849000D02*
X154226000Y-56849000D01*
X153440000Y-58450000D02*
X154969000Y-58450000D01*
X151149000Y-56409000D02*
X153651000Y-56409000D01*
X153440000Y-57609000D02*
X154748000Y-57609000D01*
X150052000Y-57609000D02*
X151360000Y-57609000D01*
X149880000Y-58130000D02*
X151360000Y-58130000D01*
X150335000Y-57129000D02*
X151360000Y-57129000D01*
X150305000Y-57169000D02*
X151360000Y-57169000D01*
X153440000Y-57449000D02*
X154668000Y-57449000D01*
X149839000Y-58370000D02*
X151360000Y-58370000D01*
X153440000Y-58410000D02*
X154965000Y-58410000D01*
X150499000Y-56929000D02*
X151360000Y-56929000D01*
X149972000Y-57809000D02*
X151360000Y-57809000D01*
X153440000Y-57969000D02*
X154880000Y-57969000D01*
X150701000Y-56729000D02*
X151360000Y-56729000D01*
X150035000Y-57649000D02*
X151360000Y-57649000D01*
X150429000Y-57009000D02*
X151360000Y-57009000D01*
X149899000Y-58050000D02*
X151360000Y-58050000D01*
X153440000Y-57409000D02*
X154647000Y-57409000D01*
X150225000Y-57289000D02*
X151360000Y-57289000D01*
X149909000Y-58010000D02*
X151360000Y-58010000D01*
X153440000Y-58330000D02*
X154956000Y-58330000D01*
X151485000Y-56249000D02*
X153315000Y-56249000D01*
X153440000Y-58650000D02*
X154980000Y-58650000D01*
X150278000Y-57209000D02*
X151360000Y-57209000D01*
X153440000Y-58570000D02*
X154978000Y-58570000D01*
X153440000Y-57209000D02*
X154522000Y-57209000D01*
X153440000Y-57809000D02*
X154828000Y-57809000D01*
X153440000Y-58530000D02*
X154976000Y-58530000D01*
X149958000Y-57849000D02*
X151360000Y-57849000D01*
X153440000Y-56729000D02*
X154099000Y-56729000D01*
X153440000Y-57129000D02*
X154465000Y-57129000D01*
X150957000Y-56529000D02*
X153843000Y-56529000D01*
X150200000Y-57329000D02*
X151360000Y-57329000D01*
X150090000Y-57529000D02*
X151360000Y-57529000D01*
X153440000Y-57849000D02*
X154842000Y-57849000D01*
X153440000Y-58170000D02*
X154928000Y-58170000D01*
X150132000Y-57449000D02*
X151360000Y-57449000D01*
X153440000Y-57049000D02*
X154404000Y-57049000D01*
X151595000Y-56209000D02*
X153205000Y-56209000D01*
X151081000Y-56449000D02*
X153719000Y-56449000D01*
X153440000Y-57529000D02*
X154710000Y-57529000D01*
X153440000Y-57249000D02*
X154549000Y-57249000D01*
X151302000Y-56329000D02*
X153498000Y-56329000D01*
X150018000Y-57689000D02*
X151360000Y-57689000D01*
X149889000Y-58090000D02*
X151360000Y-58090000D01*
X149864000Y-58210000D02*
X151360000Y-58210000D01*
X153440000Y-58610000D02*
X154979000Y-58610000D01*
X153440000Y-58370000D02*
X154961000Y-58370000D01*
X153440000Y-56809000D02*
X154185000Y-56809000D01*
X150846000Y-56609000D02*
X153954000Y-56609000D01*
X150153000Y-57409000D02*
X151360000Y-57409000D01*
X153440000Y-58490000D02*
X154973000Y-58490000D01*
X153440000Y-56889000D02*
X154264000Y-56889000D01*
X150615000Y-56809000D02*
X151360000Y-56809000D01*
X150002000Y-57729000D02*
X151360000Y-57729000D01*
X151882000Y-56129000D02*
X152918000Y-56129000D01*
X150071000Y-57569000D02*
X151360000Y-57569000D01*
X153440000Y-56769000D02*
X154143000Y-56769000D01*
X153440000Y-57569000D02*
X154729000Y-57569000D01*
X153440000Y-57729000D02*
X154798000Y-57729000D01*
X153440000Y-57089000D02*
X154435000Y-57089000D01*
X150747000Y-56689000D02*
X151360000Y-56689000D01*
X153440000Y-58090000D02*
X154911000Y-58090000D01*
X153440000Y-58290000D02*
X154950000Y-58290000D01*
X151389000Y-56289000D02*
X153411000Y-56289000D01*
X150657000Y-56769000D02*
X151360000Y-56769000D01*
X149945000Y-57889000D02*
X151360000Y-57889000D01*
X153440000Y-57889000D02*
X154855000Y-57889000D01*
X150396000Y-57049000D02*
X151360000Y-57049000D01*
X149920000Y-57969000D02*
X151360000Y-57969000D01*
X150900000Y-56569000D02*
X153900000Y-56569000D01*
X151017000Y-56489000D02*
X153783000Y-56489000D01*
X153440000Y-58050000D02*
X154901000Y-58050000D01*
X152116000Y-56089000D02*
X152684000Y-56089000D01*
X153440000Y-57689000D02*
X154782000Y-57689000D01*
X153440000Y-58690000D02*
X154980000Y-58690000D01*
X153440000Y-56929000D02*
X154301000Y-56929000D01*
X150536000Y-56889000D02*
X151360000Y-56889000D01*
X151222000Y-56369000D02*
X153578000Y-56369000D01*
X153440000Y-57009000D02*
X154371000Y-57009000D01*
X149850000Y-58290000D02*
X151360000Y-58290000D01*
X149831000Y-58450000D02*
X151360000Y-58450000D01*
X149835000Y-58410000D02*
X151360000Y-58410000D01*
X149827000Y-58490000D02*
X151360000Y-58490000D01*
X153440000Y-57769000D02*
X154814000Y-57769000D01*
X150110000Y-57489000D02*
X151360000Y-57489000D01*
X150365000Y-57089000D02*
X151360000Y-57089000D01*
X153440000Y-57649000D02*
X154765000Y-57649000D01*
X150176000Y-57369000D02*
X151360000Y-57369000D01*
X149820000Y-58650000D02*
X151360000Y-58650000D01*
X153440000Y-57369000D02*
X154624000Y-57369000D01*
X153440000Y-57489000D02*
X154690000Y-57489000D01*
X149820000Y-58690000D02*
X151360000Y-58690000D01*
X149872000Y-58170000D02*
X151360000Y-58170000D01*
X149821000Y-58610000D02*
X151360000Y-58610000D01*
X153440000Y-58210000D02*
X154936000Y-58210000D01*
X149857000Y-58250000D02*
X151360000Y-58250000D01*
X153440000Y-57329000D02*
X154600000Y-57329000D01*
X153440000Y-58130000D02*
X154920000Y-58130000D01*
X150463000Y-56969000D02*
X151360000Y-56969000D01*
X149822000Y-58570000D02*
X151360000Y-58570000D01*
X155020000Y-58690000D02*
G75*
G03*
X155020000Y-58690000I-2620000J0D01*
G01*
%TO.C,C1*%
X110260000Y-66339000D02*
X111488000Y-66339000D01*
X110260000Y-65939000D02*
X111224000Y-65939000D01*
X110260000Y-67260000D02*
X111781000Y-67260000D01*
X106677000Y-67140000D02*
X108180000Y-67140000D01*
X107666000Y-65499000D02*
X110774000Y-65499000D01*
X106640000Y-67540000D02*
X108180000Y-67540000D01*
X108209000Y-65179000D02*
X110231000Y-65179000D01*
X107319000Y-65819000D02*
X108180000Y-65819000D01*
X107155000Y-66019000D02*
X108180000Y-66019000D01*
X110260000Y-66539000D02*
X111585000Y-66539000D01*
X108702000Y-65019000D02*
X109738000Y-65019000D01*
X110260000Y-67020000D02*
X111740000Y-67020000D01*
X107969000Y-65299000D02*
X110471000Y-65299000D01*
X107185000Y-65979000D02*
X108180000Y-65979000D01*
X107283000Y-65859000D02*
X108180000Y-65859000D01*
X110260000Y-66419000D02*
X111530000Y-66419000D01*
X107777000Y-65419000D02*
X110663000Y-65419000D01*
X106670000Y-67180000D02*
X108180000Y-67180000D01*
X107098000Y-66099000D02*
X108180000Y-66099000D01*
X110260000Y-66619000D02*
X111618000Y-66619000D01*
X106952000Y-66339000D02*
X108180000Y-66339000D01*
X110260000Y-67540000D02*
X111800000Y-67540000D01*
X110260000Y-67420000D02*
X111796000Y-67420000D01*
X106692000Y-67060000D02*
X108180000Y-67060000D01*
X110260000Y-66179000D02*
X111395000Y-66179000D01*
X110260000Y-65579000D02*
X110873000Y-65579000D01*
X110260000Y-66699000D02*
X111648000Y-66699000D01*
X107567000Y-65579000D02*
X108180000Y-65579000D01*
X110260000Y-66900000D02*
X111711000Y-66900000D01*
X106973000Y-66299000D02*
X108180000Y-66299000D01*
X106872000Y-66499000D02*
X108180000Y-66499000D01*
X107356000Y-65779000D02*
X108180000Y-65779000D01*
X106641000Y-67500000D02*
X108180000Y-67500000D01*
X106651000Y-67340000D02*
X108180000Y-67340000D01*
X107901000Y-65339000D02*
X110539000Y-65339000D01*
X110260000Y-65859000D02*
X111157000Y-65859000D01*
X106642000Y-67460000D02*
X108180000Y-67460000D01*
X107045000Y-66179000D02*
X108180000Y-66179000D01*
X106930000Y-66379000D02*
X108180000Y-66379000D01*
X110260000Y-66980000D02*
X111731000Y-66980000D01*
X110260000Y-66659000D02*
X111634000Y-66659000D01*
X106910000Y-66419000D02*
X108180000Y-66419000D01*
X110260000Y-67380000D02*
X111793000Y-67380000D01*
X106655000Y-67300000D02*
X108180000Y-67300000D01*
X110260000Y-66819000D02*
X111688000Y-66819000D01*
X110260000Y-65739000D02*
X111046000Y-65739000D01*
X107071000Y-66139000D02*
X108180000Y-66139000D01*
X106765000Y-66779000D02*
X108180000Y-66779000D01*
X106664000Y-67220000D02*
X108180000Y-67220000D01*
X108936000Y-64979000D02*
X109504000Y-64979000D01*
X110260000Y-67300000D02*
X111785000Y-67300000D01*
X106644000Y-67420000D02*
X108180000Y-67420000D01*
X110260000Y-65779000D02*
X111084000Y-65779000D01*
X106659000Y-67260000D02*
X108180000Y-67260000D01*
X110260000Y-66139000D02*
X111369000Y-66139000D01*
X110260000Y-66499000D02*
X111568000Y-66499000D01*
X106752000Y-66819000D02*
X108180000Y-66819000D01*
X106792000Y-66699000D02*
X108180000Y-66699000D01*
X107249000Y-65899000D02*
X108180000Y-65899000D01*
X110260000Y-67340000D02*
X111789000Y-67340000D01*
X106891000Y-66459000D02*
X108180000Y-66459000D01*
X110260000Y-66859000D02*
X111700000Y-66859000D01*
X108042000Y-65259000D02*
X110398000Y-65259000D01*
X110260000Y-67100000D02*
X111756000Y-67100000D01*
X110260000Y-66099000D02*
X111342000Y-66099000D01*
X110260000Y-66259000D02*
X111444000Y-66259000D01*
X106740000Y-66859000D02*
X108180000Y-66859000D01*
X106996000Y-66259000D02*
X108180000Y-66259000D01*
X107125000Y-66059000D02*
X108180000Y-66059000D01*
X110260000Y-65619000D02*
X110919000Y-65619000D01*
X110260000Y-66459000D02*
X111549000Y-66459000D01*
X107615000Y-65539000D02*
X110825000Y-65539000D01*
X110260000Y-65819000D02*
X111121000Y-65819000D01*
X110260000Y-67220000D02*
X111776000Y-67220000D01*
X110260000Y-65659000D02*
X110963000Y-65659000D01*
X106684000Y-67100000D02*
X108180000Y-67100000D01*
X107477000Y-65659000D02*
X108180000Y-65659000D01*
X106647000Y-67380000D02*
X108180000Y-67380000D01*
X106778000Y-66739000D02*
X108180000Y-66739000D01*
X106838000Y-66579000D02*
X108180000Y-66579000D01*
X106700000Y-67020000D02*
X108180000Y-67020000D01*
X106822000Y-66619000D02*
X108180000Y-66619000D01*
X110260000Y-67500000D02*
X111799000Y-67500000D01*
X107020000Y-66219000D02*
X108180000Y-66219000D01*
X110260000Y-66579000D02*
X111602000Y-66579000D01*
X107216000Y-65939000D02*
X108180000Y-65939000D01*
X110260000Y-66739000D02*
X111662000Y-66739000D01*
X107435000Y-65699000D02*
X108180000Y-65699000D01*
X110260000Y-67580000D02*
X111800000Y-67580000D01*
X107394000Y-65739000D02*
X108180000Y-65739000D01*
X106719000Y-66940000D02*
X108180000Y-66940000D01*
X107745000Y-70384775D02*
X107745000Y-69884775D01*
X110260000Y-65699000D02*
X111005000Y-65699000D01*
X106640000Y-67580000D02*
X108180000Y-67580000D01*
X106855000Y-66539000D02*
X108180000Y-66539000D01*
X110260000Y-66940000D02*
X111721000Y-66940000D01*
X107521000Y-65619000D02*
X108180000Y-65619000D01*
X110260000Y-66219000D02*
X111420000Y-66219000D01*
X108415000Y-65099000D02*
X110025000Y-65099000D01*
X106709000Y-66980000D02*
X108180000Y-66980000D01*
X110260000Y-66059000D02*
X111315000Y-66059000D01*
X107495000Y-70134775D02*
X107995000Y-70134775D01*
X106806000Y-66659000D02*
X108180000Y-66659000D01*
X110260000Y-65979000D02*
X111255000Y-65979000D01*
X108122000Y-65219000D02*
X110318000Y-65219000D01*
X110260000Y-66019000D02*
X111285000Y-66019000D01*
X110260000Y-65899000D02*
X111191000Y-65899000D01*
X107720000Y-65459000D02*
X110720000Y-65459000D01*
X110260000Y-66779000D02*
X111675000Y-66779000D01*
X108305000Y-65139000D02*
X110135000Y-65139000D01*
X110260000Y-67180000D02*
X111770000Y-67180000D01*
X108543000Y-65059000D02*
X109897000Y-65059000D01*
X110260000Y-67060000D02*
X111748000Y-67060000D01*
X110260000Y-67140000D02*
X111763000Y-67140000D01*
X107837000Y-65379000D02*
X110603000Y-65379000D01*
X110260000Y-67460000D02*
X111798000Y-67460000D01*
X110260000Y-66299000D02*
X111467000Y-66299000D01*
X110260000Y-66379000D02*
X111510000Y-66379000D01*
X106729000Y-66900000D02*
X108180000Y-66900000D01*
X111840000Y-67580000D02*
G75*
G03*
X111840000Y-67580000I-2620000J0D01*
G01*
%TO.C,A1*%
X153670000Y-68580000D02*
X156340000Y-68580000D01*
X156340000Y-65910000D02*
X138300000Y-65910000D01*
X138300000Y-71120000D02*
X138300000Y-109350000D01*
X140970000Y-71120000D02*
X138300000Y-71120000D01*
X153670000Y-106680000D02*
X156340000Y-106680000D01*
X153670000Y-68580000D02*
X153670000Y-106680000D01*
X143380000Y-101470000D02*
X151260000Y-101470000D01*
X156340000Y-109350000D02*
X151260000Y-109350000D01*
X140970000Y-106680000D02*
X138300000Y-106680000D01*
X138300000Y-109350000D02*
X143380000Y-109350000D01*
X156340000Y-109350000D02*
X156340000Y-65910000D01*
X138300000Y-65910000D02*
X138300000Y-68580000D01*
X151260000Y-111890000D02*
X143380000Y-111890000D01*
X140970000Y-68580000D02*
X138300000Y-68580000D01*
X140970000Y-71120000D02*
X140970000Y-106680000D01*
X140970000Y-71120000D02*
X140970000Y-68580000D01*
X143380000Y-111890000D02*
X143380000Y-101470000D01*
X151260000Y-101470000D02*
X151260000Y-111890000D01*
%TO.C,C3*%
X128150000Y-96450000D02*
X128465000Y-96450000D01*
X130890000Y-96450000D02*
X130890000Y-91510000D01*
X128150000Y-96450000D02*
X128150000Y-91510000D01*
X130575000Y-96450000D02*
X130890000Y-96450000D01*
X130575000Y-91510000D02*
X130890000Y-91510000D01*
X128150000Y-91510000D02*
X128465000Y-91510000D01*
%TO.C,K2*%
X108690000Y-77240000D02*
X108690000Y-80240000D01*
X97990000Y-74440000D02*
X97990000Y-76740000D01*
X97990000Y-83040000D02*
X97990000Y-80740000D01*
X94490000Y-71040000D02*
X113690000Y-71040000D01*
X106190000Y-84740000D02*
X108490000Y-84740000D01*
X108690000Y-80240000D02*
X103690000Y-80240000D01*
X103690000Y-80240000D02*
X103690000Y-77240000D01*
X106190000Y-77240000D02*
X106190000Y-72740000D01*
X94490000Y-86440000D02*
X94490000Y-71040000D01*
X113690000Y-86440000D02*
X94490000Y-86440000D01*
X108490000Y-72740000D02*
X106190000Y-72740000D01*
X113690000Y-86440000D02*
X113690000Y-79940000D01*
X109590000Y-78740000D02*
X110490000Y-78740000D01*
X103690000Y-77240000D02*
X108690000Y-77240000D01*
X113690000Y-77540000D02*
X113690000Y-71040000D01*
X102690000Y-78740000D02*
X102690000Y-75040000D01*
X102690000Y-75040000D02*
X109590000Y-75040000D01*
X109590000Y-78740000D02*
X109590000Y-75040000D01*
X103690000Y-77240000D02*
X108690000Y-80240000D01*
X101190000Y-78740000D02*
X96690000Y-81440000D01*
X106190000Y-84740000D02*
X106190000Y-80240000D01*
X102690000Y-78740000D02*
X101190000Y-78740000D01*
%TO.C,Q1*%
X125040000Y-94510000D02*
X125040000Y-90910000D01*
X125028478Y-90871522D02*
G75*
G03*
X120590000Y-92710000I-1838478J-1838478D01*
G01*
X120589999Y-92710000D02*
G75*
G03*
X125028478Y-94548478I2600001J0D01*
G01*
%TO.C,K1*%
X113690000Y-94050000D02*
X113690000Y-87550000D01*
X102690000Y-95250000D02*
X102690000Y-91550000D01*
X108690000Y-93750000D02*
X108690000Y-96750000D01*
X113690000Y-102950000D02*
X94490000Y-102950000D01*
X113690000Y-102950000D02*
X113690000Y-96450000D01*
X97990000Y-99550000D02*
X97990000Y-97250000D01*
X94490000Y-87550000D02*
X113690000Y-87550000D01*
X109590000Y-95250000D02*
X109590000Y-91550000D01*
X97990000Y-90950000D02*
X97990000Y-93250000D01*
X109590000Y-95250000D02*
X110490000Y-95250000D01*
X102690000Y-91550000D02*
X109590000Y-91550000D01*
X101190000Y-95250000D02*
X96690000Y-97950000D01*
X103690000Y-93750000D02*
X108690000Y-93750000D01*
X106190000Y-93750000D02*
X106190000Y-89250000D01*
X106190000Y-101250000D02*
X108490000Y-101250000D01*
X102690000Y-95250000D02*
X101190000Y-95250000D01*
X103690000Y-96750000D02*
X103690000Y-93750000D01*
X94490000Y-102950000D02*
X94490000Y-87550000D01*
X108690000Y-96750000D02*
X103690000Y-96750000D01*
X103690000Y-93750000D02*
X108690000Y-96750000D01*
X108490000Y-89250000D02*
X106190000Y-89250000D01*
X106190000Y-101250000D02*
X106190000Y-96750000D01*
%TO.C,C2*%
X118180000Y-69950000D02*
X123120000Y-69950000D01*
X118180000Y-67210000D02*
X123120000Y-67210000D01*
X118180000Y-67210000D02*
X118180000Y-67525000D01*
X118180000Y-69635000D02*
X118180000Y-69950000D01*
X123120000Y-67210000D02*
X123120000Y-67525000D01*
X123120000Y-69635000D02*
X123120000Y-69950000D01*
%TO.C,R1*%
X130160000Y-80930000D02*
X134000000Y-80930000D01*
X130160000Y-79090000D02*
X134000000Y-79090000D01*
%TO.C,C5*%
X158650000Y-72460000D02*
X158965000Y-72460000D01*
X161075000Y-77400000D02*
X161390000Y-77400000D01*
X158650000Y-77400000D02*
X158650000Y-72460000D01*
X161075000Y-72460000D02*
X161390000Y-72460000D01*
X158650000Y-77400000D02*
X158965000Y-77400000D01*
X161390000Y-77400000D02*
X161390000Y-72460000D01*
%TO.C,JP3*%
X135950000Y-111700000D02*
X133290000Y-111700000D01*
X135950000Y-115570000D02*
X135950000Y-116900000D01*
X135950000Y-116900000D02*
X134620000Y-116900000D01*
X135950000Y-114300000D02*
X133290000Y-114300000D01*
X133290000Y-114300000D02*
X133290000Y-111700000D01*
X135950000Y-114300000D02*
X135950000Y-111700000D01*
%TO.C,Q2*%
X121340000Y-78210000D02*
X121340000Y-81810000D01*
X121351522Y-81848478D02*
G75*
G03*
X125790000Y-80010000I1838478J1838478D01*
G01*
X125790001Y-80010000D02*
G75*
G03*
X121351522Y-78171522I-2600001J0D01*
G01*
%TO.C,D1*%
X115370000Y-91260000D02*
X115370000Y-96700000D01*
X115370000Y-95800000D02*
X118310000Y-95800000D01*
X115370000Y-96700000D02*
X118310000Y-96700000D01*
X116840000Y-90240000D02*
X116840000Y-91260000D01*
X118310000Y-96700000D02*
X118310000Y-91260000D01*
X115370000Y-95920000D02*
X118310000Y-95920000D01*
X115370000Y-95680000D02*
X118310000Y-95680000D01*
X116840000Y-97720000D02*
X116840000Y-96700000D01*
X118310000Y-91260000D02*
X115370000Y-91260000D01*
%TO.C,D2*%
X118310000Y-80190000D02*
X118310000Y-74750000D01*
X116840000Y-73730000D02*
X116840000Y-74750000D01*
X115370000Y-79410000D02*
X118310000Y-79410000D01*
X115370000Y-79170000D02*
X118310000Y-79170000D01*
X116840000Y-81210000D02*
X116840000Y-80190000D01*
X115370000Y-74750000D02*
X115370000Y-80190000D01*
X115370000Y-79290000D02*
X118310000Y-79290000D01*
X118310000Y-74750000D02*
X115370000Y-74750000D01*
X115370000Y-80190000D02*
X118310000Y-80190000D01*
%TO.C,J1*%
X136170000Y-59695000D02*
X136229000Y-59636000D01*
X145040000Y-55860000D02*
X145040000Y-54120000D01*
X138420000Y-57444000D02*
X138514000Y-57351000D01*
X134680000Y-63480000D02*
X134680000Y-54360000D01*
X144800000Y-63480000D02*
X134680000Y-63480000D01*
X135965000Y-59489000D02*
X136059000Y-59396000D01*
X144800000Y-54360000D02*
X134680000Y-54360000D01*
X138250000Y-57204000D02*
X138309000Y-57146000D01*
X144800000Y-63480000D02*
X144800000Y-54360000D01*
X144800000Y-55920000D02*
X134680000Y-55920000D01*
X145040000Y-54120000D02*
X143540000Y-54120000D01*
X143724000Y-59209000D02*
G75*
G03*
X143723953Y-57630911I-1483995J789000D01*
G01*
X142240000Y-56740000D02*
G75*
G03*
X141451288Y-56936648I0J-1680000D01*
G01*
X141451000Y-59904000D02*
G75*
G03*
X143029089Y-59903953I789000J1483995D01*
G01*
X140755999Y-57631000D02*
G75*
G03*
X140756047Y-59209089I1484001J-789000D01*
G01*
X143029000Y-56936000D02*
G75*
G03*
X142210617Y-56739550I-788998J-1483995D01*
G01*
X138920000Y-58420000D02*
G75*
G03*
X138920000Y-58420000I-1680000J0D01*
G01*
X138140000Y-61420000D02*
G75*
G03*
X138140000Y-61420000I-900000J0D01*
G01*
X143140000Y-61420000D02*
G75*
G03*
X143140000Y-61420000I-900000J0D01*
G01*
%TO.C,JP4*%
X134350000Y-74880000D02*
X134350000Y-76280000D01*
X132350000Y-76280000D02*
X132350000Y-74880000D01*
X133050000Y-74180000D02*
X133650000Y-74180000D01*
X133650000Y-76980000D02*
X133050000Y-76980000D01*
X133650000Y-76980000D02*
G75*
G03*
X134350000Y-76280000I0J700000D01*
G01*
X132350000Y-76280000D02*
G75*
G03*
X133050000Y-76980000I700000J0D01*
G01*
X133050000Y-74180000D02*
G75*
G03*
X132350000Y-74880000I-1J-699999D01*
G01*
X134350000Y-74880000D02*
G75*
G03*
X133650000Y-74180000I-699999J1D01*
G01*
%TO.C,J3*%
X113250000Y-116016000D02*
X113191000Y-116074000D01*
X115330000Y-113525000D02*
X115271000Y-113584000D01*
X113080000Y-115776000D02*
X112986000Y-115869000D01*
X115535000Y-113731000D02*
X115441000Y-113824000D01*
X106700000Y-109740000D02*
X116820000Y-109740000D01*
X106700000Y-109740000D02*
X106700000Y-118860000D01*
X116820000Y-109740000D02*
X116820000Y-118860000D01*
X106700000Y-118860000D02*
X116820000Y-118860000D01*
X106700000Y-117300000D02*
X116820000Y-117300000D01*
X106460000Y-119100000D02*
X107960000Y-119100000D01*
X106460000Y-117360000D02*
X106460000Y-119100000D01*
X109260000Y-116480000D02*
G75*
G03*
X110048712Y-116283352I0J1680000D01*
G01*
X110049000Y-113316000D02*
G75*
G03*
X108470911Y-113316047I-789000J-1483995D01*
G01*
X110744001Y-115589000D02*
G75*
G03*
X110743953Y-114010911I-1484001J789000D01*
G01*
X107776000Y-114011000D02*
G75*
G03*
X107776047Y-115589089I1483995J-789000D01*
G01*
X108471000Y-116284000D02*
G75*
G03*
X109289383Y-116480450I788998J1483995D01*
G01*
X115940000Y-114800000D02*
G75*
G03*
X115940000Y-114800000I-1680000J0D01*
G01*
X110160000Y-111800000D02*
G75*
G03*
X110160000Y-111800000I-900000J0D01*
G01*
X115160000Y-111800000D02*
G75*
G03*
X115160000Y-111800000I-900000J0D01*
G01*
%TO.C,JP2*%
X128210000Y-114300000D02*
X128210000Y-111700000D01*
X130870000Y-114300000D02*
X128210000Y-114300000D01*
X130870000Y-114300000D02*
X130870000Y-111700000D01*
X130870000Y-115570000D02*
X130870000Y-116900000D01*
X130870000Y-111700000D02*
X128210000Y-111700000D01*
X130870000Y-116900000D02*
X129540000Y-116900000D01*
%TO.C,R2*%
X133700000Y-97170000D02*
X133700000Y-93330000D01*
X135540000Y-97170000D02*
X135540000Y-93330000D01*
%TO.C,J4*%
X96800000Y-59695000D02*
X96859000Y-59636000D01*
X105430000Y-55920000D02*
X95310000Y-55920000D01*
X95310000Y-63480000D02*
X95310000Y-54360000D01*
X99050000Y-57444000D02*
X99144000Y-57351000D01*
X105670000Y-54120000D02*
X104170000Y-54120000D01*
X105670000Y-55860000D02*
X105670000Y-54120000D01*
X105430000Y-63480000D02*
X95310000Y-63480000D01*
X96595000Y-59489000D02*
X96689000Y-59396000D01*
X105430000Y-54360000D02*
X95310000Y-54360000D01*
X105430000Y-63480000D02*
X105430000Y-54360000D01*
X98880000Y-57204000D02*
X98939000Y-57146000D01*
X102870000Y-56740000D02*
G75*
G03*
X102081288Y-56936648I0J-1680000D01*
G01*
X104354000Y-59209000D02*
G75*
G03*
X104353953Y-57630911I-1483995J789000D01*
G01*
X101385999Y-57631000D02*
G75*
G03*
X101386047Y-59209089I1484001J-789000D01*
G01*
X103659000Y-56936000D02*
G75*
G03*
X102840617Y-56739550I-788998J-1483995D01*
G01*
X102081000Y-59904000D02*
G75*
G03*
X103659089Y-59903953I789000J1483995D01*
G01*
X99550000Y-58420000D02*
G75*
G03*
X99550000Y-58420000I-1680000J0D01*
G01*
X98770000Y-61420000D02*
G75*
G03*
X98770000Y-61420000I-900000J0D01*
G01*
X103770000Y-61420000D02*
G75*
G03*
X103770000Y-61420000I-900000J0D01*
G01*
%TD*%
M02*
