%TF.GenerationSoftware,KiCad,Pcbnew,6.0.11+dfsg-1*%
%TF.CreationDate,2026-01-30T16:22:21+01:00*%
%TF.ProjectId,baliza,62616c69-7a61-42e6-9b69-6361645f7063,rev?*%
%TF.SameCoordinates,Original*%
%TF.FileFunction,Drillmap*%
%TF.FilePolarity,Positive*%
%FSLAX45Y45*%
G04 Gerber Fmt 4.5, Leading zero omitted, Abs format (unit mm)*
G04 Created by KiCad (PCBNEW 6.0.11+dfsg-1) date 2026-01-30 16:22:21*
%MOMM*%
%LPD*%
G01*
G04 APERTURE LIST*
%ADD10C,0.100000*%
%ADD11C,0.200000*%
%ADD12C,0.050000*%
%ADD13C,0.070000*%
%ADD14C,0.075000*%
%ADD15C,0.080000*%
%ADD16C,0.110000*%
%ADD17C,0.130000*%
%ADD18C,0.250000*%
G04 APERTURE END LIST*
D10*
X16510000Y-5334000D02*
X16510000Y-11938000D01*
X8890000Y-11938000D02*
X8890000Y-5334000D01*
X16256000Y-5334000D02*
X16510000Y-5334000D01*
X8890000Y-5334000D02*
X16256000Y-5334000D01*
X16510000Y-11938000D02*
X8890000Y-11938000D01*
D11*
D12*
X8931500Y-5690000D02*
X8981500Y-5740000D01*
X8981500Y-5690000D02*
X8931500Y-5740000D01*
X8931500Y-11532000D02*
X8981500Y-11582000D01*
X8981500Y-11532000D02*
X8931500Y-11582000D01*
X8986418Y-5557418D02*
X9036418Y-5607417D01*
X9036418Y-5557418D02*
X8986418Y-5607417D01*
X8986418Y-5822582D02*
X9036418Y-5872582D01*
X9036418Y-5822582D02*
X8986418Y-5872582D01*
X8986418Y-11399417D02*
X9036418Y-11449417D01*
X9036418Y-11399417D02*
X8986418Y-11449417D01*
X8986418Y-11664582D02*
X9036418Y-11714582D01*
X9036418Y-11664582D02*
X8986418Y-11714582D01*
X9119000Y-5502500D02*
X9169000Y-5552500D01*
X9169000Y-5502500D02*
X9119000Y-5552500D01*
X9119000Y-5877500D02*
X9169000Y-5927500D01*
X9169000Y-5877500D02*
X9119000Y-5927500D01*
X9119000Y-11344500D02*
X9169000Y-11394500D01*
X9169000Y-11344500D02*
X9119000Y-11394500D01*
X9119000Y-11719500D02*
X9169000Y-11769500D01*
X9169000Y-11719500D02*
X9119000Y-11769500D01*
X9251583Y-5557418D02*
X9301583Y-5607417D01*
X9301583Y-5557418D02*
X9251583Y-5607417D01*
X9251583Y-5822582D02*
X9301583Y-5872582D01*
X9301583Y-5822582D02*
X9251583Y-5872582D01*
X9251583Y-11399417D02*
X9301583Y-11449417D01*
X9301583Y-11399417D02*
X9251583Y-11449417D01*
X9251583Y-11664582D02*
X9301583Y-11714582D01*
X9301583Y-11664582D02*
X9251583Y-11714582D01*
X9306500Y-5690000D02*
X9356500Y-5740000D01*
X9356500Y-5690000D02*
X9306500Y-5740000D01*
X9306500Y-11532000D02*
X9356500Y-11582000D01*
X9356500Y-11532000D02*
X9306500Y-11582000D01*
X15789500Y-5690000D02*
X15839500Y-5740000D01*
X15839500Y-5690000D02*
X15789500Y-5740000D01*
X15789500Y-11532000D02*
X15839500Y-11582000D01*
X15839500Y-11532000D02*
X15789500Y-11582000D01*
X15844417Y-5557418D02*
X15894417Y-5607417D01*
X15894417Y-5557418D02*
X15844417Y-5607417D01*
X15844417Y-5822582D02*
X15894417Y-5872582D01*
X15894417Y-5822582D02*
X15844417Y-5872582D01*
X15844417Y-11399417D02*
X15894417Y-11449417D01*
X15894417Y-11399417D02*
X15844417Y-11449417D01*
X15844417Y-11664582D02*
X15894417Y-11714582D01*
X15894417Y-11664582D02*
X15844417Y-11714582D01*
X15977000Y-5502500D02*
X16027000Y-5552500D01*
X16027000Y-5502500D02*
X15977000Y-5552500D01*
X15977000Y-5877500D02*
X16027000Y-5927500D01*
X16027000Y-5877500D02*
X15977000Y-5927500D01*
X15977000Y-11344500D02*
X16027000Y-11394500D01*
X16027000Y-11344500D02*
X15977000Y-11394500D01*
X15977000Y-11719500D02*
X16027000Y-11769500D01*
X16027000Y-11719500D02*
X15977000Y-11769500D01*
X16109582Y-5557418D02*
X16159582Y-5607417D01*
X16159582Y-5557418D02*
X16109582Y-5607417D01*
X16109582Y-5822582D02*
X16159582Y-5872582D01*
X16159582Y-5822582D02*
X16109582Y-5872582D01*
X16109582Y-11399417D02*
X16159582Y-11449417D01*
X16159582Y-11399417D02*
X16109582Y-11449417D01*
X16109582Y-11664582D02*
X16159582Y-11714582D01*
X16159582Y-11664582D02*
X16109582Y-11714582D01*
X16164500Y-5690000D02*
X16214500Y-5740000D01*
X16214500Y-5690000D02*
X16164500Y-5740000D01*
X16164500Y-11532000D02*
X16214500Y-11582000D01*
X16214500Y-11532000D02*
X16164500Y-11582000D01*
D13*
X12989000Y-8001000D02*
G75*
G03*
X12989000Y-8001000I-35000J0D01*
G01*
X13497000Y-8001000D02*
G75*
G03*
X13497000Y-8001000I-35000J0D01*
G01*
X13497000Y-9271000D02*
G75*
G03*
X13497000Y-9271000I-35000J0D01*
G01*
X13497000Y-9779000D02*
G75*
G03*
X13497000Y-9779000I-35000J0D01*
G01*
D14*
X12319000Y-7836500D02*
X12319000Y-7911500D01*
X12281500Y-7874000D02*
X12356500Y-7874000D01*
X12319000Y-7963500D02*
X12319000Y-8038500D01*
X12281500Y-8001000D02*
X12356500Y-8001000D01*
X12319000Y-8090500D02*
X12319000Y-8165500D01*
X12281500Y-8128000D02*
X12356500Y-8128000D01*
X12319000Y-9106500D02*
X12319000Y-9181500D01*
X12281500Y-9144000D02*
X12356500Y-9144000D01*
X12319000Y-9233500D02*
X12319000Y-9308500D01*
X12281500Y-9271000D02*
X12356500Y-9271000D01*
X12319000Y-9360500D02*
X12319000Y-9435500D01*
X12281500Y-9398000D02*
X12356500Y-9398000D01*
D15*
X10950285Y-6686284D02*
X10950285Y-6629715D01*
X10893716Y-6629715D01*
X10893716Y-6686284D01*
X10950285Y-6686284D01*
X10950285Y-6886284D02*
X10950285Y-6829715D01*
X10893716Y-6829715D01*
X10893716Y-6886284D01*
X10950285Y-6886284D01*
X11843284Y-6886284D02*
X11843284Y-6829715D01*
X11786715Y-6829715D01*
X11786715Y-6886284D01*
X11843284Y-6886284D01*
X12343284Y-6886284D02*
X12343284Y-6829715D01*
X12286715Y-6829715D01*
X12286715Y-6886284D01*
X12343284Y-6886284D01*
X12980284Y-9176285D02*
X12980284Y-9119716D01*
X12923715Y-9119716D01*
X12923715Y-9176285D01*
X12980284Y-9176285D01*
X12980284Y-9676285D02*
X12980284Y-9619716D01*
X12923715Y-9619716D01*
X12923715Y-9676285D01*
X12980284Y-9676285D01*
X15268284Y-5797284D02*
X15268284Y-5740715D01*
X15211715Y-5740715D01*
X15211715Y-5797284D01*
X15268284Y-5797284D01*
X15268284Y-5997284D02*
X15268284Y-5940715D01*
X15211715Y-5940715D01*
X15211715Y-5997284D01*
X15268284Y-5997284D01*
X16030284Y-7271284D02*
X16030284Y-7214715D01*
X15973715Y-7214715D01*
X15973715Y-7271284D01*
X16030284Y-7271284D01*
X16030284Y-7771284D02*
X16030284Y-7714715D01*
X15973715Y-7714715D01*
X15973715Y-7771284D01*
X16030284Y-7771284D01*
D10*
X12446000Y-11353000D02*
X12496000Y-11303000D01*
X12446000Y-11253000D01*
X12396000Y-11303000D01*
X12446000Y-11353000D01*
X12446000Y-11607000D02*
X12496000Y-11557000D01*
X12446000Y-11507000D01*
X12396000Y-11557000D01*
X12446000Y-11607000D01*
X12954000Y-11353000D02*
X13004000Y-11303000D01*
X12954000Y-11253000D01*
X12904000Y-11303000D01*
X12954000Y-11353000D01*
X12954000Y-11607000D02*
X13004000Y-11557000D01*
X12954000Y-11507000D01*
X12904000Y-11557000D01*
X12954000Y-11607000D01*
X13462000Y-11353000D02*
X13512000Y-11303000D01*
X13462000Y-11253000D01*
X13412000Y-11303000D01*
X13462000Y-11353000D01*
X13462000Y-11607000D02*
X13512000Y-11557000D01*
X13462000Y-11507000D01*
X13412000Y-11557000D01*
X13462000Y-11607000D01*
X13970000Y-7035000D02*
X14020000Y-6985000D01*
X13970000Y-6935000D01*
X13920000Y-6985000D01*
X13970000Y-7035000D01*
X13970000Y-7289000D02*
X14020000Y-7239000D01*
X13970000Y-7189000D01*
X13920000Y-7239000D01*
X13970000Y-7289000D01*
X13970000Y-7543000D02*
X14020000Y-7493000D01*
X13970000Y-7443000D01*
X13920000Y-7493000D01*
X13970000Y-7543000D01*
X13970000Y-7797000D02*
X14020000Y-7747000D01*
X13970000Y-7697000D01*
X13920000Y-7747000D01*
X13970000Y-7797000D01*
X13970000Y-8051000D02*
X14020000Y-8001000D01*
X13970000Y-7951000D01*
X13920000Y-8001000D01*
X13970000Y-8051000D01*
X13970000Y-8305000D02*
X14020000Y-8255000D01*
X13970000Y-8205000D01*
X13920000Y-8255000D01*
X13970000Y-8305000D01*
X13970000Y-8559000D02*
X14020000Y-8509000D01*
X13970000Y-8459000D01*
X13920000Y-8509000D01*
X13970000Y-8559000D01*
X13970000Y-8813000D02*
X14020000Y-8763000D01*
X13970000Y-8713000D01*
X13920000Y-8763000D01*
X13970000Y-8813000D01*
X13970000Y-9067000D02*
X14020000Y-9017000D01*
X13970000Y-8967000D01*
X13920000Y-9017000D01*
X13970000Y-9067000D01*
X13970000Y-9321000D02*
X14020000Y-9271000D01*
X13970000Y-9221000D01*
X13920000Y-9271000D01*
X13970000Y-9321000D01*
X13970000Y-9575000D02*
X14020000Y-9525000D01*
X13970000Y-9475000D01*
X13920000Y-9525000D01*
X13970000Y-9575000D01*
X13970000Y-9829000D02*
X14020000Y-9779000D01*
X13970000Y-9729000D01*
X13920000Y-9779000D01*
X13970000Y-9829000D01*
X13970000Y-10083000D02*
X14020000Y-10033000D01*
X13970000Y-9983000D01*
X13920000Y-10033000D01*
X13970000Y-10083000D01*
X13970000Y-10337000D02*
X14020000Y-10287000D01*
X13970000Y-10237000D01*
X13920000Y-10287000D01*
X13970000Y-10337000D01*
X13970000Y-10591000D02*
X14020000Y-10541000D01*
X13970000Y-10491000D01*
X13920000Y-10541000D01*
X13970000Y-10591000D01*
X15494000Y-7035000D02*
X15544000Y-6985000D01*
X15494000Y-6935000D01*
X15444000Y-6985000D01*
X15494000Y-7035000D01*
X15494000Y-7289000D02*
X15544000Y-7239000D01*
X15494000Y-7189000D01*
X15444000Y-7239000D01*
X15494000Y-7289000D01*
X15494000Y-7543000D02*
X15544000Y-7493000D01*
X15494000Y-7443000D01*
X15444000Y-7493000D01*
X15494000Y-7543000D01*
X15494000Y-7797000D02*
X15544000Y-7747000D01*
X15494000Y-7697000D01*
X15444000Y-7747000D01*
X15494000Y-7797000D01*
X15494000Y-8051000D02*
X15544000Y-8001000D01*
X15494000Y-7951000D01*
X15444000Y-8001000D01*
X15494000Y-8051000D01*
X15494000Y-8305000D02*
X15544000Y-8255000D01*
X15494000Y-8205000D01*
X15444000Y-8255000D01*
X15494000Y-8305000D01*
X15494000Y-8559000D02*
X15544000Y-8509000D01*
X15494000Y-8459000D01*
X15444000Y-8509000D01*
X15494000Y-8559000D01*
X15494000Y-8813000D02*
X15544000Y-8763000D01*
X15494000Y-8713000D01*
X15444000Y-8763000D01*
X15494000Y-8813000D01*
X15494000Y-9067000D02*
X15544000Y-9017000D01*
X15494000Y-8967000D01*
X15444000Y-9017000D01*
X15494000Y-9067000D01*
X15494000Y-9321000D02*
X15544000Y-9271000D01*
X15494000Y-9221000D01*
X15444000Y-9271000D01*
X15494000Y-9321000D01*
X15494000Y-9575000D02*
X15544000Y-9525000D01*
X15494000Y-9475000D01*
X15444000Y-9525000D01*
X15494000Y-9575000D01*
X15494000Y-9829000D02*
X15544000Y-9779000D01*
X15494000Y-9729000D01*
X15444000Y-9779000D01*
X15494000Y-9829000D01*
X15494000Y-10083000D02*
X15544000Y-10033000D01*
X15494000Y-9983000D01*
X15444000Y-10033000D01*
X15494000Y-10083000D01*
X15494000Y-10337000D02*
X15544000Y-10287000D01*
X15494000Y-10237000D01*
X15444000Y-10287000D01*
X15494000Y-10337000D01*
X15494000Y-10591000D02*
X15544000Y-10541000D01*
X15494000Y-10491000D01*
X15444000Y-10541000D01*
X15494000Y-10591000D01*
D16*
X11629000Y-7184000D02*
X11739000Y-7294000D01*
X11739000Y-7184000D02*
X11629000Y-7294000D01*
X11739000Y-7239000D02*
G75*
G03*
X11739000Y-7239000I-55000J0D01*
G01*
X11629000Y-8200000D02*
X11739000Y-8310000D01*
X11739000Y-8200000D02*
X11629000Y-8310000D01*
X11739000Y-8255000D02*
G75*
G03*
X11739000Y-8255000I-55000J0D01*
G01*
X11629000Y-8835000D02*
X11739000Y-8945000D01*
X11739000Y-8835000D02*
X11629000Y-8945000D01*
X11739000Y-8890000D02*
G75*
G03*
X11739000Y-8890000I-55000J0D01*
G01*
X11629000Y-9851000D02*
X11739000Y-9961000D01*
X11739000Y-9851000D02*
X11629000Y-9961000D01*
X11739000Y-9906000D02*
G75*
G03*
X11739000Y-9906000I-55000J0D01*
G01*
X11756000Y-6389500D02*
X11866000Y-6499500D01*
X11866000Y-6389500D02*
X11756000Y-6499500D01*
X11866000Y-6444500D02*
G75*
G03*
X11866000Y-6444500I-55000J0D01*
G01*
X12010000Y-6389500D02*
X12120000Y-6499500D01*
X12120000Y-6389500D02*
X12010000Y-6499500D01*
X12120000Y-6444500D02*
G75*
G03*
X12120000Y-6444500I-55000J0D01*
G01*
X12264000Y-6389500D02*
X12374000Y-6499500D01*
X12374000Y-6389500D02*
X12264000Y-6499500D01*
X12374000Y-6444500D02*
G75*
G03*
X12374000Y-6444500I-55000J0D01*
G01*
D17*
X9718000Y-11415000D02*
X9848000Y-11545000D01*
X9848000Y-11415000D02*
X9718000Y-11545000D01*
X9783000Y-11415000D02*
X9783000Y-11545000D01*
X9718000Y-11480000D02*
X9848000Y-11480000D01*
X9722000Y-5777000D02*
X9852000Y-5907000D01*
X9852000Y-5777000D02*
X9722000Y-5907000D01*
X9787000Y-5777000D02*
X9787000Y-5907000D01*
X9722000Y-5842000D02*
X9852000Y-5842000D01*
X9734000Y-7209000D02*
X9864000Y-7339000D01*
X9864000Y-7209000D02*
X9734000Y-7339000D01*
X9799000Y-7209000D02*
X9799000Y-7339000D01*
X9734000Y-7274000D02*
X9864000Y-7274000D01*
X9734000Y-8409000D02*
X9864000Y-8539000D01*
X9864000Y-8409000D02*
X9734000Y-8539000D01*
X9799000Y-8409000D02*
X9799000Y-8539000D01*
X9734000Y-8474000D02*
X9864000Y-8474000D01*
X9734000Y-8860000D02*
X9864000Y-8990000D01*
X9864000Y-8860000D02*
X9734000Y-8990000D01*
X9799000Y-8860000D02*
X9799000Y-8990000D01*
X9734000Y-8925000D02*
X9864000Y-8925000D01*
X9734000Y-10060000D02*
X9864000Y-10190000D01*
X9864000Y-10060000D02*
X9734000Y-10190000D01*
X9799000Y-10060000D02*
X9799000Y-10190000D01*
X9734000Y-10125000D02*
X9864000Y-10125000D01*
X10218000Y-11415000D02*
X10348000Y-11545000D01*
X10348000Y-11415000D02*
X10218000Y-11545000D01*
X10283000Y-11415000D02*
X10283000Y-11545000D01*
X10218000Y-11480000D02*
X10348000Y-11480000D01*
X10222000Y-5777000D02*
X10352000Y-5907000D01*
X10352000Y-5777000D02*
X10222000Y-5907000D01*
X10287000Y-5777000D02*
X10287000Y-5907000D01*
X10222000Y-5842000D02*
X10352000Y-5842000D01*
X10861000Y-11415000D02*
X10991000Y-11545000D01*
X10991000Y-11415000D02*
X10861000Y-11545000D01*
X10926000Y-11415000D02*
X10926000Y-11545000D01*
X10861000Y-11480000D02*
X10991000Y-11480000D01*
X10954000Y-7209000D02*
X11084000Y-7339000D01*
X11084000Y-7209000D02*
X10954000Y-7339000D01*
X11019000Y-7209000D02*
X11019000Y-7339000D01*
X10954000Y-7274000D02*
X11084000Y-7274000D01*
X10954000Y-8409000D02*
X11084000Y-8539000D01*
X11084000Y-8409000D02*
X10954000Y-8539000D01*
X11019000Y-8409000D02*
X11019000Y-8539000D01*
X10954000Y-8474000D02*
X11084000Y-8474000D01*
X10954000Y-8860000D02*
X11084000Y-8990000D01*
X11084000Y-8860000D02*
X10954000Y-8990000D01*
X11019000Y-8860000D02*
X11019000Y-8990000D01*
X10954000Y-8925000D02*
X11084000Y-8925000D01*
X10954000Y-10060000D02*
X11084000Y-10190000D01*
X11084000Y-10060000D02*
X10954000Y-10190000D01*
X11019000Y-10060000D02*
X11019000Y-10190000D01*
X10954000Y-10125000D02*
X11084000Y-10125000D01*
X11154000Y-7809000D02*
X11284000Y-7939000D01*
X11284000Y-7809000D02*
X11154000Y-7939000D01*
X11219000Y-7809000D02*
X11219000Y-7939000D01*
X11154000Y-7874000D02*
X11284000Y-7874000D01*
X11154000Y-9460000D02*
X11284000Y-9590000D01*
X11284000Y-9460000D02*
X11154000Y-9590000D01*
X11219000Y-9460000D02*
X11219000Y-9590000D01*
X11154000Y-9525000D02*
X11284000Y-9525000D01*
X11361000Y-11415000D02*
X11491000Y-11545000D01*
X11491000Y-11415000D02*
X11361000Y-11545000D01*
X11426000Y-11415000D02*
X11426000Y-11545000D01*
X11361000Y-11480000D02*
X11491000Y-11480000D01*
X13659000Y-5777000D02*
X13789000Y-5907000D01*
X13789000Y-5777000D02*
X13659000Y-5907000D01*
X13724000Y-5777000D02*
X13724000Y-5907000D01*
X13659000Y-5842000D02*
X13789000Y-5842000D01*
X14159000Y-5777000D02*
X14289000Y-5907000D01*
X14289000Y-5777000D02*
X14159000Y-5907000D01*
X14224000Y-5777000D02*
X14224000Y-5907000D01*
X14159000Y-5842000D02*
X14289000Y-5842000D01*
D18*
X9019000Y-5590000D02*
X9269000Y-5840000D01*
X9269000Y-5590000D02*
X9019000Y-5840000D01*
X9232389Y-5803389D02*
X9232389Y-5626611D01*
X9055611Y-5626611D01*
X9055611Y-5803389D01*
X9232389Y-5803389D01*
X9019000Y-11432000D02*
X9269000Y-11682000D01*
X9269000Y-11432000D02*
X9019000Y-11682000D01*
X9232389Y-11645389D02*
X9232389Y-11468611D01*
X9055611Y-11468611D01*
X9055611Y-11645389D01*
X9232389Y-11645389D01*
X15877000Y-5590000D02*
X16127000Y-5840000D01*
X16127000Y-5590000D02*
X15877000Y-5840000D01*
X16090389Y-5803389D02*
X16090389Y-5626611D01*
X15913611Y-5626611D01*
X15913611Y-5803389D01*
X16090389Y-5803389D01*
X15877000Y-11432000D02*
X16127000Y-11682000D01*
X16127000Y-11432000D02*
X15877000Y-11682000D01*
X16090389Y-11645389D02*
X16090389Y-11468611D01*
X15913611Y-11468611D01*
X15913611Y-11645389D01*
X16090389Y-11645389D01*
D11*
X9142619Y-12253476D02*
X9142619Y-12053476D01*
X9190238Y-12053476D01*
X9218810Y-12063000D01*
X9237857Y-12082048D01*
X9247381Y-12101095D01*
X9256905Y-12139190D01*
X9256905Y-12167762D01*
X9247381Y-12205857D01*
X9237857Y-12224905D01*
X9218810Y-12243952D01*
X9190238Y-12253476D01*
X9142619Y-12253476D01*
X9342619Y-12253476D02*
X9342619Y-12120143D01*
X9342619Y-12158238D02*
X9352143Y-12139190D01*
X9361667Y-12129667D01*
X9380714Y-12120143D01*
X9399762Y-12120143D01*
X9466429Y-12253476D02*
X9466429Y-12120143D01*
X9466429Y-12053476D02*
X9456905Y-12063000D01*
X9466429Y-12072524D01*
X9475952Y-12063000D01*
X9466429Y-12053476D01*
X9466429Y-12072524D01*
X9590238Y-12253476D02*
X9571190Y-12243952D01*
X9561667Y-12224905D01*
X9561667Y-12053476D01*
X9695000Y-12253476D02*
X9675952Y-12243952D01*
X9666429Y-12224905D01*
X9666429Y-12053476D01*
X9923571Y-12253476D02*
X9923571Y-12053476D01*
X9990238Y-12196333D01*
X10056905Y-12053476D01*
X10056905Y-12253476D01*
X10237857Y-12253476D02*
X10237857Y-12148714D01*
X10228333Y-12129667D01*
X10209286Y-12120143D01*
X10171190Y-12120143D01*
X10152143Y-12129667D01*
X10237857Y-12243952D02*
X10218810Y-12253476D01*
X10171190Y-12253476D01*
X10152143Y-12243952D01*
X10142619Y-12224905D01*
X10142619Y-12205857D01*
X10152143Y-12186809D01*
X10171190Y-12177286D01*
X10218810Y-12177286D01*
X10237857Y-12167762D01*
X10333095Y-12120143D02*
X10333095Y-12320143D01*
X10333095Y-12129667D02*
X10352143Y-12120143D01*
X10390238Y-12120143D01*
X10409286Y-12129667D01*
X10418810Y-12139190D01*
X10428333Y-12158238D01*
X10428333Y-12215381D01*
X10418810Y-12234428D01*
X10409286Y-12243952D01*
X10390238Y-12253476D01*
X10352143Y-12253476D01*
X10333095Y-12243952D01*
X10514048Y-12234428D02*
X10523571Y-12243952D01*
X10514048Y-12253476D01*
X10504524Y-12243952D01*
X10514048Y-12234428D01*
X10514048Y-12253476D01*
X10514048Y-12129667D02*
X10523571Y-12139190D01*
X10514048Y-12148714D01*
X10504524Y-12139190D01*
X10514048Y-12129667D01*
X10514048Y-12148714D01*
D12*
X8835000Y-12558000D02*
X8885000Y-12608000D01*
X8885000Y-12558000D02*
X8835000Y-12608000D01*
D11*
X9180714Y-12473476D02*
X9199762Y-12473476D01*
X9218810Y-12483000D01*
X9228333Y-12492524D01*
X9237857Y-12511571D01*
X9247381Y-12549667D01*
X9247381Y-12597286D01*
X9237857Y-12635381D01*
X9228333Y-12654428D01*
X9218810Y-12663952D01*
X9199762Y-12673476D01*
X9180714Y-12673476D01*
X9161667Y-12663952D01*
X9152143Y-12654428D01*
X9142619Y-12635381D01*
X9133095Y-12597286D01*
X9133095Y-12549667D01*
X9142619Y-12511571D01*
X9152143Y-12492524D01*
X9161667Y-12483000D01*
X9180714Y-12473476D01*
X9333095Y-12654428D02*
X9342619Y-12663952D01*
X9333095Y-12673476D01*
X9323571Y-12663952D01*
X9333095Y-12654428D01*
X9333095Y-12673476D01*
X9523571Y-12473476D02*
X9428333Y-12473476D01*
X9418810Y-12568714D01*
X9428333Y-12559190D01*
X9447381Y-12549667D01*
X9495000Y-12549667D01*
X9514048Y-12559190D01*
X9523571Y-12568714D01*
X9533095Y-12587762D01*
X9533095Y-12635381D01*
X9523571Y-12654428D01*
X9514048Y-12663952D01*
X9495000Y-12673476D01*
X9447381Y-12673476D01*
X9428333Y-12663952D01*
X9418810Y-12654428D01*
X9656905Y-12473476D02*
X9675952Y-12473476D01*
X9695000Y-12483000D01*
X9704524Y-12492524D01*
X9714048Y-12511571D01*
X9723571Y-12549667D01*
X9723571Y-12597286D01*
X9714048Y-12635381D01*
X9704524Y-12654428D01*
X9695000Y-12663952D01*
X9675952Y-12673476D01*
X9656905Y-12673476D01*
X9637857Y-12663952D01*
X9628333Y-12654428D01*
X9618810Y-12635381D01*
X9609286Y-12597286D01*
X9609286Y-12549667D01*
X9618810Y-12511571D01*
X9628333Y-12492524D01*
X9637857Y-12483000D01*
X9656905Y-12473476D01*
X9847381Y-12473476D02*
X9866429Y-12473476D01*
X9885476Y-12483000D01*
X9895000Y-12492524D01*
X9904524Y-12511571D01*
X9914048Y-12549667D01*
X9914048Y-12597286D01*
X9904524Y-12635381D01*
X9895000Y-12654428D01*
X9885476Y-12663952D01*
X9866429Y-12673476D01*
X9847381Y-12673476D01*
X9828333Y-12663952D01*
X9818810Y-12654428D01*
X9809286Y-12635381D01*
X9799762Y-12597286D01*
X9799762Y-12549667D01*
X9809286Y-12511571D01*
X9818810Y-12492524D01*
X9828333Y-12483000D01*
X9847381Y-12473476D01*
X9999762Y-12673476D02*
X9999762Y-12540143D01*
X9999762Y-12559190D02*
X10009286Y-12549667D01*
X10028333Y-12540143D01*
X10056905Y-12540143D01*
X10075952Y-12549667D01*
X10085476Y-12568714D01*
X10085476Y-12673476D01*
X10085476Y-12568714D02*
X10095000Y-12549667D01*
X10114048Y-12540143D01*
X10142619Y-12540143D01*
X10161667Y-12549667D01*
X10171190Y-12568714D01*
X10171190Y-12673476D01*
X10266429Y-12673476D02*
X10266429Y-12540143D01*
X10266429Y-12559190D02*
X10275952Y-12549667D01*
X10295000Y-12540143D01*
X10323571Y-12540143D01*
X10342619Y-12549667D01*
X10352143Y-12568714D01*
X10352143Y-12673476D01*
X10352143Y-12568714D02*
X10361667Y-12549667D01*
X10380714Y-12540143D01*
X10409286Y-12540143D01*
X10428333Y-12549667D01*
X10437857Y-12568714D01*
X10437857Y-12673476D01*
X10828333Y-12463952D02*
X10656905Y-12721095D01*
X11085476Y-12473476D02*
X11104524Y-12473476D01*
X11123571Y-12483000D01*
X11133095Y-12492524D01*
X11142619Y-12511571D01*
X11152143Y-12549667D01*
X11152143Y-12597286D01*
X11142619Y-12635381D01*
X11133095Y-12654428D01*
X11123571Y-12663952D01*
X11104524Y-12673476D01*
X11085476Y-12673476D01*
X11066429Y-12663952D01*
X11056905Y-12654428D01*
X11047381Y-12635381D01*
X11037857Y-12597286D01*
X11037857Y-12549667D01*
X11047381Y-12511571D01*
X11056905Y-12492524D01*
X11066429Y-12483000D01*
X11085476Y-12473476D01*
X11237857Y-12654428D02*
X11247381Y-12663952D01*
X11237857Y-12673476D01*
X11228333Y-12663952D01*
X11237857Y-12654428D01*
X11237857Y-12673476D01*
X11371190Y-12473476D02*
X11390238Y-12473476D01*
X11409286Y-12483000D01*
X11418809Y-12492524D01*
X11428333Y-12511571D01*
X11437857Y-12549667D01*
X11437857Y-12597286D01*
X11428333Y-12635381D01*
X11418809Y-12654428D01*
X11409286Y-12663952D01*
X11390238Y-12673476D01*
X11371190Y-12673476D01*
X11352143Y-12663952D01*
X11342619Y-12654428D01*
X11333095Y-12635381D01*
X11323571Y-12597286D01*
X11323571Y-12549667D01*
X11333095Y-12511571D01*
X11342619Y-12492524D01*
X11352143Y-12483000D01*
X11371190Y-12473476D01*
X11628333Y-12673476D02*
X11514048Y-12673476D01*
X11571190Y-12673476D02*
X11571190Y-12473476D01*
X11552143Y-12502048D01*
X11533095Y-12521095D01*
X11514048Y-12530619D01*
X11723571Y-12673476D02*
X11761667Y-12673476D01*
X11780714Y-12663952D01*
X11790238Y-12654428D01*
X11809286Y-12625857D01*
X11818809Y-12587762D01*
X11818809Y-12511571D01*
X11809286Y-12492524D01*
X11799762Y-12483000D01*
X11780714Y-12473476D01*
X11742619Y-12473476D01*
X11723571Y-12483000D01*
X11714048Y-12492524D01*
X11704524Y-12511571D01*
X11704524Y-12559190D01*
X11714048Y-12578238D01*
X11723571Y-12587762D01*
X11742619Y-12597286D01*
X11780714Y-12597286D01*
X11799762Y-12587762D01*
X11809286Y-12578238D01*
X11818809Y-12559190D01*
X11885476Y-12473476D02*
X12018809Y-12473476D01*
X11933095Y-12673476D01*
X12085476Y-12473476D02*
X12085476Y-12511571D01*
X12161667Y-12473476D02*
X12161667Y-12511571D01*
X12456905Y-12749667D02*
X12447381Y-12740143D01*
X12428333Y-12711571D01*
X12418809Y-12692524D01*
X12409286Y-12663952D01*
X12399762Y-12616333D01*
X12399762Y-12578238D01*
X12409286Y-12530619D01*
X12418809Y-12502048D01*
X12428333Y-12483000D01*
X12447381Y-12454428D01*
X12456905Y-12444905D01*
X12514048Y-12473476D02*
X12637857Y-12473476D01*
X12571190Y-12549667D01*
X12599762Y-12549667D01*
X12618809Y-12559190D01*
X12628333Y-12568714D01*
X12637857Y-12587762D01*
X12637857Y-12635381D01*
X12628333Y-12654428D01*
X12618809Y-12663952D01*
X12599762Y-12673476D01*
X12542619Y-12673476D01*
X12523571Y-12663952D01*
X12514048Y-12654428D01*
X12714048Y-12492524D02*
X12723571Y-12483000D01*
X12742619Y-12473476D01*
X12790238Y-12473476D01*
X12809286Y-12483000D01*
X12818809Y-12492524D01*
X12828333Y-12511571D01*
X12828333Y-12530619D01*
X12818809Y-12559190D01*
X12704524Y-12673476D01*
X12828333Y-12673476D01*
X13066428Y-12673476D02*
X13066428Y-12473476D01*
X13152143Y-12673476D02*
X13152143Y-12568714D01*
X13142619Y-12549667D01*
X13123571Y-12540143D01*
X13095000Y-12540143D01*
X13075952Y-12549667D01*
X13066428Y-12559190D01*
X13275952Y-12673476D02*
X13256905Y-12663952D01*
X13247381Y-12654428D01*
X13237857Y-12635381D01*
X13237857Y-12578238D01*
X13247381Y-12559190D01*
X13256905Y-12549667D01*
X13275952Y-12540143D01*
X13304524Y-12540143D01*
X13323571Y-12549667D01*
X13333095Y-12559190D01*
X13342619Y-12578238D01*
X13342619Y-12635381D01*
X13333095Y-12654428D01*
X13323571Y-12663952D01*
X13304524Y-12673476D01*
X13275952Y-12673476D01*
X13456905Y-12673476D02*
X13437857Y-12663952D01*
X13428333Y-12644905D01*
X13428333Y-12473476D01*
X13609286Y-12663952D02*
X13590238Y-12673476D01*
X13552143Y-12673476D01*
X13533095Y-12663952D01*
X13523571Y-12644905D01*
X13523571Y-12568714D01*
X13533095Y-12549667D01*
X13552143Y-12540143D01*
X13590238Y-12540143D01*
X13609286Y-12549667D01*
X13618809Y-12568714D01*
X13618809Y-12587762D01*
X13523571Y-12606809D01*
X13695000Y-12663952D02*
X13714048Y-12673476D01*
X13752143Y-12673476D01*
X13771190Y-12663952D01*
X13780714Y-12644905D01*
X13780714Y-12635381D01*
X13771190Y-12616333D01*
X13752143Y-12606809D01*
X13723571Y-12606809D01*
X13704524Y-12597286D01*
X13695000Y-12578238D01*
X13695000Y-12568714D01*
X13704524Y-12549667D01*
X13723571Y-12540143D01*
X13752143Y-12540143D01*
X13771190Y-12549667D01*
X13847381Y-12749667D02*
X13856905Y-12740143D01*
X13875952Y-12711571D01*
X13885476Y-12692524D01*
X13895000Y-12663952D01*
X13904524Y-12616333D01*
X13904524Y-12578238D01*
X13895000Y-12530619D01*
X13885476Y-12502048D01*
X13875952Y-12483000D01*
X13856905Y-12454428D01*
X13847381Y-12444905D01*
D13*
X8885000Y-12847000D02*
G75*
G03*
X8885000Y-12847000I-35000J0D01*
G01*
D11*
X9180714Y-12737476D02*
X9199762Y-12737476D01*
X9218810Y-12747000D01*
X9228333Y-12756524D01*
X9237857Y-12775571D01*
X9247381Y-12813667D01*
X9247381Y-12861286D01*
X9237857Y-12899381D01*
X9228333Y-12918428D01*
X9218810Y-12927952D01*
X9199762Y-12937476D01*
X9180714Y-12937476D01*
X9161667Y-12927952D01*
X9152143Y-12918428D01*
X9142619Y-12899381D01*
X9133095Y-12861286D01*
X9133095Y-12813667D01*
X9142619Y-12775571D01*
X9152143Y-12756524D01*
X9161667Y-12747000D01*
X9180714Y-12737476D01*
X9333095Y-12918428D02*
X9342619Y-12927952D01*
X9333095Y-12937476D01*
X9323571Y-12927952D01*
X9333095Y-12918428D01*
X9333095Y-12937476D01*
X9409286Y-12737476D02*
X9542619Y-12737476D01*
X9456905Y-12937476D01*
X9656905Y-12737476D02*
X9675952Y-12737476D01*
X9695000Y-12747000D01*
X9704524Y-12756524D01*
X9714048Y-12775571D01*
X9723571Y-12813667D01*
X9723571Y-12861286D01*
X9714048Y-12899381D01*
X9704524Y-12918428D01*
X9695000Y-12927952D01*
X9675952Y-12937476D01*
X9656905Y-12937476D01*
X9637857Y-12927952D01*
X9628333Y-12918428D01*
X9618810Y-12899381D01*
X9609286Y-12861286D01*
X9609286Y-12813667D01*
X9618810Y-12775571D01*
X9628333Y-12756524D01*
X9637857Y-12747000D01*
X9656905Y-12737476D01*
X9847381Y-12737476D02*
X9866429Y-12737476D01*
X9885476Y-12747000D01*
X9895000Y-12756524D01*
X9904524Y-12775571D01*
X9914048Y-12813667D01*
X9914048Y-12861286D01*
X9904524Y-12899381D01*
X9895000Y-12918428D01*
X9885476Y-12927952D01*
X9866429Y-12937476D01*
X9847381Y-12937476D01*
X9828333Y-12927952D01*
X9818810Y-12918428D01*
X9809286Y-12899381D01*
X9799762Y-12861286D01*
X9799762Y-12813667D01*
X9809286Y-12775571D01*
X9818810Y-12756524D01*
X9828333Y-12747000D01*
X9847381Y-12737476D01*
X9999762Y-12937476D02*
X9999762Y-12804143D01*
X9999762Y-12823190D02*
X10009286Y-12813667D01*
X10028333Y-12804143D01*
X10056905Y-12804143D01*
X10075952Y-12813667D01*
X10085476Y-12832714D01*
X10085476Y-12937476D01*
X10085476Y-12832714D02*
X10095000Y-12813667D01*
X10114048Y-12804143D01*
X10142619Y-12804143D01*
X10161667Y-12813667D01*
X10171190Y-12832714D01*
X10171190Y-12937476D01*
X10266429Y-12937476D02*
X10266429Y-12804143D01*
X10266429Y-12823190D02*
X10275952Y-12813667D01*
X10295000Y-12804143D01*
X10323571Y-12804143D01*
X10342619Y-12813667D01*
X10352143Y-12832714D01*
X10352143Y-12937476D01*
X10352143Y-12832714D02*
X10361667Y-12813667D01*
X10380714Y-12804143D01*
X10409286Y-12804143D01*
X10428333Y-12813667D01*
X10437857Y-12832714D01*
X10437857Y-12937476D01*
X10828333Y-12727952D02*
X10656905Y-12985095D01*
X11085476Y-12737476D02*
X11104524Y-12737476D01*
X11123571Y-12747000D01*
X11133095Y-12756524D01*
X11142619Y-12775571D01*
X11152143Y-12813667D01*
X11152143Y-12861286D01*
X11142619Y-12899381D01*
X11133095Y-12918428D01*
X11123571Y-12927952D01*
X11104524Y-12937476D01*
X11085476Y-12937476D01*
X11066429Y-12927952D01*
X11056905Y-12918428D01*
X11047381Y-12899381D01*
X11037857Y-12861286D01*
X11037857Y-12813667D01*
X11047381Y-12775571D01*
X11056905Y-12756524D01*
X11066429Y-12747000D01*
X11085476Y-12737476D01*
X11237857Y-12918428D02*
X11247381Y-12927952D01*
X11237857Y-12937476D01*
X11228333Y-12927952D01*
X11237857Y-12918428D01*
X11237857Y-12937476D01*
X11371190Y-12737476D02*
X11390238Y-12737476D01*
X11409286Y-12747000D01*
X11418809Y-12756524D01*
X11428333Y-12775571D01*
X11437857Y-12813667D01*
X11437857Y-12861286D01*
X11428333Y-12899381D01*
X11418809Y-12918428D01*
X11409286Y-12927952D01*
X11390238Y-12937476D01*
X11371190Y-12937476D01*
X11352143Y-12927952D01*
X11342619Y-12918428D01*
X11333095Y-12899381D01*
X11323571Y-12861286D01*
X11323571Y-12813667D01*
X11333095Y-12775571D01*
X11342619Y-12756524D01*
X11352143Y-12747000D01*
X11371190Y-12737476D01*
X11514048Y-12756524D02*
X11523571Y-12747000D01*
X11542619Y-12737476D01*
X11590238Y-12737476D01*
X11609286Y-12747000D01*
X11618809Y-12756524D01*
X11628333Y-12775571D01*
X11628333Y-12794619D01*
X11618809Y-12823190D01*
X11504524Y-12937476D01*
X11628333Y-12937476D01*
X11695000Y-12737476D02*
X11828333Y-12737476D01*
X11742619Y-12937476D01*
X11990238Y-12737476D02*
X11952143Y-12737476D01*
X11933095Y-12747000D01*
X11923571Y-12756524D01*
X11904524Y-12785095D01*
X11895000Y-12823190D01*
X11895000Y-12899381D01*
X11904524Y-12918428D01*
X11914048Y-12927952D01*
X11933095Y-12937476D01*
X11971190Y-12937476D01*
X11990238Y-12927952D01*
X11999762Y-12918428D01*
X12009286Y-12899381D01*
X12009286Y-12851762D01*
X11999762Y-12832714D01*
X11990238Y-12823190D01*
X11971190Y-12813667D01*
X11933095Y-12813667D01*
X11914048Y-12823190D01*
X11904524Y-12832714D01*
X11895000Y-12851762D01*
X12085476Y-12737476D02*
X12085476Y-12775571D01*
X12161667Y-12737476D02*
X12161667Y-12775571D01*
X12456905Y-13013667D02*
X12447381Y-13004143D01*
X12428333Y-12975571D01*
X12418809Y-12956524D01*
X12409286Y-12927952D01*
X12399762Y-12880333D01*
X12399762Y-12842238D01*
X12409286Y-12794619D01*
X12418809Y-12766048D01*
X12428333Y-12747000D01*
X12447381Y-12718428D01*
X12456905Y-12708905D01*
X12618809Y-12804143D02*
X12618809Y-12937476D01*
X12571190Y-12727952D02*
X12523571Y-12870809D01*
X12647381Y-12870809D01*
X12875952Y-12937476D02*
X12875952Y-12737476D01*
X12961667Y-12937476D02*
X12961667Y-12832714D01*
X12952143Y-12813667D01*
X12933095Y-12804143D01*
X12904524Y-12804143D01*
X12885476Y-12813667D01*
X12875952Y-12823190D01*
X13085476Y-12937476D02*
X13066428Y-12927952D01*
X13056905Y-12918428D01*
X13047381Y-12899381D01*
X13047381Y-12842238D01*
X13056905Y-12823190D01*
X13066428Y-12813667D01*
X13085476Y-12804143D01*
X13114048Y-12804143D01*
X13133095Y-12813667D01*
X13142619Y-12823190D01*
X13152143Y-12842238D01*
X13152143Y-12899381D01*
X13142619Y-12918428D01*
X13133095Y-12927952D01*
X13114048Y-12937476D01*
X13085476Y-12937476D01*
X13266428Y-12937476D02*
X13247381Y-12927952D01*
X13237857Y-12908905D01*
X13237857Y-12737476D01*
X13418809Y-12927952D02*
X13399762Y-12937476D01*
X13361667Y-12937476D01*
X13342619Y-12927952D01*
X13333095Y-12908905D01*
X13333095Y-12832714D01*
X13342619Y-12813667D01*
X13361667Y-12804143D01*
X13399762Y-12804143D01*
X13418809Y-12813667D01*
X13428333Y-12832714D01*
X13428333Y-12851762D01*
X13333095Y-12870809D01*
X13504524Y-12927952D02*
X13523571Y-12937476D01*
X13561667Y-12937476D01*
X13580714Y-12927952D01*
X13590238Y-12908905D01*
X13590238Y-12899381D01*
X13580714Y-12880333D01*
X13561667Y-12870809D01*
X13533095Y-12870809D01*
X13514048Y-12861286D01*
X13504524Y-12842238D01*
X13504524Y-12832714D01*
X13514048Y-12813667D01*
X13533095Y-12804143D01*
X13561667Y-12804143D01*
X13580714Y-12813667D01*
X13656905Y-13013667D02*
X13666428Y-13004143D01*
X13685476Y-12975571D01*
X13695000Y-12956524D01*
X13704524Y-12927952D01*
X13714048Y-12880333D01*
X13714048Y-12842238D01*
X13704524Y-12794619D01*
X13695000Y-12766048D01*
X13685476Y-12747000D01*
X13666428Y-12718428D01*
X13656905Y-12708905D01*
D14*
X8847500Y-13073500D02*
X8847500Y-13148500D01*
X8810000Y-13111000D02*
X8885000Y-13111000D01*
D11*
X9180714Y-13001476D02*
X9199762Y-13001476D01*
X9218810Y-13011000D01*
X9228333Y-13020524D01*
X9237857Y-13039571D01*
X9247381Y-13077667D01*
X9247381Y-13125286D01*
X9237857Y-13163381D01*
X9228333Y-13182428D01*
X9218810Y-13191952D01*
X9199762Y-13201476D01*
X9180714Y-13201476D01*
X9161667Y-13191952D01*
X9152143Y-13182428D01*
X9142619Y-13163381D01*
X9133095Y-13125286D01*
X9133095Y-13077667D01*
X9142619Y-13039571D01*
X9152143Y-13020524D01*
X9161667Y-13011000D01*
X9180714Y-13001476D01*
X9333095Y-13182428D02*
X9342619Y-13191952D01*
X9333095Y-13201476D01*
X9323571Y-13191952D01*
X9333095Y-13182428D01*
X9333095Y-13201476D01*
X9409286Y-13001476D02*
X9542619Y-13001476D01*
X9456905Y-13201476D01*
X9714048Y-13001476D02*
X9618810Y-13001476D01*
X9609286Y-13096714D01*
X9618810Y-13087190D01*
X9637857Y-13077667D01*
X9685476Y-13077667D01*
X9704524Y-13087190D01*
X9714048Y-13096714D01*
X9723571Y-13115762D01*
X9723571Y-13163381D01*
X9714048Y-13182428D01*
X9704524Y-13191952D01*
X9685476Y-13201476D01*
X9637857Y-13201476D01*
X9618810Y-13191952D01*
X9609286Y-13182428D01*
X9847381Y-13001476D02*
X9866429Y-13001476D01*
X9885476Y-13011000D01*
X9895000Y-13020524D01*
X9904524Y-13039571D01*
X9914048Y-13077667D01*
X9914048Y-13125286D01*
X9904524Y-13163381D01*
X9895000Y-13182428D01*
X9885476Y-13191952D01*
X9866429Y-13201476D01*
X9847381Y-13201476D01*
X9828333Y-13191952D01*
X9818810Y-13182428D01*
X9809286Y-13163381D01*
X9799762Y-13125286D01*
X9799762Y-13077667D01*
X9809286Y-13039571D01*
X9818810Y-13020524D01*
X9828333Y-13011000D01*
X9847381Y-13001476D01*
X9999762Y-13201476D02*
X9999762Y-13068143D01*
X9999762Y-13087190D02*
X10009286Y-13077667D01*
X10028333Y-13068143D01*
X10056905Y-13068143D01*
X10075952Y-13077667D01*
X10085476Y-13096714D01*
X10085476Y-13201476D01*
X10085476Y-13096714D02*
X10095000Y-13077667D01*
X10114048Y-13068143D01*
X10142619Y-13068143D01*
X10161667Y-13077667D01*
X10171190Y-13096714D01*
X10171190Y-13201476D01*
X10266429Y-13201476D02*
X10266429Y-13068143D01*
X10266429Y-13087190D02*
X10275952Y-13077667D01*
X10295000Y-13068143D01*
X10323571Y-13068143D01*
X10342619Y-13077667D01*
X10352143Y-13096714D01*
X10352143Y-13201476D01*
X10352143Y-13096714D02*
X10361667Y-13077667D01*
X10380714Y-13068143D01*
X10409286Y-13068143D01*
X10428333Y-13077667D01*
X10437857Y-13096714D01*
X10437857Y-13201476D01*
X10828333Y-12991952D02*
X10656905Y-13249095D01*
X11085476Y-13001476D02*
X11104524Y-13001476D01*
X11123571Y-13011000D01*
X11133095Y-13020524D01*
X11142619Y-13039571D01*
X11152143Y-13077667D01*
X11152143Y-13125286D01*
X11142619Y-13163381D01*
X11133095Y-13182428D01*
X11123571Y-13191952D01*
X11104524Y-13201476D01*
X11085476Y-13201476D01*
X11066429Y-13191952D01*
X11056905Y-13182428D01*
X11047381Y-13163381D01*
X11037857Y-13125286D01*
X11037857Y-13077667D01*
X11047381Y-13039571D01*
X11056905Y-13020524D01*
X11066429Y-13011000D01*
X11085476Y-13001476D01*
X11237857Y-13182428D02*
X11247381Y-13191952D01*
X11237857Y-13201476D01*
X11228333Y-13191952D01*
X11237857Y-13182428D01*
X11237857Y-13201476D01*
X11371190Y-13001476D02*
X11390238Y-13001476D01*
X11409286Y-13011000D01*
X11418809Y-13020524D01*
X11428333Y-13039571D01*
X11437857Y-13077667D01*
X11437857Y-13125286D01*
X11428333Y-13163381D01*
X11418809Y-13182428D01*
X11409286Y-13191952D01*
X11390238Y-13201476D01*
X11371190Y-13201476D01*
X11352143Y-13191952D01*
X11342619Y-13182428D01*
X11333095Y-13163381D01*
X11323571Y-13125286D01*
X11323571Y-13077667D01*
X11333095Y-13039571D01*
X11342619Y-13020524D01*
X11352143Y-13011000D01*
X11371190Y-13001476D01*
X11514048Y-13020524D02*
X11523571Y-13011000D01*
X11542619Y-13001476D01*
X11590238Y-13001476D01*
X11609286Y-13011000D01*
X11618809Y-13020524D01*
X11628333Y-13039571D01*
X11628333Y-13058619D01*
X11618809Y-13087190D01*
X11504524Y-13201476D01*
X11628333Y-13201476D01*
X11723571Y-13201476D02*
X11761667Y-13201476D01*
X11780714Y-13191952D01*
X11790238Y-13182428D01*
X11809286Y-13153857D01*
X11818809Y-13115762D01*
X11818809Y-13039571D01*
X11809286Y-13020524D01*
X11799762Y-13011000D01*
X11780714Y-13001476D01*
X11742619Y-13001476D01*
X11723571Y-13011000D01*
X11714048Y-13020524D01*
X11704524Y-13039571D01*
X11704524Y-13087190D01*
X11714048Y-13106238D01*
X11723571Y-13115762D01*
X11742619Y-13125286D01*
X11780714Y-13125286D01*
X11799762Y-13115762D01*
X11809286Y-13106238D01*
X11818809Y-13087190D01*
X11999762Y-13001476D02*
X11904524Y-13001476D01*
X11895000Y-13096714D01*
X11904524Y-13087190D01*
X11923571Y-13077667D01*
X11971190Y-13077667D01*
X11990238Y-13087190D01*
X11999762Y-13096714D01*
X12009286Y-13115762D01*
X12009286Y-13163381D01*
X11999762Y-13182428D01*
X11990238Y-13191952D01*
X11971190Y-13201476D01*
X11923571Y-13201476D01*
X11904524Y-13191952D01*
X11895000Y-13182428D01*
X12085476Y-13001476D02*
X12085476Y-13039571D01*
X12161667Y-13001476D02*
X12161667Y-13039571D01*
X12456905Y-13277667D02*
X12447381Y-13268143D01*
X12428333Y-13239571D01*
X12418809Y-13220524D01*
X12409286Y-13191952D01*
X12399762Y-13144333D01*
X12399762Y-13106238D01*
X12409286Y-13058619D01*
X12418809Y-13030048D01*
X12428333Y-13011000D01*
X12447381Y-12982428D01*
X12456905Y-12972905D01*
X12618809Y-13001476D02*
X12580714Y-13001476D01*
X12561667Y-13011000D01*
X12552143Y-13020524D01*
X12533095Y-13049095D01*
X12523571Y-13087190D01*
X12523571Y-13163381D01*
X12533095Y-13182428D01*
X12542619Y-13191952D01*
X12561667Y-13201476D01*
X12599762Y-13201476D01*
X12618809Y-13191952D01*
X12628333Y-13182428D01*
X12637857Y-13163381D01*
X12637857Y-13115762D01*
X12628333Y-13096714D01*
X12618809Y-13087190D01*
X12599762Y-13077667D01*
X12561667Y-13077667D01*
X12542619Y-13087190D01*
X12533095Y-13096714D01*
X12523571Y-13115762D01*
X12875952Y-13201476D02*
X12875952Y-13001476D01*
X12961667Y-13201476D02*
X12961667Y-13096714D01*
X12952143Y-13077667D01*
X12933095Y-13068143D01*
X12904524Y-13068143D01*
X12885476Y-13077667D01*
X12875952Y-13087190D01*
X13085476Y-13201476D02*
X13066428Y-13191952D01*
X13056905Y-13182428D01*
X13047381Y-13163381D01*
X13047381Y-13106238D01*
X13056905Y-13087190D01*
X13066428Y-13077667D01*
X13085476Y-13068143D01*
X13114048Y-13068143D01*
X13133095Y-13077667D01*
X13142619Y-13087190D01*
X13152143Y-13106238D01*
X13152143Y-13163381D01*
X13142619Y-13182428D01*
X13133095Y-13191952D01*
X13114048Y-13201476D01*
X13085476Y-13201476D01*
X13266428Y-13201476D02*
X13247381Y-13191952D01*
X13237857Y-13172905D01*
X13237857Y-13001476D01*
X13418809Y-13191952D02*
X13399762Y-13201476D01*
X13361667Y-13201476D01*
X13342619Y-13191952D01*
X13333095Y-13172905D01*
X13333095Y-13096714D01*
X13342619Y-13077667D01*
X13361667Y-13068143D01*
X13399762Y-13068143D01*
X13418809Y-13077667D01*
X13428333Y-13096714D01*
X13428333Y-13115762D01*
X13333095Y-13134809D01*
X13504524Y-13191952D02*
X13523571Y-13201476D01*
X13561667Y-13201476D01*
X13580714Y-13191952D01*
X13590238Y-13172905D01*
X13590238Y-13163381D01*
X13580714Y-13144333D01*
X13561667Y-13134809D01*
X13533095Y-13134809D01*
X13514048Y-13125286D01*
X13504524Y-13106238D01*
X13504524Y-13096714D01*
X13514048Y-13077667D01*
X13533095Y-13068143D01*
X13561667Y-13068143D01*
X13580714Y-13077667D01*
X13656905Y-13277667D02*
X13666428Y-13268143D01*
X13685476Y-13239571D01*
X13695000Y-13220524D01*
X13704524Y-13191952D01*
X13714048Y-13144333D01*
X13714048Y-13106238D01*
X13704524Y-13058619D01*
X13695000Y-13030048D01*
X13685476Y-13011000D01*
X13666428Y-12982428D01*
X13656905Y-12972905D01*
D15*
X8873285Y-13403284D02*
X8873285Y-13346715D01*
X8816716Y-13346715D01*
X8816716Y-13403284D01*
X8873285Y-13403284D01*
D11*
X9180714Y-13265476D02*
X9199762Y-13265476D01*
X9218810Y-13275000D01*
X9228333Y-13284524D01*
X9237857Y-13303571D01*
X9247381Y-13341667D01*
X9247381Y-13389286D01*
X9237857Y-13427381D01*
X9228333Y-13446428D01*
X9218810Y-13455952D01*
X9199762Y-13465476D01*
X9180714Y-13465476D01*
X9161667Y-13455952D01*
X9152143Y-13446428D01*
X9142619Y-13427381D01*
X9133095Y-13389286D01*
X9133095Y-13341667D01*
X9142619Y-13303571D01*
X9152143Y-13284524D01*
X9161667Y-13275000D01*
X9180714Y-13265476D01*
X9333095Y-13446428D02*
X9342619Y-13455952D01*
X9333095Y-13465476D01*
X9323571Y-13455952D01*
X9333095Y-13446428D01*
X9333095Y-13465476D01*
X9456905Y-13351190D02*
X9437857Y-13341667D01*
X9428333Y-13332143D01*
X9418810Y-13313095D01*
X9418810Y-13303571D01*
X9428333Y-13284524D01*
X9437857Y-13275000D01*
X9456905Y-13265476D01*
X9495000Y-13265476D01*
X9514048Y-13275000D01*
X9523571Y-13284524D01*
X9533095Y-13303571D01*
X9533095Y-13313095D01*
X9523571Y-13332143D01*
X9514048Y-13341667D01*
X9495000Y-13351190D01*
X9456905Y-13351190D01*
X9437857Y-13360714D01*
X9428333Y-13370238D01*
X9418810Y-13389286D01*
X9418810Y-13427381D01*
X9428333Y-13446428D01*
X9437857Y-13455952D01*
X9456905Y-13465476D01*
X9495000Y-13465476D01*
X9514048Y-13455952D01*
X9523571Y-13446428D01*
X9533095Y-13427381D01*
X9533095Y-13389286D01*
X9523571Y-13370238D01*
X9514048Y-13360714D01*
X9495000Y-13351190D01*
X9656905Y-13265476D02*
X9675952Y-13265476D01*
X9695000Y-13275000D01*
X9704524Y-13284524D01*
X9714048Y-13303571D01*
X9723571Y-13341667D01*
X9723571Y-13389286D01*
X9714048Y-13427381D01*
X9704524Y-13446428D01*
X9695000Y-13455952D01*
X9675952Y-13465476D01*
X9656905Y-13465476D01*
X9637857Y-13455952D01*
X9628333Y-13446428D01*
X9618810Y-13427381D01*
X9609286Y-13389286D01*
X9609286Y-13341667D01*
X9618810Y-13303571D01*
X9628333Y-13284524D01*
X9637857Y-13275000D01*
X9656905Y-13265476D01*
X9847381Y-13265476D02*
X9866429Y-13265476D01*
X9885476Y-13275000D01*
X9895000Y-13284524D01*
X9904524Y-13303571D01*
X9914048Y-13341667D01*
X9914048Y-13389286D01*
X9904524Y-13427381D01*
X9895000Y-13446428D01*
X9885476Y-13455952D01*
X9866429Y-13465476D01*
X9847381Y-13465476D01*
X9828333Y-13455952D01*
X9818810Y-13446428D01*
X9809286Y-13427381D01*
X9799762Y-13389286D01*
X9799762Y-13341667D01*
X9809286Y-13303571D01*
X9818810Y-13284524D01*
X9828333Y-13275000D01*
X9847381Y-13265476D01*
X9999762Y-13465476D02*
X9999762Y-13332143D01*
X9999762Y-13351190D02*
X10009286Y-13341667D01*
X10028333Y-13332143D01*
X10056905Y-13332143D01*
X10075952Y-13341667D01*
X10085476Y-13360714D01*
X10085476Y-13465476D01*
X10085476Y-13360714D02*
X10095000Y-13341667D01*
X10114048Y-13332143D01*
X10142619Y-13332143D01*
X10161667Y-13341667D01*
X10171190Y-13360714D01*
X10171190Y-13465476D01*
X10266429Y-13465476D02*
X10266429Y-13332143D01*
X10266429Y-13351190D02*
X10275952Y-13341667D01*
X10295000Y-13332143D01*
X10323571Y-13332143D01*
X10342619Y-13341667D01*
X10352143Y-13360714D01*
X10352143Y-13465476D01*
X10352143Y-13360714D02*
X10361667Y-13341667D01*
X10380714Y-13332143D01*
X10409286Y-13332143D01*
X10428333Y-13341667D01*
X10437857Y-13360714D01*
X10437857Y-13465476D01*
X10828333Y-13255952D02*
X10656905Y-13513095D01*
X11085476Y-13265476D02*
X11104524Y-13265476D01*
X11123571Y-13275000D01*
X11133095Y-13284524D01*
X11142619Y-13303571D01*
X11152143Y-13341667D01*
X11152143Y-13389286D01*
X11142619Y-13427381D01*
X11133095Y-13446428D01*
X11123571Y-13455952D01*
X11104524Y-13465476D01*
X11085476Y-13465476D01*
X11066429Y-13455952D01*
X11056905Y-13446428D01*
X11047381Y-13427381D01*
X11037857Y-13389286D01*
X11037857Y-13341667D01*
X11047381Y-13303571D01*
X11056905Y-13284524D01*
X11066429Y-13275000D01*
X11085476Y-13265476D01*
X11237857Y-13446428D02*
X11247381Y-13455952D01*
X11237857Y-13465476D01*
X11228333Y-13455952D01*
X11237857Y-13446428D01*
X11237857Y-13465476D01*
X11371190Y-13265476D02*
X11390238Y-13265476D01*
X11409286Y-13275000D01*
X11418809Y-13284524D01*
X11428333Y-13303571D01*
X11437857Y-13341667D01*
X11437857Y-13389286D01*
X11428333Y-13427381D01*
X11418809Y-13446428D01*
X11409286Y-13455952D01*
X11390238Y-13465476D01*
X11371190Y-13465476D01*
X11352143Y-13455952D01*
X11342619Y-13446428D01*
X11333095Y-13427381D01*
X11323571Y-13389286D01*
X11323571Y-13341667D01*
X11333095Y-13303571D01*
X11342619Y-13284524D01*
X11352143Y-13275000D01*
X11371190Y-13265476D01*
X11504524Y-13265476D02*
X11628333Y-13265476D01*
X11561667Y-13341667D01*
X11590238Y-13341667D01*
X11609286Y-13351190D01*
X11618809Y-13360714D01*
X11628333Y-13379762D01*
X11628333Y-13427381D01*
X11618809Y-13446428D01*
X11609286Y-13455952D01*
X11590238Y-13465476D01*
X11533095Y-13465476D01*
X11514048Y-13455952D01*
X11504524Y-13446428D01*
X11818809Y-13465476D02*
X11704524Y-13465476D01*
X11761667Y-13465476D02*
X11761667Y-13265476D01*
X11742619Y-13294048D01*
X11723571Y-13313095D01*
X11704524Y-13322619D01*
X11999762Y-13265476D02*
X11904524Y-13265476D01*
X11895000Y-13360714D01*
X11904524Y-13351190D01*
X11923571Y-13341667D01*
X11971190Y-13341667D01*
X11990238Y-13351190D01*
X11999762Y-13360714D01*
X12009286Y-13379762D01*
X12009286Y-13427381D01*
X11999762Y-13446428D01*
X11990238Y-13455952D01*
X11971190Y-13465476D01*
X11923571Y-13465476D01*
X11904524Y-13455952D01*
X11895000Y-13446428D01*
X12085476Y-13265476D02*
X12085476Y-13303571D01*
X12161667Y-13265476D02*
X12161667Y-13303571D01*
X12456905Y-13541667D02*
X12447381Y-13532143D01*
X12428333Y-13503571D01*
X12418809Y-13484524D01*
X12409286Y-13455952D01*
X12399762Y-13408333D01*
X12399762Y-13370238D01*
X12409286Y-13322619D01*
X12418809Y-13294048D01*
X12428333Y-13275000D01*
X12447381Y-13246428D01*
X12456905Y-13236905D01*
X12637857Y-13465476D02*
X12523571Y-13465476D01*
X12580714Y-13465476D02*
X12580714Y-13265476D01*
X12561667Y-13294048D01*
X12542619Y-13313095D01*
X12523571Y-13322619D01*
X12761667Y-13265476D02*
X12780714Y-13265476D01*
X12799762Y-13275000D01*
X12809286Y-13284524D01*
X12818809Y-13303571D01*
X12828333Y-13341667D01*
X12828333Y-13389286D01*
X12818809Y-13427381D01*
X12809286Y-13446428D01*
X12799762Y-13455952D01*
X12780714Y-13465476D01*
X12761667Y-13465476D01*
X12742619Y-13455952D01*
X12733095Y-13446428D01*
X12723571Y-13427381D01*
X12714048Y-13389286D01*
X12714048Y-13341667D01*
X12723571Y-13303571D01*
X12733095Y-13284524D01*
X12742619Y-13275000D01*
X12761667Y-13265476D01*
X13066428Y-13465476D02*
X13066428Y-13265476D01*
X13152143Y-13465476D02*
X13152143Y-13360714D01*
X13142619Y-13341667D01*
X13123571Y-13332143D01*
X13095000Y-13332143D01*
X13075952Y-13341667D01*
X13066428Y-13351190D01*
X13275952Y-13465476D02*
X13256905Y-13455952D01*
X13247381Y-13446428D01*
X13237857Y-13427381D01*
X13237857Y-13370238D01*
X13247381Y-13351190D01*
X13256905Y-13341667D01*
X13275952Y-13332143D01*
X13304524Y-13332143D01*
X13323571Y-13341667D01*
X13333095Y-13351190D01*
X13342619Y-13370238D01*
X13342619Y-13427381D01*
X13333095Y-13446428D01*
X13323571Y-13455952D01*
X13304524Y-13465476D01*
X13275952Y-13465476D01*
X13456905Y-13465476D02*
X13437857Y-13455952D01*
X13428333Y-13436905D01*
X13428333Y-13265476D01*
X13609286Y-13455952D02*
X13590238Y-13465476D01*
X13552143Y-13465476D01*
X13533095Y-13455952D01*
X13523571Y-13436905D01*
X13523571Y-13360714D01*
X13533095Y-13341667D01*
X13552143Y-13332143D01*
X13590238Y-13332143D01*
X13609286Y-13341667D01*
X13618809Y-13360714D01*
X13618809Y-13379762D01*
X13523571Y-13398809D01*
X13695000Y-13455952D02*
X13714048Y-13465476D01*
X13752143Y-13465476D01*
X13771190Y-13455952D01*
X13780714Y-13436905D01*
X13780714Y-13427381D01*
X13771190Y-13408333D01*
X13752143Y-13398809D01*
X13723571Y-13398809D01*
X13704524Y-13389286D01*
X13695000Y-13370238D01*
X13695000Y-13360714D01*
X13704524Y-13341667D01*
X13723571Y-13332143D01*
X13752143Y-13332143D01*
X13771190Y-13341667D01*
X13847381Y-13541667D02*
X13856905Y-13532143D01*
X13875952Y-13503571D01*
X13885476Y-13484524D01*
X13895000Y-13455952D01*
X13904524Y-13408333D01*
X13904524Y-13370238D01*
X13895000Y-13322619D01*
X13885476Y-13294048D01*
X13875952Y-13275000D01*
X13856905Y-13246428D01*
X13847381Y-13236905D01*
D10*
X8835000Y-13689000D02*
X8885000Y-13639000D01*
X8835000Y-13589000D01*
X8785000Y-13639000D01*
X8835000Y-13689000D01*
D11*
X9247381Y-13729476D02*
X9133095Y-13729476D01*
X9190238Y-13729476D02*
X9190238Y-13529476D01*
X9171190Y-13558048D01*
X9152143Y-13577095D01*
X9133095Y-13586619D01*
X9333095Y-13710428D02*
X9342619Y-13719952D01*
X9333095Y-13729476D01*
X9323571Y-13719952D01*
X9333095Y-13710428D01*
X9333095Y-13729476D01*
X9466429Y-13529476D02*
X9485476Y-13529476D01*
X9504524Y-13539000D01*
X9514048Y-13548524D01*
X9523571Y-13567571D01*
X9533095Y-13605667D01*
X9533095Y-13653286D01*
X9523571Y-13691381D01*
X9514048Y-13710428D01*
X9504524Y-13719952D01*
X9485476Y-13729476D01*
X9466429Y-13729476D01*
X9447381Y-13719952D01*
X9437857Y-13710428D01*
X9428333Y-13691381D01*
X9418810Y-13653286D01*
X9418810Y-13605667D01*
X9428333Y-13567571D01*
X9437857Y-13548524D01*
X9447381Y-13539000D01*
X9466429Y-13529476D01*
X9656905Y-13529476D02*
X9675952Y-13529476D01*
X9695000Y-13539000D01*
X9704524Y-13548524D01*
X9714048Y-13567571D01*
X9723571Y-13605667D01*
X9723571Y-13653286D01*
X9714048Y-13691381D01*
X9704524Y-13710428D01*
X9695000Y-13719952D01*
X9675952Y-13729476D01*
X9656905Y-13729476D01*
X9637857Y-13719952D01*
X9628333Y-13710428D01*
X9618810Y-13691381D01*
X9609286Y-13653286D01*
X9609286Y-13605667D01*
X9618810Y-13567571D01*
X9628333Y-13548524D01*
X9637857Y-13539000D01*
X9656905Y-13529476D01*
X9847381Y-13529476D02*
X9866429Y-13529476D01*
X9885476Y-13539000D01*
X9895000Y-13548524D01*
X9904524Y-13567571D01*
X9914048Y-13605667D01*
X9914048Y-13653286D01*
X9904524Y-13691381D01*
X9895000Y-13710428D01*
X9885476Y-13719952D01*
X9866429Y-13729476D01*
X9847381Y-13729476D01*
X9828333Y-13719952D01*
X9818810Y-13710428D01*
X9809286Y-13691381D01*
X9799762Y-13653286D01*
X9799762Y-13605667D01*
X9809286Y-13567571D01*
X9818810Y-13548524D01*
X9828333Y-13539000D01*
X9847381Y-13529476D01*
X9999762Y-13729476D02*
X9999762Y-13596143D01*
X9999762Y-13615190D02*
X10009286Y-13605667D01*
X10028333Y-13596143D01*
X10056905Y-13596143D01*
X10075952Y-13605667D01*
X10085476Y-13624714D01*
X10085476Y-13729476D01*
X10085476Y-13624714D02*
X10095000Y-13605667D01*
X10114048Y-13596143D01*
X10142619Y-13596143D01*
X10161667Y-13605667D01*
X10171190Y-13624714D01*
X10171190Y-13729476D01*
X10266429Y-13729476D02*
X10266429Y-13596143D01*
X10266429Y-13615190D02*
X10275952Y-13605667D01*
X10295000Y-13596143D01*
X10323571Y-13596143D01*
X10342619Y-13605667D01*
X10352143Y-13624714D01*
X10352143Y-13729476D01*
X10352143Y-13624714D02*
X10361667Y-13605667D01*
X10380714Y-13596143D01*
X10409286Y-13596143D01*
X10428333Y-13605667D01*
X10437857Y-13624714D01*
X10437857Y-13729476D01*
X10828333Y-13519952D02*
X10656905Y-13777095D01*
X11085476Y-13529476D02*
X11104524Y-13529476D01*
X11123571Y-13539000D01*
X11133095Y-13548524D01*
X11142619Y-13567571D01*
X11152143Y-13605667D01*
X11152143Y-13653286D01*
X11142619Y-13691381D01*
X11133095Y-13710428D01*
X11123571Y-13719952D01*
X11104524Y-13729476D01*
X11085476Y-13729476D01*
X11066429Y-13719952D01*
X11056905Y-13710428D01*
X11047381Y-13691381D01*
X11037857Y-13653286D01*
X11037857Y-13605667D01*
X11047381Y-13567571D01*
X11056905Y-13548524D01*
X11066429Y-13539000D01*
X11085476Y-13529476D01*
X11237857Y-13710428D02*
X11247381Y-13719952D01*
X11237857Y-13729476D01*
X11228333Y-13719952D01*
X11237857Y-13710428D01*
X11237857Y-13729476D01*
X11371190Y-13529476D02*
X11390238Y-13529476D01*
X11409286Y-13539000D01*
X11418809Y-13548524D01*
X11428333Y-13567571D01*
X11437857Y-13605667D01*
X11437857Y-13653286D01*
X11428333Y-13691381D01*
X11418809Y-13710428D01*
X11409286Y-13719952D01*
X11390238Y-13729476D01*
X11371190Y-13729476D01*
X11352143Y-13719952D01*
X11342619Y-13710428D01*
X11333095Y-13691381D01*
X11323571Y-13653286D01*
X11323571Y-13605667D01*
X11333095Y-13567571D01*
X11342619Y-13548524D01*
X11352143Y-13539000D01*
X11371190Y-13529476D01*
X11504524Y-13529476D02*
X11628333Y-13529476D01*
X11561667Y-13605667D01*
X11590238Y-13605667D01*
X11609286Y-13615190D01*
X11618809Y-13624714D01*
X11628333Y-13643762D01*
X11628333Y-13691381D01*
X11618809Y-13710428D01*
X11609286Y-13719952D01*
X11590238Y-13729476D01*
X11533095Y-13729476D01*
X11514048Y-13719952D01*
X11504524Y-13710428D01*
X11723571Y-13729476D02*
X11761667Y-13729476D01*
X11780714Y-13719952D01*
X11790238Y-13710428D01*
X11809286Y-13681857D01*
X11818809Y-13643762D01*
X11818809Y-13567571D01*
X11809286Y-13548524D01*
X11799762Y-13539000D01*
X11780714Y-13529476D01*
X11742619Y-13529476D01*
X11723571Y-13539000D01*
X11714048Y-13548524D01*
X11704524Y-13567571D01*
X11704524Y-13615190D01*
X11714048Y-13634238D01*
X11723571Y-13643762D01*
X11742619Y-13653286D01*
X11780714Y-13653286D01*
X11799762Y-13643762D01*
X11809286Y-13634238D01*
X11818809Y-13615190D01*
X11990238Y-13596143D02*
X11990238Y-13729476D01*
X11942619Y-13519952D02*
X11895000Y-13662809D01*
X12018809Y-13662809D01*
X12085476Y-13529476D02*
X12085476Y-13567571D01*
X12161667Y-13529476D02*
X12161667Y-13567571D01*
X12456905Y-13805667D02*
X12447381Y-13796143D01*
X12428333Y-13767571D01*
X12418809Y-13748524D01*
X12409286Y-13719952D01*
X12399762Y-13672333D01*
X12399762Y-13634238D01*
X12409286Y-13586619D01*
X12418809Y-13558048D01*
X12428333Y-13539000D01*
X12447381Y-13510428D01*
X12456905Y-13500905D01*
X12514048Y-13529476D02*
X12637857Y-13529476D01*
X12571190Y-13605667D01*
X12599762Y-13605667D01*
X12618809Y-13615190D01*
X12628333Y-13624714D01*
X12637857Y-13643762D01*
X12637857Y-13691381D01*
X12628333Y-13710428D01*
X12618809Y-13719952D01*
X12599762Y-13729476D01*
X12542619Y-13729476D01*
X12523571Y-13719952D01*
X12514048Y-13710428D01*
X12809286Y-13529476D02*
X12771190Y-13529476D01*
X12752143Y-13539000D01*
X12742619Y-13548524D01*
X12723571Y-13577095D01*
X12714048Y-13615190D01*
X12714048Y-13691381D01*
X12723571Y-13710428D01*
X12733095Y-13719952D01*
X12752143Y-13729476D01*
X12790238Y-13729476D01*
X12809286Y-13719952D01*
X12818809Y-13710428D01*
X12828333Y-13691381D01*
X12828333Y-13643762D01*
X12818809Y-13624714D01*
X12809286Y-13615190D01*
X12790238Y-13605667D01*
X12752143Y-13605667D01*
X12733095Y-13615190D01*
X12723571Y-13624714D01*
X12714048Y-13643762D01*
X13066428Y-13729476D02*
X13066428Y-13529476D01*
X13152143Y-13729476D02*
X13152143Y-13624714D01*
X13142619Y-13605667D01*
X13123571Y-13596143D01*
X13095000Y-13596143D01*
X13075952Y-13605667D01*
X13066428Y-13615190D01*
X13275952Y-13729476D02*
X13256905Y-13719952D01*
X13247381Y-13710428D01*
X13237857Y-13691381D01*
X13237857Y-13634238D01*
X13247381Y-13615190D01*
X13256905Y-13605667D01*
X13275952Y-13596143D01*
X13304524Y-13596143D01*
X13323571Y-13605667D01*
X13333095Y-13615190D01*
X13342619Y-13634238D01*
X13342619Y-13691381D01*
X13333095Y-13710428D01*
X13323571Y-13719952D01*
X13304524Y-13729476D01*
X13275952Y-13729476D01*
X13456905Y-13729476D02*
X13437857Y-13719952D01*
X13428333Y-13700905D01*
X13428333Y-13529476D01*
X13609286Y-13719952D02*
X13590238Y-13729476D01*
X13552143Y-13729476D01*
X13533095Y-13719952D01*
X13523571Y-13700905D01*
X13523571Y-13624714D01*
X13533095Y-13605667D01*
X13552143Y-13596143D01*
X13590238Y-13596143D01*
X13609286Y-13605667D01*
X13618809Y-13624714D01*
X13618809Y-13643762D01*
X13523571Y-13662809D01*
X13695000Y-13719952D02*
X13714048Y-13729476D01*
X13752143Y-13729476D01*
X13771190Y-13719952D01*
X13780714Y-13700905D01*
X13780714Y-13691381D01*
X13771190Y-13672333D01*
X13752143Y-13662809D01*
X13723571Y-13662809D01*
X13704524Y-13653286D01*
X13695000Y-13634238D01*
X13695000Y-13624714D01*
X13704524Y-13605667D01*
X13723571Y-13596143D01*
X13752143Y-13596143D01*
X13771190Y-13605667D01*
X13847381Y-13805667D02*
X13856905Y-13796143D01*
X13875952Y-13767571D01*
X13885476Y-13748524D01*
X13895000Y-13719952D01*
X13904524Y-13672333D01*
X13904524Y-13634238D01*
X13895000Y-13586619D01*
X13885476Y-13558048D01*
X13875952Y-13539000D01*
X13856905Y-13510428D01*
X13847381Y-13500905D01*
D16*
X8775000Y-13848000D02*
X8885000Y-13958000D01*
X8885000Y-13848000D02*
X8775000Y-13958000D01*
X8885000Y-13903000D02*
G75*
G03*
X8885000Y-13903000I-55000J0D01*
G01*
D11*
X9247381Y-13993476D02*
X9133095Y-13993476D01*
X9190238Y-13993476D02*
X9190238Y-13793476D01*
X9171190Y-13822048D01*
X9152143Y-13841095D01*
X9133095Y-13850619D01*
X9333095Y-13974428D02*
X9342619Y-13983952D01*
X9333095Y-13993476D01*
X9323571Y-13983952D01*
X9333095Y-13974428D01*
X9333095Y-13993476D01*
X9533095Y-13993476D02*
X9418810Y-13993476D01*
X9475952Y-13993476D02*
X9475952Y-13793476D01*
X9456905Y-13822048D01*
X9437857Y-13841095D01*
X9418810Y-13850619D01*
X9656905Y-13793476D02*
X9675952Y-13793476D01*
X9695000Y-13803000D01*
X9704524Y-13812524D01*
X9714048Y-13831571D01*
X9723571Y-13869667D01*
X9723571Y-13917286D01*
X9714048Y-13955381D01*
X9704524Y-13974428D01*
X9695000Y-13983952D01*
X9675952Y-13993476D01*
X9656905Y-13993476D01*
X9637857Y-13983952D01*
X9628333Y-13974428D01*
X9618810Y-13955381D01*
X9609286Y-13917286D01*
X9609286Y-13869667D01*
X9618810Y-13831571D01*
X9628333Y-13812524D01*
X9637857Y-13803000D01*
X9656905Y-13793476D01*
X9847381Y-13793476D02*
X9866429Y-13793476D01*
X9885476Y-13803000D01*
X9895000Y-13812524D01*
X9904524Y-13831571D01*
X9914048Y-13869667D01*
X9914048Y-13917286D01*
X9904524Y-13955381D01*
X9895000Y-13974428D01*
X9885476Y-13983952D01*
X9866429Y-13993476D01*
X9847381Y-13993476D01*
X9828333Y-13983952D01*
X9818810Y-13974428D01*
X9809286Y-13955381D01*
X9799762Y-13917286D01*
X9799762Y-13869667D01*
X9809286Y-13831571D01*
X9818810Y-13812524D01*
X9828333Y-13803000D01*
X9847381Y-13793476D01*
X9999762Y-13993476D02*
X9999762Y-13860143D01*
X9999762Y-13879190D02*
X10009286Y-13869667D01*
X10028333Y-13860143D01*
X10056905Y-13860143D01*
X10075952Y-13869667D01*
X10085476Y-13888714D01*
X10085476Y-13993476D01*
X10085476Y-13888714D02*
X10095000Y-13869667D01*
X10114048Y-13860143D01*
X10142619Y-13860143D01*
X10161667Y-13869667D01*
X10171190Y-13888714D01*
X10171190Y-13993476D01*
X10266429Y-13993476D02*
X10266429Y-13860143D01*
X10266429Y-13879190D02*
X10275952Y-13869667D01*
X10295000Y-13860143D01*
X10323571Y-13860143D01*
X10342619Y-13869667D01*
X10352143Y-13888714D01*
X10352143Y-13993476D01*
X10352143Y-13888714D02*
X10361667Y-13869667D01*
X10380714Y-13860143D01*
X10409286Y-13860143D01*
X10428333Y-13869667D01*
X10437857Y-13888714D01*
X10437857Y-13993476D01*
X10828333Y-13783952D02*
X10656905Y-14041095D01*
X11085476Y-13793476D02*
X11104524Y-13793476D01*
X11123571Y-13803000D01*
X11133095Y-13812524D01*
X11142619Y-13831571D01*
X11152143Y-13869667D01*
X11152143Y-13917286D01*
X11142619Y-13955381D01*
X11133095Y-13974428D01*
X11123571Y-13983952D01*
X11104524Y-13993476D01*
X11085476Y-13993476D01*
X11066429Y-13983952D01*
X11056905Y-13974428D01*
X11047381Y-13955381D01*
X11037857Y-13917286D01*
X11037857Y-13869667D01*
X11047381Y-13831571D01*
X11056905Y-13812524D01*
X11066429Y-13803000D01*
X11085476Y-13793476D01*
X11237857Y-13974428D02*
X11247381Y-13983952D01*
X11237857Y-13993476D01*
X11228333Y-13983952D01*
X11237857Y-13974428D01*
X11237857Y-13993476D01*
X11371190Y-13793476D02*
X11390238Y-13793476D01*
X11409286Y-13803000D01*
X11418809Y-13812524D01*
X11428333Y-13831571D01*
X11437857Y-13869667D01*
X11437857Y-13917286D01*
X11428333Y-13955381D01*
X11418809Y-13974428D01*
X11409286Y-13983952D01*
X11390238Y-13993476D01*
X11371190Y-13993476D01*
X11352143Y-13983952D01*
X11342619Y-13974428D01*
X11333095Y-13955381D01*
X11323571Y-13917286D01*
X11323571Y-13869667D01*
X11333095Y-13831571D01*
X11342619Y-13812524D01*
X11352143Y-13803000D01*
X11371190Y-13793476D01*
X11609286Y-13860143D02*
X11609286Y-13993476D01*
X11561667Y-13783952D02*
X11514048Y-13926809D01*
X11637857Y-13926809D01*
X11695000Y-13793476D02*
X11818809Y-13793476D01*
X11752143Y-13869667D01*
X11780714Y-13869667D01*
X11799762Y-13879190D01*
X11809286Y-13888714D01*
X11818809Y-13907762D01*
X11818809Y-13955381D01*
X11809286Y-13974428D01*
X11799762Y-13983952D01*
X11780714Y-13993476D01*
X11723571Y-13993476D01*
X11704524Y-13983952D01*
X11695000Y-13974428D01*
X11885476Y-13793476D02*
X12009286Y-13793476D01*
X11942619Y-13869667D01*
X11971190Y-13869667D01*
X11990238Y-13879190D01*
X11999762Y-13888714D01*
X12009286Y-13907762D01*
X12009286Y-13955381D01*
X11999762Y-13974428D01*
X11990238Y-13983952D01*
X11971190Y-13993476D01*
X11914048Y-13993476D01*
X11895000Y-13983952D01*
X11885476Y-13974428D01*
X12085476Y-13793476D02*
X12085476Y-13831571D01*
X12161667Y-13793476D02*
X12161667Y-13831571D01*
X12456905Y-14069667D02*
X12447381Y-14060143D01*
X12428333Y-14031571D01*
X12418809Y-14012524D01*
X12409286Y-13983952D01*
X12399762Y-13936333D01*
X12399762Y-13898238D01*
X12409286Y-13850619D01*
X12418809Y-13822048D01*
X12428333Y-13803000D01*
X12447381Y-13774428D01*
X12456905Y-13764905D01*
X12514048Y-13793476D02*
X12647381Y-13793476D01*
X12561667Y-13993476D01*
X12875952Y-13993476D02*
X12875952Y-13793476D01*
X12961667Y-13993476D02*
X12961667Y-13888714D01*
X12952143Y-13869667D01*
X12933095Y-13860143D01*
X12904524Y-13860143D01*
X12885476Y-13869667D01*
X12875952Y-13879190D01*
X13085476Y-13993476D02*
X13066428Y-13983952D01*
X13056905Y-13974428D01*
X13047381Y-13955381D01*
X13047381Y-13898238D01*
X13056905Y-13879190D01*
X13066428Y-13869667D01*
X13085476Y-13860143D01*
X13114048Y-13860143D01*
X13133095Y-13869667D01*
X13142619Y-13879190D01*
X13152143Y-13898238D01*
X13152143Y-13955381D01*
X13142619Y-13974428D01*
X13133095Y-13983952D01*
X13114048Y-13993476D01*
X13085476Y-13993476D01*
X13266428Y-13993476D02*
X13247381Y-13983952D01*
X13237857Y-13964905D01*
X13237857Y-13793476D01*
X13418809Y-13983952D02*
X13399762Y-13993476D01*
X13361667Y-13993476D01*
X13342619Y-13983952D01*
X13333095Y-13964905D01*
X13333095Y-13888714D01*
X13342619Y-13869667D01*
X13361667Y-13860143D01*
X13399762Y-13860143D01*
X13418809Y-13869667D01*
X13428333Y-13888714D01*
X13428333Y-13907762D01*
X13333095Y-13926809D01*
X13504524Y-13983952D02*
X13523571Y-13993476D01*
X13561667Y-13993476D01*
X13580714Y-13983952D01*
X13590238Y-13964905D01*
X13590238Y-13955381D01*
X13580714Y-13936333D01*
X13561667Y-13926809D01*
X13533095Y-13926809D01*
X13514048Y-13917286D01*
X13504524Y-13898238D01*
X13504524Y-13888714D01*
X13514048Y-13869667D01*
X13533095Y-13860143D01*
X13561667Y-13860143D01*
X13580714Y-13869667D01*
X13656905Y-14069667D02*
X13666428Y-14060143D01*
X13685476Y-14031571D01*
X13695000Y-14012524D01*
X13704524Y-13983952D01*
X13714048Y-13936333D01*
X13714048Y-13898238D01*
X13704524Y-13850619D01*
X13695000Y-13822048D01*
X13685476Y-13803000D01*
X13666428Y-13774428D01*
X13656905Y-13764905D01*
D17*
X8755000Y-14102000D02*
X8885000Y-14232000D01*
X8885000Y-14102000D02*
X8755000Y-14232000D01*
X8820000Y-14102000D02*
X8820000Y-14232000D01*
X8755000Y-14167000D02*
X8885000Y-14167000D01*
D11*
X9247381Y-14257476D02*
X9133095Y-14257476D01*
X9190238Y-14257476D02*
X9190238Y-14057476D01*
X9171190Y-14086048D01*
X9152143Y-14105095D01*
X9133095Y-14114619D01*
X9333095Y-14238428D02*
X9342619Y-14247952D01*
X9333095Y-14257476D01*
X9323571Y-14247952D01*
X9333095Y-14238428D01*
X9333095Y-14257476D01*
X9409286Y-14057476D02*
X9533095Y-14057476D01*
X9466429Y-14133667D01*
X9495000Y-14133667D01*
X9514048Y-14143190D01*
X9523571Y-14152714D01*
X9533095Y-14171762D01*
X9533095Y-14219381D01*
X9523571Y-14238428D01*
X9514048Y-14247952D01*
X9495000Y-14257476D01*
X9437857Y-14257476D01*
X9418810Y-14247952D01*
X9409286Y-14238428D01*
X9656905Y-14057476D02*
X9675952Y-14057476D01*
X9695000Y-14067000D01*
X9704524Y-14076524D01*
X9714048Y-14095571D01*
X9723571Y-14133667D01*
X9723571Y-14181286D01*
X9714048Y-14219381D01*
X9704524Y-14238428D01*
X9695000Y-14247952D01*
X9675952Y-14257476D01*
X9656905Y-14257476D01*
X9637857Y-14247952D01*
X9628333Y-14238428D01*
X9618810Y-14219381D01*
X9609286Y-14181286D01*
X9609286Y-14133667D01*
X9618810Y-14095571D01*
X9628333Y-14076524D01*
X9637857Y-14067000D01*
X9656905Y-14057476D01*
X9847381Y-14057476D02*
X9866429Y-14057476D01*
X9885476Y-14067000D01*
X9895000Y-14076524D01*
X9904524Y-14095571D01*
X9914048Y-14133667D01*
X9914048Y-14181286D01*
X9904524Y-14219381D01*
X9895000Y-14238428D01*
X9885476Y-14247952D01*
X9866429Y-14257476D01*
X9847381Y-14257476D01*
X9828333Y-14247952D01*
X9818810Y-14238428D01*
X9809286Y-14219381D01*
X9799762Y-14181286D01*
X9799762Y-14133667D01*
X9809286Y-14095571D01*
X9818810Y-14076524D01*
X9828333Y-14067000D01*
X9847381Y-14057476D01*
X9999762Y-14257476D02*
X9999762Y-14124143D01*
X9999762Y-14143190D02*
X10009286Y-14133667D01*
X10028333Y-14124143D01*
X10056905Y-14124143D01*
X10075952Y-14133667D01*
X10085476Y-14152714D01*
X10085476Y-14257476D01*
X10085476Y-14152714D02*
X10095000Y-14133667D01*
X10114048Y-14124143D01*
X10142619Y-14124143D01*
X10161667Y-14133667D01*
X10171190Y-14152714D01*
X10171190Y-14257476D01*
X10266429Y-14257476D02*
X10266429Y-14124143D01*
X10266429Y-14143190D02*
X10275952Y-14133667D01*
X10295000Y-14124143D01*
X10323571Y-14124143D01*
X10342619Y-14133667D01*
X10352143Y-14152714D01*
X10352143Y-14257476D01*
X10352143Y-14152714D02*
X10361667Y-14133667D01*
X10380714Y-14124143D01*
X10409286Y-14124143D01*
X10428333Y-14133667D01*
X10437857Y-14152714D01*
X10437857Y-14257476D01*
X10828333Y-14047952D02*
X10656905Y-14305095D01*
X11085476Y-14057476D02*
X11104524Y-14057476D01*
X11123571Y-14067000D01*
X11133095Y-14076524D01*
X11142619Y-14095571D01*
X11152143Y-14133667D01*
X11152143Y-14181286D01*
X11142619Y-14219381D01*
X11133095Y-14238428D01*
X11123571Y-14247952D01*
X11104524Y-14257476D01*
X11085476Y-14257476D01*
X11066429Y-14247952D01*
X11056905Y-14238428D01*
X11047381Y-14219381D01*
X11037857Y-14181286D01*
X11037857Y-14133667D01*
X11047381Y-14095571D01*
X11056905Y-14076524D01*
X11066429Y-14067000D01*
X11085476Y-14057476D01*
X11237857Y-14238428D02*
X11247381Y-14247952D01*
X11237857Y-14257476D01*
X11228333Y-14247952D01*
X11237857Y-14238428D01*
X11237857Y-14257476D01*
X11371190Y-14057476D02*
X11390238Y-14057476D01*
X11409286Y-14067000D01*
X11418809Y-14076524D01*
X11428333Y-14095571D01*
X11437857Y-14133667D01*
X11437857Y-14181286D01*
X11428333Y-14219381D01*
X11418809Y-14238428D01*
X11409286Y-14247952D01*
X11390238Y-14257476D01*
X11371190Y-14257476D01*
X11352143Y-14247952D01*
X11342619Y-14238428D01*
X11333095Y-14219381D01*
X11323571Y-14181286D01*
X11323571Y-14133667D01*
X11333095Y-14095571D01*
X11342619Y-14076524D01*
X11352143Y-14067000D01*
X11371190Y-14057476D01*
X11618809Y-14057476D02*
X11523571Y-14057476D01*
X11514048Y-14152714D01*
X11523571Y-14143190D01*
X11542619Y-14133667D01*
X11590238Y-14133667D01*
X11609286Y-14143190D01*
X11618809Y-14152714D01*
X11628333Y-14171762D01*
X11628333Y-14219381D01*
X11618809Y-14238428D01*
X11609286Y-14247952D01*
X11590238Y-14257476D01*
X11542619Y-14257476D01*
X11523571Y-14247952D01*
X11514048Y-14238428D01*
X11818809Y-14257476D02*
X11704524Y-14257476D01*
X11761667Y-14257476D02*
X11761667Y-14057476D01*
X11742619Y-14086048D01*
X11723571Y-14105095D01*
X11704524Y-14114619D01*
X11895000Y-14076524D02*
X11904524Y-14067000D01*
X11923571Y-14057476D01*
X11971190Y-14057476D01*
X11990238Y-14067000D01*
X11999762Y-14076524D01*
X12009286Y-14095571D01*
X12009286Y-14114619D01*
X11999762Y-14143190D01*
X11885476Y-14257476D01*
X12009286Y-14257476D01*
X12085476Y-14057476D02*
X12085476Y-14095571D01*
X12161667Y-14057476D02*
X12161667Y-14095571D01*
X12456905Y-14333667D02*
X12447381Y-14324143D01*
X12428333Y-14295571D01*
X12418809Y-14276524D01*
X12409286Y-14247952D01*
X12399762Y-14200333D01*
X12399762Y-14162238D01*
X12409286Y-14114619D01*
X12418809Y-14086048D01*
X12428333Y-14067000D01*
X12447381Y-14038428D01*
X12456905Y-14028905D01*
X12637857Y-14257476D02*
X12523571Y-14257476D01*
X12580714Y-14257476D02*
X12580714Y-14057476D01*
X12561667Y-14086048D01*
X12542619Y-14105095D01*
X12523571Y-14114619D01*
X12752143Y-14143190D02*
X12733095Y-14133667D01*
X12723571Y-14124143D01*
X12714048Y-14105095D01*
X12714048Y-14095571D01*
X12723571Y-14076524D01*
X12733095Y-14067000D01*
X12752143Y-14057476D01*
X12790238Y-14057476D01*
X12809286Y-14067000D01*
X12818809Y-14076524D01*
X12828333Y-14095571D01*
X12828333Y-14105095D01*
X12818809Y-14124143D01*
X12809286Y-14133667D01*
X12790238Y-14143190D01*
X12752143Y-14143190D01*
X12733095Y-14152714D01*
X12723571Y-14162238D01*
X12714048Y-14181286D01*
X12714048Y-14219381D01*
X12723571Y-14238428D01*
X12733095Y-14247952D01*
X12752143Y-14257476D01*
X12790238Y-14257476D01*
X12809286Y-14247952D01*
X12818809Y-14238428D01*
X12828333Y-14219381D01*
X12828333Y-14181286D01*
X12818809Y-14162238D01*
X12809286Y-14152714D01*
X12790238Y-14143190D01*
X13066428Y-14257476D02*
X13066428Y-14057476D01*
X13152143Y-14257476D02*
X13152143Y-14152714D01*
X13142619Y-14133667D01*
X13123571Y-14124143D01*
X13095000Y-14124143D01*
X13075952Y-14133667D01*
X13066428Y-14143190D01*
X13275952Y-14257476D02*
X13256905Y-14247952D01*
X13247381Y-14238428D01*
X13237857Y-14219381D01*
X13237857Y-14162238D01*
X13247381Y-14143190D01*
X13256905Y-14133667D01*
X13275952Y-14124143D01*
X13304524Y-14124143D01*
X13323571Y-14133667D01*
X13333095Y-14143190D01*
X13342619Y-14162238D01*
X13342619Y-14219381D01*
X13333095Y-14238428D01*
X13323571Y-14247952D01*
X13304524Y-14257476D01*
X13275952Y-14257476D01*
X13456905Y-14257476D02*
X13437857Y-14247952D01*
X13428333Y-14228905D01*
X13428333Y-14057476D01*
X13609286Y-14247952D02*
X13590238Y-14257476D01*
X13552143Y-14257476D01*
X13533095Y-14247952D01*
X13523571Y-14228905D01*
X13523571Y-14152714D01*
X13533095Y-14133667D01*
X13552143Y-14124143D01*
X13590238Y-14124143D01*
X13609286Y-14133667D01*
X13618809Y-14152714D01*
X13618809Y-14171762D01*
X13523571Y-14190809D01*
X13695000Y-14247952D02*
X13714048Y-14257476D01*
X13752143Y-14257476D01*
X13771190Y-14247952D01*
X13780714Y-14228905D01*
X13780714Y-14219381D01*
X13771190Y-14200333D01*
X13752143Y-14190809D01*
X13723571Y-14190809D01*
X13704524Y-14181286D01*
X13695000Y-14162238D01*
X13695000Y-14152714D01*
X13704524Y-14133667D01*
X13723571Y-14124143D01*
X13752143Y-14124143D01*
X13771190Y-14133667D01*
X13847381Y-14333667D02*
X13856905Y-14324143D01*
X13875952Y-14295571D01*
X13885476Y-14276524D01*
X13895000Y-14247952D01*
X13904524Y-14200333D01*
X13904524Y-14162238D01*
X13895000Y-14114619D01*
X13885476Y-14086048D01*
X13875952Y-14067000D01*
X13856905Y-14038428D01*
X13847381Y-14028905D01*
X8685000Y-14331000D02*
X8885000Y-14531000D01*
X8885000Y-14331000D02*
X8685000Y-14531000D01*
X8855711Y-14501711D02*
X8855711Y-14360289D01*
X8714289Y-14360289D01*
X8714289Y-14501711D01*
X8855711Y-14501711D01*
X9133095Y-14340524D02*
X9142619Y-14331000D01*
X9161667Y-14321476D01*
X9209286Y-14321476D01*
X9228333Y-14331000D01*
X9237857Y-14340524D01*
X9247381Y-14359571D01*
X9247381Y-14378619D01*
X9237857Y-14407190D01*
X9123571Y-14521476D01*
X9247381Y-14521476D01*
X9333095Y-14502428D02*
X9342619Y-14511952D01*
X9333095Y-14521476D01*
X9323571Y-14511952D01*
X9333095Y-14502428D01*
X9333095Y-14521476D01*
X9523571Y-14321476D02*
X9428333Y-14321476D01*
X9418810Y-14416714D01*
X9428333Y-14407190D01*
X9447381Y-14397667D01*
X9495000Y-14397667D01*
X9514048Y-14407190D01*
X9523571Y-14416714D01*
X9533095Y-14435762D01*
X9533095Y-14483381D01*
X9523571Y-14502428D01*
X9514048Y-14511952D01*
X9495000Y-14521476D01*
X9447381Y-14521476D01*
X9428333Y-14511952D01*
X9418810Y-14502428D01*
X9656905Y-14321476D02*
X9675952Y-14321476D01*
X9695000Y-14331000D01*
X9704524Y-14340524D01*
X9714048Y-14359571D01*
X9723571Y-14397667D01*
X9723571Y-14445286D01*
X9714048Y-14483381D01*
X9704524Y-14502428D01*
X9695000Y-14511952D01*
X9675952Y-14521476D01*
X9656905Y-14521476D01*
X9637857Y-14511952D01*
X9628333Y-14502428D01*
X9618810Y-14483381D01*
X9609286Y-14445286D01*
X9609286Y-14397667D01*
X9618810Y-14359571D01*
X9628333Y-14340524D01*
X9637857Y-14331000D01*
X9656905Y-14321476D01*
X9847381Y-14321476D02*
X9866429Y-14321476D01*
X9885476Y-14331000D01*
X9895000Y-14340524D01*
X9904524Y-14359571D01*
X9914048Y-14397667D01*
X9914048Y-14445286D01*
X9904524Y-14483381D01*
X9895000Y-14502428D01*
X9885476Y-14511952D01*
X9866429Y-14521476D01*
X9847381Y-14521476D01*
X9828333Y-14511952D01*
X9818810Y-14502428D01*
X9809286Y-14483381D01*
X9799762Y-14445286D01*
X9799762Y-14397667D01*
X9809286Y-14359571D01*
X9818810Y-14340524D01*
X9828333Y-14331000D01*
X9847381Y-14321476D01*
X9999762Y-14521476D02*
X9999762Y-14388143D01*
X9999762Y-14407190D02*
X10009286Y-14397667D01*
X10028333Y-14388143D01*
X10056905Y-14388143D01*
X10075952Y-14397667D01*
X10085476Y-14416714D01*
X10085476Y-14521476D01*
X10085476Y-14416714D02*
X10095000Y-14397667D01*
X10114048Y-14388143D01*
X10142619Y-14388143D01*
X10161667Y-14397667D01*
X10171190Y-14416714D01*
X10171190Y-14521476D01*
X10266429Y-14521476D02*
X10266429Y-14388143D01*
X10266429Y-14407190D02*
X10275952Y-14397667D01*
X10295000Y-14388143D01*
X10323571Y-14388143D01*
X10342619Y-14397667D01*
X10352143Y-14416714D01*
X10352143Y-14521476D01*
X10352143Y-14416714D02*
X10361667Y-14397667D01*
X10380714Y-14388143D01*
X10409286Y-14388143D01*
X10428333Y-14397667D01*
X10437857Y-14416714D01*
X10437857Y-14521476D01*
X10828333Y-14311952D02*
X10656905Y-14569095D01*
X11085476Y-14321476D02*
X11104524Y-14321476D01*
X11123571Y-14331000D01*
X11133095Y-14340524D01*
X11142619Y-14359571D01*
X11152143Y-14397667D01*
X11152143Y-14445286D01*
X11142619Y-14483381D01*
X11133095Y-14502428D01*
X11123571Y-14511952D01*
X11104524Y-14521476D01*
X11085476Y-14521476D01*
X11066429Y-14511952D01*
X11056905Y-14502428D01*
X11047381Y-14483381D01*
X11037857Y-14445286D01*
X11037857Y-14397667D01*
X11047381Y-14359571D01*
X11056905Y-14340524D01*
X11066429Y-14331000D01*
X11085476Y-14321476D01*
X11237857Y-14502428D02*
X11247381Y-14511952D01*
X11237857Y-14521476D01*
X11228333Y-14511952D01*
X11237857Y-14502428D01*
X11237857Y-14521476D01*
X11371190Y-14321476D02*
X11390238Y-14321476D01*
X11409286Y-14331000D01*
X11418809Y-14340524D01*
X11428333Y-14359571D01*
X11437857Y-14397667D01*
X11437857Y-14445286D01*
X11428333Y-14483381D01*
X11418809Y-14502428D01*
X11409286Y-14511952D01*
X11390238Y-14521476D01*
X11371190Y-14521476D01*
X11352143Y-14511952D01*
X11342619Y-14502428D01*
X11333095Y-14483381D01*
X11323571Y-14445286D01*
X11323571Y-14397667D01*
X11333095Y-14359571D01*
X11342619Y-14340524D01*
X11352143Y-14331000D01*
X11371190Y-14321476D01*
X11533095Y-14521476D02*
X11571190Y-14521476D01*
X11590238Y-14511952D01*
X11599762Y-14502428D01*
X11618809Y-14473857D01*
X11628333Y-14435762D01*
X11628333Y-14359571D01*
X11618809Y-14340524D01*
X11609286Y-14331000D01*
X11590238Y-14321476D01*
X11552143Y-14321476D01*
X11533095Y-14331000D01*
X11523571Y-14340524D01*
X11514048Y-14359571D01*
X11514048Y-14407190D01*
X11523571Y-14426238D01*
X11533095Y-14435762D01*
X11552143Y-14445286D01*
X11590238Y-14445286D01*
X11609286Y-14435762D01*
X11618809Y-14426238D01*
X11628333Y-14407190D01*
X11742619Y-14407190D02*
X11723571Y-14397667D01*
X11714048Y-14388143D01*
X11704524Y-14369095D01*
X11704524Y-14359571D01*
X11714048Y-14340524D01*
X11723571Y-14331000D01*
X11742619Y-14321476D01*
X11780714Y-14321476D01*
X11799762Y-14331000D01*
X11809286Y-14340524D01*
X11818809Y-14359571D01*
X11818809Y-14369095D01*
X11809286Y-14388143D01*
X11799762Y-14397667D01*
X11780714Y-14407190D01*
X11742619Y-14407190D01*
X11723571Y-14416714D01*
X11714048Y-14426238D01*
X11704524Y-14445286D01*
X11704524Y-14483381D01*
X11714048Y-14502428D01*
X11723571Y-14511952D01*
X11742619Y-14521476D01*
X11780714Y-14521476D01*
X11799762Y-14511952D01*
X11809286Y-14502428D01*
X11818809Y-14483381D01*
X11818809Y-14445286D01*
X11809286Y-14426238D01*
X11799762Y-14416714D01*
X11780714Y-14407190D01*
X11990238Y-14388143D02*
X11990238Y-14521476D01*
X11942619Y-14311952D02*
X11895000Y-14454809D01*
X12018809Y-14454809D01*
X12085476Y-14321476D02*
X12085476Y-14359571D01*
X12161667Y-14321476D02*
X12161667Y-14359571D01*
X12456905Y-14597667D02*
X12447381Y-14588143D01*
X12428333Y-14559571D01*
X12418809Y-14540524D01*
X12409286Y-14511952D01*
X12399762Y-14464333D01*
X12399762Y-14426238D01*
X12409286Y-14378619D01*
X12418809Y-14350048D01*
X12428333Y-14331000D01*
X12447381Y-14302428D01*
X12456905Y-14292905D01*
X12618809Y-14388143D02*
X12618809Y-14521476D01*
X12571190Y-14311952D02*
X12523571Y-14454809D01*
X12647381Y-14454809D01*
X12875952Y-14521476D02*
X12875952Y-14321476D01*
X12961667Y-14521476D02*
X12961667Y-14416714D01*
X12952143Y-14397667D01*
X12933095Y-14388143D01*
X12904524Y-14388143D01*
X12885476Y-14397667D01*
X12875952Y-14407190D01*
X13085476Y-14521476D02*
X13066428Y-14511952D01*
X13056905Y-14502428D01*
X13047381Y-14483381D01*
X13047381Y-14426238D01*
X13056905Y-14407190D01*
X13066428Y-14397667D01*
X13085476Y-14388143D01*
X13114048Y-14388143D01*
X13133095Y-14397667D01*
X13142619Y-14407190D01*
X13152143Y-14426238D01*
X13152143Y-14483381D01*
X13142619Y-14502428D01*
X13133095Y-14511952D01*
X13114048Y-14521476D01*
X13085476Y-14521476D01*
X13266428Y-14521476D02*
X13247381Y-14511952D01*
X13237857Y-14492905D01*
X13237857Y-14321476D01*
X13418809Y-14511952D02*
X13399762Y-14521476D01*
X13361667Y-14521476D01*
X13342619Y-14511952D01*
X13333095Y-14492905D01*
X13333095Y-14416714D01*
X13342619Y-14397667D01*
X13361667Y-14388143D01*
X13399762Y-14388143D01*
X13418809Y-14397667D01*
X13428333Y-14416714D01*
X13428333Y-14435762D01*
X13333095Y-14454809D01*
X13504524Y-14511952D02*
X13523571Y-14521476D01*
X13561667Y-14521476D01*
X13580714Y-14511952D01*
X13590238Y-14492905D01*
X13590238Y-14483381D01*
X13580714Y-14464333D01*
X13561667Y-14454809D01*
X13533095Y-14454809D01*
X13514048Y-14445286D01*
X13504524Y-14426238D01*
X13504524Y-14416714D01*
X13514048Y-14397667D01*
X13533095Y-14388143D01*
X13561667Y-14388143D01*
X13580714Y-14397667D01*
X13656905Y-14597667D02*
X13666428Y-14588143D01*
X13685476Y-14559571D01*
X13695000Y-14540524D01*
X13704524Y-14511952D01*
X13714048Y-14464333D01*
X13714048Y-14426238D01*
X13704524Y-14378619D01*
X13695000Y-14350048D01*
X13685476Y-14331000D01*
X13666428Y-14302428D01*
X13656905Y-14292905D01*
M02*
