%TF.GenerationSoftware,KiCad,Pcbnew,6.0.11+dfsg-1*%
%TF.CreationDate,2026-01-30T16:23:38+01:00*%
%TF.ProjectId,baliza,62616c69-7a61-42e6-9b69-6361645f7063,rev?*%
%TF.SameCoordinates,Original*%
%TF.FileFunction,Copper,L2,Bot*%
%TF.FilePolarity,Positive*%
%FSLAX46Y46*%
G04 Gerber Fmt 4.6, Leading zero omitted, Abs format (unit mm)*
G04 Created by KiCad (PCBNEW 6.0.11+dfsg-1) date 2026-01-30 16:23:38*
%MOMM*%
%LPD*%
G01*
G04 APERTURE LIST*
%TA.AperFunction,ComponentPad*%
%ADD10R,1.905000X2.000000*%
%TD*%
%TA.AperFunction,ComponentPad*%
%ADD11O,1.905000X2.000000*%
%TD*%
%TA.AperFunction,ComponentPad*%
%ADD12C,0.800000*%
%TD*%
%TA.AperFunction,ComponentPad*%
%ADD13C,5.000000*%
%TD*%
%TA.AperFunction,ComponentPad*%
%ADD14R,1.700000X1.700000*%
%TD*%
%TA.AperFunction,ComponentPad*%
%ADD15O,1.700000X1.700000*%
%TD*%
%TA.AperFunction,ComponentPad*%
%ADD16R,2.500000X2.500000*%
%TD*%
%TA.AperFunction,ComponentPad*%
%ADD17C,2.500000*%
%TD*%
%TA.AperFunction,ComponentPad*%
%ADD18R,1.600000X1.600000*%
%TD*%
%TA.AperFunction,ComponentPad*%
%ADD19C,1.600000*%
%TD*%
%TA.AperFunction,ComponentPad*%
%ADD20O,1.600000X1.600000*%
%TD*%
%TA.AperFunction,ComponentPad*%
%ADD21C,3.000000*%
%TD*%
%TA.AperFunction,ComponentPad*%
%ADD22R,1.500000X1.050000*%
%TD*%
%TA.AperFunction,ComponentPad*%
%ADD23O,1.500000X1.050000*%
%TD*%
%TA.AperFunction,ComponentPad*%
%ADD24C,1.400000*%
%TD*%
%TA.AperFunction,ComponentPad*%
%ADD25O,1.400000X1.400000*%
%TD*%
%TA.AperFunction,ComponentPad*%
%ADD26R,2.200000X2.200000*%
%TD*%
%TA.AperFunction,ComponentPad*%
%ADD27O,2.200000X2.200000*%
%TD*%
G04 APERTURE END LIST*
D10*
%TO.P,U1,1,IN*%
%TO.N,VCC*%
X118110000Y-64445000D03*
D11*
%TO.P,U1,2,GND*%
%TO.N,GND*%
X120650000Y-64445000D03*
%TO.P,U1,3,OUT*%
%TO.N,+5V*%
X123190000Y-64445000D03*
%TD*%
D12*
%TO.P,REF\u002A\u002A,1*%
%TO.N,N/C*%
X161345825Y-55824175D03*
X158145000Y-57150000D03*
X160020000Y-55275000D03*
X160020000Y-59025000D03*
X158694175Y-55824175D03*
X161345825Y-58475825D03*
X158694175Y-58475825D03*
X161895000Y-57150000D03*
D13*
X160020000Y-57150000D03*
%TD*%
D14*
%TO.P,JP1,1,A*%
%TO.N,GND*%
X124460000Y-115570000D03*
D15*
%TO.P,JP1,2,B*%
%TO.N,Net-(A1-Pad13)*%
X124460000Y-113030000D03*
%TD*%
D16*
%TO.P,J2,1,Pin_1*%
%TO.N,PTT_TRANSCEPTOR*%
X97830000Y-114800000D03*
D17*
%TO.P,J2,2,Pin_2*%
%TO.N,GND*%
X102830000Y-114800000D03*
%TD*%
D18*
%TO.P,C4,1*%
%TO.N,+5V*%
X152400000Y-59690000D03*
D19*
%TO.P,C4,2*%
%TO.N,GND*%
X152400000Y-57690000D03*
%TD*%
D12*
%TO.P,REF\u002A\u002A,1*%
%TO.N,N/C*%
X91440000Y-55275000D03*
X91440000Y-59025000D03*
X89565000Y-57150000D03*
X93315000Y-57150000D03*
D13*
X91440000Y-57150000D03*
D12*
X90114175Y-55824175D03*
X92765825Y-58475825D03*
X92765825Y-55824175D03*
X90114175Y-58475825D03*
%TD*%
D18*
%TO.P,C1,1*%
%TO.N,VCC*%
X109220000Y-68580000D03*
D19*
%TO.P,C1,2*%
%TO.N,GND*%
X109220000Y-66580000D03*
%TD*%
D18*
%TO.P,A1,1,D1/TX*%
%TO.N,unconnected-(A1-Pad1)*%
X139700000Y-69850000D03*
D20*
%TO.P,A1,2,D0/RX*%
%TO.N,unconnected-(A1-Pad2)*%
X139700000Y-72390000D03*
%TO.P,A1,3,~{RESET}*%
%TO.N,Net-(A1-Pad3)*%
X139700000Y-74930000D03*
%TO.P,A1,4,GND*%
%TO.N,GND*%
X139700000Y-77470000D03*
%TO.P,A1,5,D2*%
%TO.N,/Rele encendido*%
X139700000Y-80010000D03*
%TO.P,A1,6,D3*%
%TO.N,unconnected-(A1-Pad6)*%
X139700000Y-82550000D03*
%TO.P,A1,7,D4*%
%TO.N,unconnected-(A1-Pad7)*%
X139700000Y-85090000D03*
%TO.P,A1,8,D5*%
%TO.N,unconnected-(A1-Pad8)*%
X139700000Y-87630000D03*
%TO.P,A1,9,D6*%
%TO.N,Net-(A1-Pad9)*%
X139700000Y-90170000D03*
%TO.P,A1,10,D7*%
%TO.N,Net-(A1-Pad10)*%
X139700000Y-92710000D03*
%TO.P,A1,11,D8*%
%TO.N,unconnected-(A1-Pad11)*%
X139700000Y-95250000D03*
%TO.P,A1,12,D9*%
%TO.N,unconnected-(A1-Pad12)*%
X139700000Y-97790000D03*
%TO.P,A1,13,D10*%
%TO.N,Net-(A1-Pad13)*%
X139700000Y-100330000D03*
%TO.P,A1,14,D11*%
%TO.N,Net-(A1-Pad14)*%
X139700000Y-102870000D03*
%TO.P,A1,15,D12*%
%TO.N,Net-(A1-Pad15)*%
X139700000Y-105410000D03*
%TO.P,A1,16,D13*%
%TO.N,unconnected-(A1-Pad16)*%
X154940000Y-105410000D03*
%TO.P,A1,17,3V3*%
%TO.N,unconnected-(A1-Pad17)*%
X154940000Y-102870000D03*
%TO.P,A1,18,AREF*%
%TO.N,unconnected-(A1-Pad18)*%
X154940000Y-100330000D03*
%TO.P,A1,19,A0*%
%TO.N,unconnected-(A1-Pad19)*%
X154940000Y-97790000D03*
%TO.P,A1,20,A1*%
%TO.N,unconnected-(A1-Pad20)*%
X154940000Y-95250000D03*
%TO.P,A1,21,A2*%
%TO.N,unconnected-(A1-Pad21)*%
X154940000Y-92710000D03*
%TO.P,A1,22,A3*%
%TO.N,unconnected-(A1-Pad22)*%
X154940000Y-90170000D03*
%TO.P,A1,23,A4*%
%TO.N,unconnected-(A1-Pad23)*%
X154940000Y-87630000D03*
%TO.P,A1,24,A5*%
%TO.N,unconnected-(A1-Pad24)*%
X154940000Y-85090000D03*
%TO.P,A1,25,A6*%
%TO.N,unconnected-(A1-Pad25)*%
X154940000Y-82550000D03*
%TO.P,A1,26,A7*%
%TO.N,unconnected-(A1-Pad26)*%
X154940000Y-80010000D03*
%TO.P,A1,27,+5V*%
%TO.N,+5V*%
X154940000Y-77470000D03*
%TO.P,A1,28,~{RESET}*%
%TO.N,unconnected-(A1-Pad28)*%
X154940000Y-74930000D03*
%TO.P,A1,29,GND*%
%TO.N,GND*%
X154940000Y-72390000D03*
%TO.P,A1,30,VIN*%
%TO.N,unconnected-(A1-Pad30)*%
X154940000Y-69850000D03*
%TD*%
D19*
%TO.P,C3,1*%
%TO.N,ENTRADA_AUDIO_MIC*%
X129520000Y-96480000D03*
%TO.P,C3,2*%
%TO.N,Net-(A1-Pad9)*%
X129520000Y-91480000D03*
%TD*%
D21*
%TO.P,K2,11*%
%TO.N,VCC*%
X112190000Y-78740000D03*
%TO.P,K2,12*%
%TO.N,unconnected-(K2-Pad12)*%
X97990000Y-84740000D03*
%TO.P,K2,14*%
%TO.N,VCC_13v8_ENTRADA*%
X97990000Y-72740000D03*
%TO.P,K2,A1*%
%TO.N,Net-(D2-Pad2)*%
X110190000Y-72740000D03*
%TO.P,K2,A2*%
%TO.N,+5V*%
X110190000Y-84740000D03*
%TD*%
D22*
%TO.P,Q1,1,E*%
%TO.N,GND*%
X123190000Y-93980000D03*
D23*
%TO.P,Q1,2,B*%
%TO.N,/PTT OUT*%
X123190000Y-92710000D03*
%TO.P,Q1,3,C*%
%TO.N,Net-(D1-Pad2)*%
X123190000Y-91440000D03*
%TD*%
D21*
%TO.P,K1,A2*%
%TO.N,+5V*%
X110190000Y-101250000D03*
%TO.P,K1,A1*%
%TO.N,Net-(D1-Pad2)*%
X110190000Y-89250000D03*
%TO.P,K1,14*%
%TO.N,PTT_TRANSCEPTOR*%
X97990000Y-89250000D03*
%TO.P,K1,12*%
%TO.N,unconnected-(K1-Pad12)*%
X97990000Y-101250000D03*
%TO.P,K1,11*%
%TO.N,GND*%
X112190000Y-95250000D03*
%TD*%
D12*
%TO.P,REF\u002A\u002A,1*%
%TO.N,N/C*%
X92765825Y-116895825D03*
X90114175Y-116895825D03*
X91440000Y-113695000D03*
D13*
X91440000Y-115570000D03*
D12*
X89565000Y-115570000D03*
X92765825Y-114244175D03*
X93315000Y-115570000D03*
X91440000Y-117445000D03*
X90114175Y-114244175D03*
%TD*%
D19*
%TO.P,C2,2*%
%TO.N,GND*%
X123150000Y-68580000D03*
%TO.P,C2,1*%
%TO.N,VCC*%
X118150000Y-68580000D03*
%TD*%
D24*
%TO.P,R1,1*%
%TO.N,Net-(Q2-Pad2)*%
X129540000Y-80010000D03*
D25*
%TO.P,R1,2*%
%TO.N,/Rele encendido*%
X134620000Y-80010000D03*
%TD*%
D19*
%TO.P,C5,1*%
%TO.N,+5V*%
X160020000Y-77430000D03*
%TO.P,C5,2*%
%TO.N,GND*%
X160020000Y-72430000D03*
%TD*%
D14*
%TO.P,JP3,1,A*%
%TO.N,GND*%
X134620000Y-115570000D03*
D15*
%TO.P,JP3,2,B*%
%TO.N,Net-(A1-Pad15)*%
X134620000Y-113030000D03*
%TD*%
D22*
%TO.P,Q2,1,E*%
%TO.N,GND*%
X123190000Y-78740000D03*
D23*
%TO.P,Q2,2,B*%
%TO.N,Net-(Q2-Pad2)*%
X123190000Y-80010000D03*
%TO.P,Q2,3,C*%
%TO.N,Net-(D2-Pad2)*%
X123190000Y-81280000D03*
%TD*%
D26*
%TO.P,D1,1,K*%
%TO.N,+5V*%
X116840000Y-99060000D03*
D27*
%TO.P,D1,2,A*%
%TO.N,Net-(D1-Pad2)*%
X116840000Y-88900000D03*
%TD*%
D12*
%TO.P,REF\u002A\u002A,1*%
%TO.N,N/C*%
X158694175Y-116895825D03*
D13*
X160020000Y-115570000D03*
D12*
X161345825Y-114244175D03*
X160020000Y-113695000D03*
X160020000Y-117445000D03*
X161345825Y-116895825D03*
X158694175Y-114244175D03*
X158145000Y-115570000D03*
X161895000Y-115570000D03*
%TD*%
D27*
%TO.P,D2,2,A*%
%TO.N,Net-(D2-Pad2)*%
X116840000Y-72390000D03*
D26*
%TO.P,D2,1,K*%
%TO.N,+5V*%
X116840000Y-82550000D03*
%TD*%
D16*
%TO.P,J1,1,Pin_1*%
%TO.N,GND*%
X142240000Y-58420000D03*
D17*
%TO.P,J1,2,Pin_2*%
%TO.N,VCC*%
X137240000Y-58420000D03*
%TD*%
D16*
%TO.P,J3,1,Pin_1*%
%TO.N,GND*%
X109260000Y-114800000D03*
D17*
%TO.P,J3,2,Pin_2*%
%TO.N,ENTRADA_AUDIO_MIC*%
X114260000Y-114800000D03*
%TD*%
D14*
%TO.P,JP2,1,A*%
%TO.N,GND*%
X129540000Y-115570000D03*
D15*
%TO.P,JP2,2,B*%
%TO.N,Net-(A1-Pad14)*%
X129540000Y-113030000D03*
%TD*%
D24*
%TO.P,R2,1*%
%TO.N,/PTT OUT*%
X134620000Y-97790000D03*
D25*
%TO.P,R2,2*%
%TO.N,Net-(A1-Pad10)*%
X134620000Y-92710000D03*
%TD*%
D16*
%TO.P,J4,1,Pin_1*%
%TO.N,GND*%
X102870000Y-58420000D03*
D17*
%TO.P,J4,2,Pin_2*%
%TO.N,VCC_13v8_ENTRADA*%
X97870000Y-58420000D03*
%TD*%
M02*
