%TF.GenerationSoftware,KiCad,Pcbnew,6.0.11+dfsg-1*%
%TF.CreationDate,2026-01-30T16:23:38+01:00*%
%TF.ProjectId,baliza,62616c69-7a61-42e6-9b69-6361645f7063,rev?*%
%TF.SameCoordinates,Original*%
%TF.FileFunction,Soldermask,Top*%
%TF.FilePolarity,Negative*%
%FSLAX46Y46*%
G04 Gerber Fmt 4.6, Leading zero omitted, Abs format (unit mm)*
G04 Created by KiCad (PCBNEW 6.0.11+dfsg-1) date 2026-01-30 16:23:38*
%MOMM*%
%LPD*%
G01*
G04 APERTURE LIST*
G04 Aperture macros list*
%AMFreePoly0*
4,1,22,0.500000,-0.750000,0.000000,-0.750000,0.000000,-0.745033,-0.079941,-0.743568,-0.215256,-0.701293,-0.333266,-0.622738,-0.424486,-0.514219,-0.481581,-0.384460,-0.499164,-0.250000,-0.500000,-0.250000,-0.500000,0.250000,-0.499164,0.250000,-0.499963,0.256109,-0.478152,0.396186,-0.417904,0.524511,-0.324060,0.630769,-0.204165,0.706417,-0.067858,0.745374,0.000000,0.744959,0.000000,0.750000,
0.500000,0.750000,0.500000,-0.750000,0.500000,-0.750000,$1*%
%AMFreePoly1*
4,1,20,0.000000,0.744959,0.073905,0.744508,0.209726,0.703889,0.328688,0.626782,0.421226,0.519385,0.479903,0.390333,0.500000,0.250000,0.500000,-0.250000,0.499851,-0.262216,0.476331,-0.402017,0.414519,-0.529596,0.319384,-0.634700,0.198574,-0.708877,0.061801,-0.746166,0.000000,-0.745033,0.000000,-0.750000,-0.500000,-0.750000,-0.500000,0.750000,0.000000,0.750000,0.000000,0.744959,
0.000000,0.744959,$1*%
G04 Aperture macros list end*
%ADD10R,1.905000X2.000000*%
%ADD11O,1.905000X2.000000*%
%ADD12C,0.800000*%
%ADD13C,5.000000*%
%ADD14R,1.700000X1.700000*%
%ADD15O,1.700000X1.700000*%
%ADD16R,2.500000X2.500000*%
%ADD17C,2.500000*%
%ADD18R,1.600000X1.600000*%
%ADD19C,1.600000*%
%ADD20O,1.600000X1.600000*%
%ADD21C,3.000000*%
%ADD22R,1.500000X1.050000*%
%ADD23O,1.500000X1.050000*%
%ADD24C,1.400000*%
%ADD25O,1.400000X1.400000*%
%ADD26R,2.200000X2.200000*%
%ADD27O,2.200000X2.200000*%
%ADD28FreePoly0,270.000000*%
%ADD29FreePoly1,270.000000*%
G04 APERTURE END LIST*
D10*
%TO.C,U1*%
X118110000Y-64445000D03*
D11*
X120650000Y-64445000D03*
X123190000Y-64445000D03*
%TD*%
D12*
%TO.C,REF\u002A\u002A*%
X161345825Y-55824175D03*
X158145000Y-57150000D03*
X160020000Y-55275000D03*
X160020000Y-59025000D03*
X158694175Y-55824175D03*
X161345825Y-58475825D03*
X158694175Y-58475825D03*
X161895000Y-57150000D03*
D13*
X160020000Y-57150000D03*
%TD*%
D14*
%TO.C,JP1*%
X124460000Y-115570000D03*
D15*
X124460000Y-113030000D03*
%TD*%
D16*
%TO.C,J2*%
X97830000Y-114800000D03*
D17*
X102830000Y-114800000D03*
%TD*%
D18*
%TO.C,C4*%
X152400000Y-59690000D03*
D19*
X152400000Y-57690000D03*
%TD*%
D12*
%TO.C,REF\u002A\u002A*%
X91440000Y-55275000D03*
X91440000Y-59025000D03*
X89565000Y-57150000D03*
X93315000Y-57150000D03*
D13*
X91440000Y-57150000D03*
D12*
X90114175Y-55824175D03*
X92765825Y-58475825D03*
X92765825Y-55824175D03*
X90114175Y-58475825D03*
%TD*%
D18*
%TO.C,C1*%
X109220000Y-68580000D03*
D19*
X109220000Y-66580000D03*
%TD*%
D18*
%TO.C,A1*%
X139700000Y-69850000D03*
D20*
X139700000Y-72390000D03*
X139700000Y-74930000D03*
X139700000Y-77470000D03*
X139700000Y-80010000D03*
X139700000Y-82550000D03*
X139700000Y-85090000D03*
X139700000Y-87630000D03*
X139700000Y-90170000D03*
X139700000Y-92710000D03*
X139700000Y-95250000D03*
X139700000Y-97790000D03*
X139700000Y-100330000D03*
X139700000Y-102870000D03*
X139700000Y-105410000D03*
X154940000Y-105410000D03*
X154940000Y-102870000D03*
X154940000Y-100330000D03*
X154940000Y-97790000D03*
X154940000Y-95250000D03*
X154940000Y-92710000D03*
X154940000Y-90170000D03*
X154940000Y-87630000D03*
X154940000Y-85090000D03*
X154940000Y-82550000D03*
X154940000Y-80010000D03*
X154940000Y-77470000D03*
X154940000Y-74930000D03*
X154940000Y-72390000D03*
X154940000Y-69850000D03*
%TD*%
D19*
%TO.C,C3*%
X129520000Y-96480000D03*
X129520000Y-91480000D03*
%TD*%
D21*
%TO.C,K2*%
X112190000Y-78740000D03*
X97990000Y-84740000D03*
X97990000Y-72740000D03*
X110190000Y-72740000D03*
X110190000Y-84740000D03*
%TD*%
D22*
%TO.C,Q1*%
X123190000Y-93980000D03*
D23*
X123190000Y-92710000D03*
X123190000Y-91440000D03*
%TD*%
D21*
%TO.C,K1*%
X110190000Y-101250000D03*
X110190000Y-89250000D03*
X97990000Y-89250000D03*
X97990000Y-101250000D03*
X112190000Y-95250000D03*
%TD*%
D12*
%TO.C,REF\u002A\u002A*%
X92765825Y-116895825D03*
X90114175Y-116895825D03*
X91440000Y-113695000D03*
D13*
X91440000Y-115570000D03*
D12*
X89565000Y-115570000D03*
X92765825Y-114244175D03*
X93315000Y-115570000D03*
X91440000Y-117445000D03*
X90114175Y-114244175D03*
%TD*%
D19*
%TO.C,C2*%
X123150000Y-68580000D03*
X118150000Y-68580000D03*
%TD*%
D24*
%TO.C,R1*%
X129540000Y-80010000D03*
D25*
X134620000Y-80010000D03*
%TD*%
D19*
%TO.C,C5*%
X160020000Y-77430000D03*
X160020000Y-72430000D03*
%TD*%
D14*
%TO.C,JP3*%
X134620000Y-115570000D03*
D15*
X134620000Y-113030000D03*
%TD*%
D22*
%TO.C,Q2*%
X123190000Y-78740000D03*
D23*
X123190000Y-80010000D03*
X123190000Y-81280000D03*
%TD*%
D26*
%TO.C,D1*%
X116840000Y-99060000D03*
D27*
X116840000Y-88900000D03*
%TD*%
D12*
%TO.C,REF\u002A\u002A*%
X158694175Y-116895825D03*
D13*
X160020000Y-115570000D03*
D12*
X161345825Y-114244175D03*
X160020000Y-113695000D03*
X160020000Y-117445000D03*
X161345825Y-116895825D03*
X158694175Y-114244175D03*
X158145000Y-115570000D03*
X161895000Y-115570000D03*
%TD*%
D27*
%TO.C,D2*%
X116840000Y-72390000D03*
D26*
X116840000Y-82550000D03*
%TD*%
D16*
%TO.C,J1*%
X142240000Y-58420000D03*
D17*
X137240000Y-58420000D03*
%TD*%
D28*
%TO.C,JP4*%
X133350000Y-74930000D03*
D29*
X133350000Y-76230000D03*
%TD*%
D16*
%TO.C,J3*%
X109260000Y-114800000D03*
D17*
X114260000Y-114800000D03*
%TD*%
D14*
%TO.C,JP2*%
X129540000Y-115570000D03*
D15*
X129540000Y-113030000D03*
%TD*%
D24*
%TO.C,R2*%
X134620000Y-97790000D03*
D25*
X134620000Y-92710000D03*
%TD*%
D16*
%TO.C,J4*%
X102870000Y-58420000D03*
D17*
X97870000Y-58420000D03*
%TD*%
M02*
