M48
; DRILL file {KiCad 6.0.11+dfsg-1} date sam. 31 janv. 2026 15:54:38
; FORMAT={-:-/ absolute / metric / decimal}
; #@! TF.CreationDate,2026-01-31T15:54:38+01:00
; #@! TF.GenerationSoftware,Kicad,Pcbnew,6.0.11+dfsg-1
; #@! TF.FileFunction,Plated,1,2,PTH
FMAT,2
METRIC
; #@! TA.AperFunction,Plated,PTH,ComponentDrill
T1C0.500
; #@! TA.AperFunction,Plated,PTH,ComponentDrill
T2C0.700
; #@! TA.AperFunction,Plated,PTH,ComponentDrill
T3C0.750
; #@! TA.AperFunction,Plated,PTH,ComponentDrill
T4C0.800
; #@! TA.AperFunction,Plated,PTH,ComponentDrill
T5C0.900
; #@! TA.AperFunction,Plated,PTH,ComponentDrill
T6C1.000
; #@! TA.AperFunction,Plated,PTH,ComponentDrill
T7C1.100
; #@! TA.AperFunction,Plated,PTH,ComponentDrill
T8C1.300
; #@! TA.AperFunction,Plated,PTH,ComponentDrill
T9C2.500
%
G90
G05
T1
X89.565Y-57.15
X89.565Y-115.57
X90.114Y-55.824
X90.114Y-58.476
X90.114Y-114.244
X90.114Y-116.896
X91.44Y-55.275
X91.44Y-59.025
X91.44Y-113.695
X91.44Y-117.445
X92.766Y-55.824
X92.766Y-58.476
X92.766Y-114.244
X92.766Y-116.896
X93.315Y-57.15
X93.315Y-115.57
X158.145Y-57.15
X158.145Y-115.57
X158.694Y-55.824
X158.694Y-58.476
X158.694Y-114.244
X158.694Y-116.896
X160.02Y-55.275
X160.02Y-59.025
X160.02Y-113.695
X160.02Y-117.445
X161.346Y-55.824
X161.346Y-58.476
X161.346Y-114.244
X161.346Y-116.896
X161.895Y-57.15
X161.895Y-115.57
T2
X125.73Y-76.2
X130.81Y-76.2
X131.445Y-85.09
X131.445Y-88.265
X134.62Y-92.71
X134.62Y-97.79
X135.89Y-77.47
X135.89Y-82.55
X136.525Y-85.09
X136.525Y-88.265
T3
X121.92Y-72.39
X121.92Y-73.66
X121.92Y-74.93
X123.19Y-91.44
X123.19Y-92.71
X123.19Y-93.98
T4
X109.22Y-66.58
X109.22Y-68.58
X118.15Y-68.58
X123.15Y-68.58
X124.46Y-58.42
X129.52Y-91.48
X129.52Y-96.48
X132.08Y-58.42
X159.29Y-64.77
X160.02Y-72.43
X160.02Y-77.43
X161.29Y-64.77
T5
X123.19Y-83.18
X123.19Y-85.72
X130.81Y-69.21
X130.81Y-71.75
X130.81Y-79.37
X130.81Y-81.91
T6
X124.46Y-113.03
X124.46Y-115.57
X129.54Y-113.03
X129.54Y-115.57
X134.62Y-113.03
X134.62Y-115.57
X135.89Y-67.945
X135.89Y-70.485
X139.7Y-69.85
X139.7Y-72.39
X139.7Y-74.93
X139.7Y-77.47
X139.7Y-80.01
X139.7Y-82.55
X139.7Y-85.09
X139.7Y-87.63
X139.7Y-90.17
X139.7Y-92.71
X139.7Y-95.25
X139.7Y-97.79
X139.7Y-100.33
X139.7Y-102.87
X139.7Y-105.41
X154.94Y-69.85
X154.94Y-72.39
X154.94Y-74.93
X154.94Y-77.47
X154.94Y-80.01
X154.94Y-82.55
X154.94Y-85.09
X154.94Y-87.63
X154.94Y-90.17
X154.94Y-92.71
X154.94Y-95.25
X154.94Y-97.79
X154.94Y-100.33
X154.94Y-102.87
X154.94Y-105.41
T7
X116.84Y-72.39
X116.84Y-82.55
X116.84Y-88.9
X116.84Y-99.06
X118.11Y-64.445
X120.65Y-64.445
X123.19Y-64.445
T8
X97.83Y-114.8
X97.87Y-58.42
X97.99Y-72.74
X97.99Y-84.74
X97.99Y-89.25
X97.99Y-101.25
X102.83Y-114.8
X102.87Y-58.42
X109.26Y-114.8
X110.19Y-72.74
X110.19Y-84.74
X110.19Y-89.25
X110.19Y-101.25
X112.19Y-78.74
X112.19Y-95.25
X114.26Y-114.8
X137.24Y-58.42
X142.24Y-58.42
T9
X91.44Y-57.15
X91.44Y-115.57
X160.02Y-57.15
X160.02Y-115.57
T0
M30
