M48
; DRILL file {KiCad 6.0.11+dfsg-1} date ven. 30 janv. 2026 16:23:15
; FORMAT={-:-/ absolute / inch / decimal}
; #@! TF.CreationDate,2026-01-30T16:23:15+01:00
; #@! TF.GenerationSoftware,Kicad,Pcbnew,6.0.11+dfsg-1
; #@! TF.FileFunction,Plated,1,2,PTH
FMAT,2
INCH
; #@! TA.AperFunction,Plated,PTH,ComponentDrill
T1C0.0197
; #@! TA.AperFunction,Plated,PTH,ComponentDrill
T2C0.0276
; #@! TA.AperFunction,Plated,PTH,ComponentDrill
T3C0.0295
; #@! TA.AperFunction,Plated,PTH,ComponentDrill
T4C0.0315
; #@! TA.AperFunction,Plated,PTH,ComponentDrill
T5C0.0394
; #@! TA.AperFunction,Plated,PTH,ComponentDrill
T6C0.0433
; #@! TA.AperFunction,Plated,PTH,ComponentDrill
T7C0.0512
; #@! TA.AperFunction,Plated,PTH,ComponentDrill
T8C0.0984
%
G90
G05
T1
X3.5262Y-2.25
X3.5262Y-4.55
X3.5478Y-2.1978
X3.5478Y-2.3022
X3.5478Y-4.4978
X3.5478Y-4.6022
X3.6Y-2.1762
X3.6Y-2.3238
X3.6Y-4.4762
X3.6Y-4.6238
X3.6522Y-2.1978
X3.6522Y-2.3022
X3.6522Y-4.4978
X3.6522Y-4.6022
X3.6738Y-2.25
X3.6738Y-4.55
X6.2262Y-2.25
X6.2262Y-4.55
X6.2478Y-2.1978
X6.2478Y-2.3022
X6.2478Y-4.4978
X6.2478Y-4.6022
X6.3Y-2.1762
X6.3Y-2.3238
X6.3Y-4.4762
X6.3Y-4.6238
X6.3522Y-2.1978
X6.3522Y-2.3022
X6.3522Y-4.4978
X6.3522Y-4.6022
X6.3738Y-2.25
X6.3738Y-4.55
T2
X5.1Y-3.15
X5.3Y-3.15
X5.3Y-3.65
X5.3Y-3.85
T3
X4.85Y-3.1
X4.85Y-3.15
X4.85Y-3.2
X4.85Y-3.6
X4.85Y-3.65
X4.85Y-3.7
T4
X4.3Y-2.6213
X4.3Y-2.7
X4.6516Y-2.7
X4.8484Y-2.7
X5.0992Y-3.6016
X5.0992Y-3.7984
X6.0Y-2.2713
X6.0Y-2.35
X6.3Y-2.8516
X6.3Y-3.0484
T5
X4.9Y-4.45
X4.9Y-4.55
X5.1Y-4.45
X5.1Y-4.55
X5.3Y-4.45
X5.3Y-4.55
X5.5Y-2.75
X5.5Y-2.85
X5.5Y-2.95
X5.5Y-3.05
X5.5Y-3.15
X5.5Y-3.25
X5.5Y-3.35
X5.5Y-3.45
X5.5Y-3.55
X5.5Y-3.65
X5.5Y-3.75
X5.5Y-3.85
X5.5Y-3.95
X5.5Y-4.05
X5.5Y-4.15
X6.1Y-2.75
X6.1Y-2.85
X6.1Y-2.95
X6.1Y-3.05
X6.1Y-3.15
X6.1Y-3.25
X6.1Y-3.35
X6.1Y-3.45
X6.1Y-3.55
X6.1Y-3.65
X6.1Y-3.75
X6.1Y-3.85
X6.1Y-3.95
X6.1Y-4.05
X6.1Y-4.15
T6
X4.6Y-2.85
X4.6Y-3.25
X4.6Y-3.5
X4.6Y-3.9
X4.65Y-2.5372
X4.75Y-2.5372
X4.85Y-2.5372
T7
X3.8516Y-4.5197
X3.8531Y-2.3
X3.8579Y-2.8638
X3.8579Y-3.3362
X3.8579Y-3.5138
X3.8579Y-3.9862
X4.0484Y-4.5197
X4.05Y-2.3
X4.3016Y-4.5197
X4.3382Y-2.8638
X4.3382Y-3.3362
X4.3382Y-3.5138
X4.3382Y-3.9862
X4.4169Y-3.1
X4.4169Y-3.75
X4.4984Y-4.5197
X5.4031Y-2.3
X5.6Y-2.3
T8
X3.6Y-2.25
X3.6Y-4.55
X6.3Y-2.25
X6.3Y-4.55
T0
M30
