%TF.GenerationSoftware,KiCad,Pcbnew,6.0.11+dfsg-1*%
%TF.CreationDate,2026-01-31T15:55:08+01:00*%
%TF.ProjectId,baliza,62616c69-7a61-42e6-9b69-6361645f7063,2*%
%TF.SameCoordinates,Original*%
%TF.FileFunction,Legend,Top*%
%TF.FilePolarity,Positive*%
%FSLAX46Y46*%
G04 Gerber Fmt 4.6, Leading zero omitted, Abs format (unit mm)*
G04 Created by KiCad (PCBNEW 6.0.11+dfsg-1) date 2026-01-31 15:55:08*
%MOMM*%
%LPD*%
G01*
G04 APERTURE LIST*
%ADD10C,0.150000*%
%ADD11C,0.120000*%
G04 APERTURE END LIST*
D10*
X125659047Y-54062380D02*
X125992380Y-55062380D01*
X126325714Y-54062380D01*
X127230476Y-54967142D02*
X127182857Y-55014761D01*
X127040000Y-55062380D01*
X126944761Y-55062380D01*
X126801904Y-55014761D01*
X126706666Y-54919523D01*
X126659047Y-54824285D01*
X126611428Y-54633809D01*
X126611428Y-54490952D01*
X126659047Y-54300476D01*
X126706666Y-54205238D01*
X126801904Y-54110000D01*
X126944761Y-54062380D01*
X127040000Y-54062380D01*
X127182857Y-54110000D01*
X127230476Y-54157619D01*
X128230476Y-54967142D02*
X128182857Y-55014761D01*
X128040000Y-55062380D01*
X127944761Y-55062380D01*
X127801904Y-55014761D01*
X127706666Y-54919523D01*
X127659047Y-54824285D01*
X127611428Y-54633809D01*
X127611428Y-54490952D01*
X127659047Y-54300476D01*
X127706666Y-54205238D01*
X127801904Y-54110000D01*
X127944761Y-54062380D01*
X128040000Y-54062380D01*
X128182857Y-54110000D01*
X128230476Y-54157619D01*
X129420952Y-55062380D02*
X129420952Y-54062380D01*
X129897142Y-55062380D02*
X129897142Y-54062380D01*
X130468571Y-55062380D01*
X130468571Y-54062380D01*
X130944761Y-55062380D02*
X130944761Y-54062380D01*
X131325714Y-54062380D01*
X131420952Y-54110000D01*
X131468571Y-54157619D01*
X131516190Y-54252857D01*
X131516190Y-54395714D01*
X131468571Y-54490952D01*
X131420952Y-54538571D01*
X131325714Y-54586190D01*
X130944761Y-54586190D01*
X131944761Y-54062380D02*
X131944761Y-54871904D01*
X131992380Y-54967142D01*
X132040000Y-55014761D01*
X132135238Y-55062380D01*
X132325714Y-55062380D01*
X132420952Y-55014761D01*
X132468571Y-54967142D01*
X132516190Y-54871904D01*
X132516190Y-54062380D01*
X132849523Y-54062380D02*
X133420952Y-54062380D01*
X133135238Y-55062380D02*
X133135238Y-54062380D01*
X137668095Y-115070000D02*
X137572857Y-115022380D01*
X137430000Y-115022380D01*
X137287142Y-115070000D01*
X137191904Y-115165238D01*
X137144285Y-115260476D01*
X137096666Y-115450952D01*
X137096666Y-115593809D01*
X137144285Y-115784285D01*
X137191904Y-115879523D01*
X137287142Y-115974761D01*
X137430000Y-116022380D01*
X137525238Y-116022380D01*
X137668095Y-115974761D01*
X137715714Y-115927142D01*
X137715714Y-115593809D01*
X137525238Y-115593809D01*
X138144285Y-116022380D02*
X138144285Y-115022380D01*
X138715714Y-116022380D01*
X138715714Y-115022380D01*
X139191904Y-116022380D02*
X139191904Y-115022380D01*
X139430000Y-115022380D01*
X139572857Y-115070000D01*
X139668095Y-115165238D01*
X139715714Y-115260476D01*
X139763333Y-115450952D01*
X139763333Y-115593809D01*
X139715714Y-115784285D01*
X139668095Y-115879523D01*
X139572857Y-115974761D01*
X139430000Y-116022380D01*
X139191904Y-116022380D01*
X94417142Y-67127380D02*
X93845714Y-67127380D01*
X94131428Y-67127380D02*
X94131428Y-66127380D01*
X94036190Y-66270238D01*
X93940952Y-66365476D01*
X93845714Y-66413095D01*
X94750476Y-66127380D02*
X95369523Y-66127380D01*
X95036190Y-66508333D01*
X95179047Y-66508333D01*
X95274285Y-66555952D01*
X95321904Y-66603571D01*
X95369523Y-66698809D01*
X95369523Y-66936904D01*
X95321904Y-67032142D01*
X95274285Y-67079761D01*
X95179047Y-67127380D01*
X94893333Y-67127380D01*
X94798095Y-67079761D01*
X94750476Y-67032142D01*
X95702857Y-66460714D02*
X95940952Y-67127380D01*
X96179047Y-66460714D01*
X96702857Y-66555952D02*
X96607619Y-66508333D01*
X96560000Y-66460714D01*
X96512380Y-66365476D01*
X96512380Y-66317857D01*
X96560000Y-66222619D01*
X96607619Y-66175000D01*
X96702857Y-66127380D01*
X96893333Y-66127380D01*
X96988571Y-66175000D01*
X97036190Y-66222619D01*
X97083809Y-66317857D01*
X97083809Y-66365476D01*
X97036190Y-66460714D01*
X96988571Y-66508333D01*
X96893333Y-66555952D01*
X96702857Y-66555952D01*
X96607619Y-66603571D01*
X96560000Y-66651190D01*
X96512380Y-66746428D01*
X96512380Y-66936904D01*
X96560000Y-67032142D01*
X96607619Y-67079761D01*
X96702857Y-67127380D01*
X96893333Y-67127380D01*
X96988571Y-67079761D01*
X97036190Y-67032142D01*
X97083809Y-66936904D01*
X97083809Y-66746428D01*
X97036190Y-66651190D01*
X96988571Y-66603571D01*
X96893333Y-66555952D01*
X98274285Y-66603571D02*
X98607619Y-66603571D01*
X98750476Y-67127380D02*
X98274285Y-67127380D01*
X98274285Y-66127380D01*
X98750476Y-66127380D01*
X99179047Y-67127380D02*
X99179047Y-66127380D01*
X99750476Y-67127380D01*
X99750476Y-66127380D01*
X100083809Y-66127380D02*
X100655238Y-66127380D01*
X100369523Y-67127380D02*
X100369523Y-66127380D01*
X101560000Y-67127380D02*
X101226666Y-66651190D01*
X100988571Y-67127380D02*
X100988571Y-66127380D01*
X101369523Y-66127380D01*
X101464761Y-66175000D01*
X101512380Y-66222619D01*
X101560000Y-66317857D01*
X101560000Y-66460714D01*
X101512380Y-66555952D01*
X101464761Y-66603571D01*
X101369523Y-66651190D01*
X100988571Y-66651190D01*
X101940952Y-66841666D02*
X102417142Y-66841666D01*
X101845714Y-67127380D02*
X102179047Y-66127380D01*
X102512380Y-67127380D01*
X102845714Y-67127380D02*
X102845714Y-66127380D01*
X103083809Y-66127380D01*
X103226666Y-66175000D01*
X103321904Y-66270238D01*
X103369523Y-66365476D01*
X103417142Y-66555952D01*
X103417142Y-66698809D01*
X103369523Y-66889285D01*
X103321904Y-66984523D01*
X103226666Y-67079761D01*
X103083809Y-67127380D01*
X102845714Y-67127380D01*
X103798095Y-66841666D02*
X104274285Y-66841666D01*
X103702857Y-67127380D02*
X104036190Y-66127380D01*
X104369523Y-67127380D01*
X106553095Y-57920000D02*
X106457857Y-57872380D01*
X106315000Y-57872380D01*
X106172142Y-57920000D01*
X106076904Y-58015238D01*
X106029285Y-58110476D01*
X105981666Y-58300952D01*
X105981666Y-58443809D01*
X106029285Y-58634285D01*
X106076904Y-58729523D01*
X106172142Y-58824761D01*
X106315000Y-58872380D01*
X106410238Y-58872380D01*
X106553095Y-58824761D01*
X106600714Y-58777142D01*
X106600714Y-58443809D01*
X106410238Y-58443809D01*
X107029285Y-58872380D02*
X107029285Y-57872380D01*
X107600714Y-58872380D01*
X107600714Y-57872380D01*
X108076904Y-58872380D02*
X108076904Y-57872380D01*
X108315000Y-57872380D01*
X108457857Y-57920000D01*
X108553095Y-58015238D01*
X108600714Y-58110476D01*
X108648333Y-58300952D01*
X108648333Y-58443809D01*
X108600714Y-58634285D01*
X108553095Y-58729523D01*
X108457857Y-58824761D01*
X108315000Y-58872380D01*
X108076904Y-58872380D01*
X99306190Y-107767380D02*
X99306190Y-106767380D01*
X99687142Y-106767380D01*
X99782380Y-106815000D01*
X99830000Y-106862619D01*
X99877619Y-106957857D01*
X99877619Y-107100714D01*
X99830000Y-107195952D01*
X99782380Y-107243571D01*
X99687142Y-107291190D01*
X99306190Y-107291190D01*
X100163333Y-106767380D02*
X100734761Y-106767380D01*
X100449047Y-107767380D02*
X100449047Y-106767380D01*
X100925238Y-106767380D02*
X101496666Y-106767380D01*
X101210952Y-107767380D02*
X101210952Y-106767380D01*
X162417142Y-109075238D02*
X162512380Y-108789523D01*
X162607619Y-108694285D01*
X162798095Y-108599047D01*
X163083809Y-108599047D01*
X163274285Y-108694285D01*
X163369523Y-108789523D01*
X163464761Y-108980000D01*
X163464761Y-109741904D01*
X161464761Y-109741904D01*
X161464761Y-109075238D01*
X161560000Y-108884761D01*
X161655238Y-108789523D01*
X161845714Y-108694285D01*
X162036190Y-108694285D01*
X162226666Y-108789523D01*
X162321904Y-108884761D01*
X162417142Y-109075238D01*
X162417142Y-109741904D01*
X162893333Y-107837142D02*
X162893333Y-106884761D01*
X163464761Y-108027619D02*
X161464761Y-107360952D01*
X163464761Y-106694285D01*
X163464761Y-105075238D02*
X163464761Y-106027619D01*
X161464761Y-106027619D01*
X163464761Y-104408571D02*
X161464761Y-104408571D01*
X161464761Y-103646666D02*
X161464761Y-102313333D01*
X163464761Y-103646666D01*
X163464761Y-102313333D01*
X162893333Y-101646666D02*
X162893333Y-100694285D01*
X163464761Y-101837142D02*
X161464761Y-101170476D01*
X163464761Y-100503809D01*
X162417142Y-98313333D02*
X162417142Y-97646666D01*
X163464761Y-97360952D02*
X163464761Y-98313333D01*
X161464761Y-98313333D01*
X161464761Y-97360952D01*
X162893333Y-96599047D02*
X162893333Y-95646666D01*
X163464761Y-96789523D02*
X161464761Y-96122857D01*
X163464761Y-95456190D01*
X161464761Y-94980000D02*
X161464761Y-93646666D01*
X163464761Y-94503809D01*
X163464761Y-92884761D02*
X161464761Y-92884761D01*
X162417142Y-92884761D02*
X162417142Y-91741904D01*
X163464761Y-91741904D02*
X161464761Y-91741904D01*
X161560000Y-89741904D02*
X161464761Y-89932380D01*
X161464761Y-90218095D01*
X161560000Y-90503809D01*
X161750476Y-90694285D01*
X161940952Y-90789523D01*
X162321904Y-90884761D01*
X162607619Y-90884761D01*
X162988571Y-90789523D01*
X163179047Y-90694285D01*
X163369523Y-90503809D01*
X163464761Y-90218095D01*
X163464761Y-90027619D01*
X163369523Y-89741904D01*
X163274285Y-89646666D01*
X162607619Y-89646666D01*
X162607619Y-90027619D01*
X162702857Y-88789523D02*
X162702857Y-87265714D01*
X162417142Y-85646666D02*
X162417142Y-86313333D01*
X163464761Y-86313333D02*
X161464761Y-86313333D01*
X161464761Y-85360952D01*
X162131428Y-83741904D02*
X163464761Y-83741904D01*
X161369523Y-84218095D02*
X162798095Y-84694285D01*
X162798095Y-83456190D01*
X163464761Y-81741904D02*
X163464761Y-82694285D01*
X161464761Y-82694285D01*
X162417142Y-81075238D02*
X162417142Y-80408571D01*
X163464761Y-80122857D02*
X163464761Y-81075238D01*
X161464761Y-81075238D01*
X161464761Y-80122857D01*
X163274285Y-78122857D02*
X163369523Y-78218095D01*
X163464761Y-78503809D01*
X163464761Y-78694285D01*
X163369523Y-78980000D01*
X163179047Y-79170476D01*
X162988571Y-79265714D01*
X162607619Y-79360952D01*
X162321904Y-79360952D01*
X161940952Y-79265714D01*
X161750476Y-79170476D01*
X161560000Y-78980000D01*
X161464761Y-78694285D01*
X161464761Y-78503809D01*
X161560000Y-78218095D01*
X161655238Y-78122857D01*
X129706666Y-108116190D02*
X129706666Y-107640000D01*
X129992380Y-108211428D02*
X128992380Y-107878095D01*
X129992380Y-107544761D01*
X129992380Y-107211428D02*
X128992380Y-107211428D01*
X128992380Y-106830476D01*
X129040000Y-106735238D01*
X129087619Y-106687619D01*
X129182857Y-106640000D01*
X129325714Y-106640000D01*
X129420952Y-106687619D01*
X129468571Y-106735238D01*
X129516190Y-106830476D01*
X129516190Y-107211428D01*
X129706666Y-106259047D02*
X129706666Y-105782857D01*
X129992380Y-106354285D02*
X128992380Y-106020952D01*
X129992380Y-105687619D01*
X129040000Y-104830476D02*
X128992380Y-104925714D01*
X128992380Y-105068571D01*
X129040000Y-105211428D01*
X129135238Y-105306666D01*
X129230476Y-105354285D01*
X129420952Y-105401904D01*
X129563809Y-105401904D01*
X129754285Y-105354285D01*
X129849523Y-105306666D01*
X129944761Y-105211428D01*
X129992380Y-105068571D01*
X129992380Y-104973333D01*
X129944761Y-104830476D01*
X129897142Y-104782857D01*
X129563809Y-104782857D01*
X129563809Y-104973333D01*
X129706666Y-104401904D02*
X129706666Y-103925714D01*
X129992380Y-104497142D02*
X128992380Y-104163809D01*
X129992380Y-103830476D01*
X129992380Y-103497142D02*
X128992380Y-103497142D01*
X128992380Y-103259047D01*
X129040000Y-103116190D01*
X129135238Y-103020952D01*
X129230476Y-102973333D01*
X129420952Y-102925714D01*
X129563809Y-102925714D01*
X129754285Y-102973333D01*
X129849523Y-103020952D01*
X129944761Y-103116190D01*
X129992380Y-103259047D01*
X129992380Y-103497142D01*
X128992380Y-102306666D02*
X128992380Y-102116190D01*
X129040000Y-102020952D01*
X129135238Y-101925714D01*
X129325714Y-101878095D01*
X129659047Y-101878095D01*
X129849523Y-101925714D01*
X129944761Y-102020952D01*
X129992380Y-102116190D01*
X129992380Y-102306666D01*
X129944761Y-102401904D01*
X129849523Y-102497142D01*
X129659047Y-102544761D01*
X129325714Y-102544761D01*
X129135238Y-102497142D01*
X129040000Y-102401904D01*
X128992380Y-102306666D01*
X129087619Y-100735238D02*
X129040000Y-100687619D01*
X128992380Y-100592380D01*
X128992380Y-100354285D01*
X129040000Y-100259047D01*
X129087619Y-100211428D01*
X129182857Y-100163809D01*
X129278095Y-100163809D01*
X129420952Y-100211428D01*
X129992380Y-100782857D01*
X129992380Y-100163809D01*
X134437619Y-65857380D02*
X134104285Y-65381190D01*
X133866190Y-65857380D02*
X133866190Y-64857380D01*
X134247142Y-64857380D01*
X134342380Y-64905000D01*
X134390000Y-64952619D01*
X134437619Y-65047857D01*
X134437619Y-65190714D01*
X134390000Y-65285952D01*
X134342380Y-65333571D01*
X134247142Y-65381190D01*
X133866190Y-65381190D01*
X134866190Y-65333571D02*
X135199523Y-65333571D01*
X135342380Y-65857380D02*
X134866190Y-65857380D01*
X134866190Y-64857380D01*
X135342380Y-64857380D01*
X135723333Y-65809761D02*
X135866190Y-65857380D01*
X136104285Y-65857380D01*
X136199523Y-65809761D01*
X136247142Y-65762142D01*
X136294761Y-65666904D01*
X136294761Y-65571666D01*
X136247142Y-65476428D01*
X136199523Y-65428809D01*
X136104285Y-65381190D01*
X135913809Y-65333571D01*
X135818571Y-65285952D01*
X135770952Y-65238333D01*
X135723333Y-65143095D01*
X135723333Y-65047857D01*
X135770952Y-64952619D01*
X135818571Y-64905000D01*
X135913809Y-64857380D01*
X136151904Y-64857380D01*
X136294761Y-64905000D01*
X136723333Y-65333571D02*
X137056666Y-65333571D01*
X137199523Y-65857380D02*
X136723333Y-65857380D01*
X136723333Y-64857380D01*
X137199523Y-64857380D01*
X137485238Y-64857380D02*
X138056666Y-64857380D01*
X137770952Y-65857380D02*
X137770952Y-64857380D01*
X113752380Y-67380952D02*
X114752380Y-67047619D01*
X113752380Y-66714285D01*
X114657142Y-65809523D02*
X114704761Y-65857142D01*
X114752380Y-66000000D01*
X114752380Y-66095238D01*
X114704761Y-66238095D01*
X114609523Y-66333333D01*
X114514285Y-66380952D01*
X114323809Y-66428571D01*
X114180952Y-66428571D01*
X113990476Y-66380952D01*
X113895238Y-66333333D01*
X113800000Y-66238095D01*
X113752380Y-66095238D01*
X113752380Y-66000000D01*
X113800000Y-65857142D01*
X113847619Y-65809523D01*
X114657142Y-64809523D02*
X114704761Y-64857142D01*
X114752380Y-65000000D01*
X114752380Y-65095238D01*
X114704761Y-65238095D01*
X114609523Y-65333333D01*
X114514285Y-65380952D01*
X114323809Y-65428571D01*
X114180952Y-65428571D01*
X113990476Y-65380952D01*
X113895238Y-65333333D01*
X113800000Y-65238095D01*
X113752380Y-65095238D01*
X113752380Y-65000000D01*
X113800000Y-64857142D01*
X113847619Y-64809523D01*
X114752380Y-63619047D02*
X113752380Y-63619047D01*
X114752380Y-63142857D02*
X113752380Y-63142857D01*
X114752380Y-62571428D01*
X113752380Y-62571428D01*
X114752380Y-62095238D02*
X113752380Y-62095238D01*
X113752380Y-61714285D01*
X113800000Y-61619047D01*
X113847619Y-61571428D01*
X113942857Y-61523809D01*
X114085714Y-61523809D01*
X114180952Y-61571428D01*
X114228571Y-61619047D01*
X114276190Y-61714285D01*
X114276190Y-62095238D01*
X113752380Y-61095238D02*
X114561904Y-61095238D01*
X114657142Y-61047619D01*
X114704761Y-61000000D01*
X114752380Y-60904761D01*
X114752380Y-60714285D01*
X114704761Y-60619047D01*
X114657142Y-60571428D01*
X114561904Y-60523809D01*
X113752380Y-60523809D01*
X113752380Y-60190476D02*
X113752380Y-59619047D01*
X114752380Y-59904761D02*
X113752380Y-59904761D01*
X118888095Y-57872380D02*
X119554761Y-57872380D01*
X119126190Y-58872380D01*
X120078571Y-58300952D02*
X119983333Y-58253333D01*
X119935714Y-58205714D01*
X119888095Y-58110476D01*
X119888095Y-58062857D01*
X119935714Y-57967619D01*
X119983333Y-57920000D01*
X120078571Y-57872380D01*
X120269047Y-57872380D01*
X120364285Y-57920000D01*
X120411904Y-57967619D01*
X120459523Y-58062857D01*
X120459523Y-58110476D01*
X120411904Y-58205714D01*
X120364285Y-58253333D01*
X120269047Y-58300952D01*
X120078571Y-58300952D01*
X119983333Y-58348571D01*
X119935714Y-58396190D01*
X119888095Y-58491428D01*
X119888095Y-58681904D01*
X119935714Y-58777142D01*
X119983333Y-58824761D01*
X120078571Y-58872380D01*
X120269047Y-58872380D01*
X120364285Y-58824761D01*
X120411904Y-58777142D01*
X120459523Y-58681904D01*
X120459523Y-58491428D01*
X120411904Y-58396190D01*
X120364285Y-58348571D01*
X120269047Y-58300952D01*
X121078571Y-57872380D02*
X121173809Y-57872380D01*
X121269047Y-57920000D01*
X121316666Y-57967619D01*
X121364285Y-58062857D01*
X121411904Y-58253333D01*
X121411904Y-58491428D01*
X121364285Y-58681904D01*
X121316666Y-58777142D01*
X121269047Y-58824761D01*
X121173809Y-58872380D01*
X121078571Y-58872380D01*
X120983333Y-58824761D01*
X120935714Y-58777142D01*
X120888095Y-58681904D01*
X120840476Y-58491428D01*
X120840476Y-58253333D01*
X120888095Y-58062857D01*
X120935714Y-57967619D01*
X120983333Y-57920000D01*
X121078571Y-57872380D01*
X122316666Y-57872380D02*
X121840476Y-57872380D01*
X121792857Y-58348571D01*
X121840476Y-58300952D01*
X121935714Y-58253333D01*
X122173809Y-58253333D01*
X122269047Y-58300952D01*
X122316666Y-58348571D01*
X122364285Y-58443809D01*
X122364285Y-58681904D01*
X122316666Y-58777142D01*
X122269047Y-58824761D01*
X122173809Y-58872380D01*
X121935714Y-58872380D01*
X121840476Y-58824761D01*
X121792857Y-58777142D01*
X127071428Y-67230238D02*
X127071428Y-66468333D01*
X127452380Y-66849285D02*
X126690476Y-66849285D01*
X126452380Y-65515952D02*
X126452380Y-65992142D01*
X126928571Y-66039761D01*
X126880952Y-65992142D01*
X126833333Y-65896904D01*
X126833333Y-65658809D01*
X126880952Y-65563571D01*
X126928571Y-65515952D01*
X127023809Y-65468333D01*
X127261904Y-65468333D01*
X127357142Y-65515952D01*
X127404761Y-65563571D01*
X127452380Y-65658809D01*
X127452380Y-65896904D01*
X127404761Y-65992142D01*
X127357142Y-66039761D01*
X126452380Y-65182619D02*
X127452380Y-64849285D01*
X126452380Y-64515952D01*
X126452380Y-63230238D02*
X126452380Y-63039761D01*
X126500000Y-62944523D01*
X126595238Y-62849285D01*
X126785714Y-62801666D01*
X127119047Y-62801666D01*
X127309523Y-62849285D01*
X127404761Y-62944523D01*
X127452380Y-63039761D01*
X127452380Y-63230238D01*
X127404761Y-63325476D01*
X127309523Y-63420714D01*
X127119047Y-63468333D01*
X126785714Y-63468333D01*
X126595238Y-63420714D01*
X126500000Y-63325476D01*
X126452380Y-63230238D01*
X126452380Y-62373095D02*
X127261904Y-62373095D01*
X127357142Y-62325476D01*
X127404761Y-62277857D01*
X127452380Y-62182619D01*
X127452380Y-61992142D01*
X127404761Y-61896904D01*
X127357142Y-61849285D01*
X127261904Y-61801666D01*
X126452380Y-61801666D01*
X126452380Y-61468333D02*
X126452380Y-60896904D01*
X127452380Y-61182619D02*
X126452380Y-61182619D01*
X145471190Y-61761666D02*
X145947380Y-61761666D01*
X145375952Y-62047380D02*
X145709285Y-61047380D01*
X146042619Y-62047380D01*
X146852142Y-62047380D02*
X146375952Y-62047380D01*
X146375952Y-61047380D01*
X147185476Y-62047380D02*
X147185476Y-61047380D01*
X147661666Y-62047380D02*
X147661666Y-61047380D01*
X147995000Y-61761666D01*
X148328333Y-61047380D01*
X148328333Y-62047380D01*
X148804523Y-61523571D02*
X149137857Y-61523571D01*
X149280714Y-62047380D02*
X148804523Y-62047380D01*
X148804523Y-61047380D01*
X149280714Y-61047380D01*
X149709285Y-62047380D02*
X149709285Y-61047380D01*
X150280714Y-62047380D01*
X150280714Y-61047380D01*
X150614047Y-61047380D02*
X151185476Y-61047380D01*
X150899761Y-62047380D02*
X150899761Y-61047380D01*
X151471190Y-61761666D02*
X151947380Y-61761666D01*
X151375952Y-62047380D02*
X151709285Y-61047380D01*
X152042619Y-62047380D01*
X152947380Y-61952142D02*
X152899761Y-61999761D01*
X152756904Y-62047380D01*
X152661666Y-62047380D01*
X152518809Y-61999761D01*
X152423571Y-61904523D01*
X152375952Y-61809285D01*
X152328333Y-61618809D01*
X152328333Y-61475952D01*
X152375952Y-61285476D01*
X152423571Y-61190238D01*
X152518809Y-61095000D01*
X152661666Y-61047380D01*
X152756904Y-61047380D01*
X152899761Y-61095000D01*
X152947380Y-61142619D01*
X153375952Y-62047380D02*
X153375952Y-61047380D01*
X154042619Y-61047380D02*
X154233095Y-61047380D01*
X154328333Y-61095000D01*
X154423571Y-61190238D01*
X154471190Y-61380714D01*
X154471190Y-61714047D01*
X154423571Y-61904523D01*
X154328333Y-61999761D01*
X154233095Y-62047380D01*
X154042619Y-62047380D01*
X153947380Y-61999761D01*
X153852142Y-61904523D01*
X153804523Y-61714047D01*
X153804523Y-61380714D01*
X153852142Y-61190238D01*
X153947380Y-61095000D01*
X154042619Y-61047380D01*
X154899761Y-62047380D02*
X154899761Y-61047380D01*
X155471190Y-62047380D01*
X155471190Y-61047380D01*
X104648095Y-108085000D02*
X104552857Y-108037380D01*
X104410000Y-108037380D01*
X104267142Y-108085000D01*
X104171904Y-108180238D01*
X104124285Y-108275476D01*
X104076666Y-108465952D01*
X104076666Y-108608809D01*
X104124285Y-108799285D01*
X104171904Y-108894523D01*
X104267142Y-108989761D01*
X104410000Y-109037380D01*
X104505238Y-109037380D01*
X104648095Y-108989761D01*
X104695714Y-108942142D01*
X104695714Y-108608809D01*
X104505238Y-108608809D01*
X105124285Y-109037380D02*
X105124285Y-108037380D01*
X105695714Y-109037380D01*
X105695714Y-108037380D01*
X106171904Y-109037380D02*
X106171904Y-108037380D01*
X106410000Y-108037380D01*
X106552857Y-108085000D01*
X106648095Y-108180238D01*
X106695714Y-108275476D01*
X106743333Y-108465952D01*
X106743333Y-108608809D01*
X106695714Y-108799285D01*
X106648095Y-108894523D01*
X106552857Y-108989761D01*
X106410000Y-109037380D01*
X106171904Y-109037380D01*
X109736190Y-107481666D02*
X110212380Y-107481666D01*
X109640952Y-107767380D02*
X109974285Y-106767380D01*
X110307619Y-107767380D01*
X110640952Y-106767380D02*
X110640952Y-107576904D01*
X110688571Y-107672142D01*
X110736190Y-107719761D01*
X110831428Y-107767380D01*
X111021904Y-107767380D01*
X111117142Y-107719761D01*
X111164761Y-107672142D01*
X111212380Y-107576904D01*
X111212380Y-106767380D01*
X111688571Y-107767380D02*
X111688571Y-106767380D01*
X111926666Y-106767380D01*
X112069523Y-106815000D01*
X112164761Y-106910238D01*
X112212380Y-107005476D01*
X112260000Y-107195952D01*
X112260000Y-107338809D01*
X112212380Y-107529285D01*
X112164761Y-107624523D01*
X112069523Y-107719761D01*
X111926666Y-107767380D01*
X111688571Y-107767380D01*
X112688571Y-107767380D02*
X112688571Y-106767380D01*
X113355238Y-106767380D02*
X113545714Y-106767380D01*
X113640952Y-106815000D01*
X113736190Y-106910238D01*
X113783809Y-107100714D01*
X113783809Y-107434047D01*
X113736190Y-107624523D01*
X113640952Y-107719761D01*
X113545714Y-107767380D01*
X113355238Y-107767380D01*
X113260000Y-107719761D01*
X113164761Y-107624523D01*
X113117142Y-107434047D01*
X113117142Y-107100714D01*
X113164761Y-106910238D01*
X113260000Y-106815000D01*
X113355238Y-106767380D01*
X124626666Y-108116190D02*
X124626666Y-107640000D01*
X124912380Y-108211428D02*
X123912380Y-107878095D01*
X124912380Y-107544761D01*
X124912380Y-107211428D02*
X123912380Y-107211428D01*
X123912380Y-106830476D01*
X123960000Y-106735238D01*
X124007619Y-106687619D01*
X124102857Y-106640000D01*
X124245714Y-106640000D01*
X124340952Y-106687619D01*
X124388571Y-106735238D01*
X124436190Y-106830476D01*
X124436190Y-107211428D01*
X124626666Y-106259047D02*
X124626666Y-105782857D01*
X124912380Y-106354285D02*
X123912380Y-106020952D01*
X124912380Y-105687619D01*
X123960000Y-104830476D02*
X123912380Y-104925714D01*
X123912380Y-105068571D01*
X123960000Y-105211428D01*
X124055238Y-105306666D01*
X124150476Y-105354285D01*
X124340952Y-105401904D01*
X124483809Y-105401904D01*
X124674285Y-105354285D01*
X124769523Y-105306666D01*
X124864761Y-105211428D01*
X124912380Y-105068571D01*
X124912380Y-104973333D01*
X124864761Y-104830476D01*
X124817142Y-104782857D01*
X124483809Y-104782857D01*
X124483809Y-104973333D01*
X124626666Y-104401904D02*
X124626666Y-103925714D01*
X124912380Y-104497142D02*
X123912380Y-104163809D01*
X124912380Y-103830476D01*
X124912380Y-103497142D02*
X123912380Y-103497142D01*
X123912380Y-103259047D01*
X123960000Y-103116190D01*
X124055238Y-103020952D01*
X124150476Y-102973333D01*
X124340952Y-102925714D01*
X124483809Y-102925714D01*
X124674285Y-102973333D01*
X124769523Y-103020952D01*
X124864761Y-103116190D01*
X124912380Y-103259047D01*
X124912380Y-103497142D01*
X123912380Y-102306666D02*
X123912380Y-102116190D01*
X123960000Y-102020952D01*
X124055238Y-101925714D01*
X124245714Y-101878095D01*
X124579047Y-101878095D01*
X124769523Y-101925714D01*
X124864761Y-102020952D01*
X124912380Y-102116190D01*
X124912380Y-102306666D01*
X124864761Y-102401904D01*
X124769523Y-102497142D01*
X124579047Y-102544761D01*
X124245714Y-102544761D01*
X124055238Y-102497142D01*
X123960000Y-102401904D01*
X123912380Y-102306666D01*
X124912380Y-100163809D02*
X124912380Y-100735238D01*
X124912380Y-100449523D02*
X123912380Y-100449523D01*
X124055238Y-100544761D01*
X124150476Y-100640000D01*
X124198095Y-100735238D01*
X134786666Y-108497142D02*
X134786666Y-108020952D01*
X135072380Y-108592380D02*
X134072380Y-108259047D01*
X135072380Y-107925714D01*
X135072380Y-107592380D02*
X134072380Y-107592380D01*
X134072380Y-107211428D01*
X134120000Y-107116190D01*
X134167619Y-107068571D01*
X134262857Y-107020952D01*
X134405714Y-107020952D01*
X134500952Y-107068571D01*
X134548571Y-107116190D01*
X134596190Y-107211428D01*
X134596190Y-107592380D01*
X134786666Y-106640000D02*
X134786666Y-106163809D01*
X135072380Y-106735238D02*
X134072380Y-106401904D01*
X135072380Y-106068571D01*
X134120000Y-105211428D02*
X134072380Y-105306666D01*
X134072380Y-105449523D01*
X134120000Y-105592380D01*
X134215238Y-105687619D01*
X134310476Y-105735238D01*
X134500952Y-105782857D01*
X134643809Y-105782857D01*
X134834285Y-105735238D01*
X134929523Y-105687619D01*
X135024761Y-105592380D01*
X135072380Y-105449523D01*
X135072380Y-105354285D01*
X135024761Y-105211428D01*
X134977142Y-105163809D01*
X134643809Y-105163809D01*
X134643809Y-105354285D01*
X134786666Y-104782857D02*
X134786666Y-104306666D01*
X135072380Y-104878095D02*
X134072380Y-104544761D01*
X135072380Y-104211428D01*
X135072380Y-103878095D02*
X134072380Y-103878095D01*
X134072380Y-103640000D01*
X134120000Y-103497142D01*
X134215238Y-103401904D01*
X134310476Y-103354285D01*
X134500952Y-103306666D01*
X134643809Y-103306666D01*
X134834285Y-103354285D01*
X134929523Y-103401904D01*
X135024761Y-103497142D01*
X135072380Y-103640000D01*
X135072380Y-103878095D01*
X134072380Y-102687619D02*
X134072380Y-102497142D01*
X134120000Y-102401904D01*
X134215238Y-102306666D01*
X134405714Y-102259047D01*
X134739047Y-102259047D01*
X134929523Y-102306666D01*
X135024761Y-102401904D01*
X135072380Y-102497142D01*
X135072380Y-102687619D01*
X135024761Y-102782857D01*
X134929523Y-102878095D01*
X134739047Y-102925714D01*
X134405714Y-102925714D01*
X134215238Y-102878095D01*
X134120000Y-102782857D01*
X134072380Y-102687619D01*
X134072380Y-100401904D02*
X134072380Y-99782857D01*
X134453333Y-100116190D01*
X134453333Y-99973333D01*
X134500952Y-99878095D01*
X134548571Y-99830476D01*
X134643809Y-99782857D01*
X134881904Y-99782857D01*
X134977142Y-99830476D01*
X135024761Y-99878095D01*
X135072380Y-99973333D01*
X135072380Y-100259047D01*
X135024761Y-100354285D01*
X134977142Y-100401904D01*
X145923095Y-57920000D02*
X145827857Y-57872380D01*
X145685000Y-57872380D01*
X145542142Y-57920000D01*
X145446904Y-58015238D01*
X145399285Y-58110476D01*
X145351666Y-58300952D01*
X145351666Y-58443809D01*
X145399285Y-58634285D01*
X145446904Y-58729523D01*
X145542142Y-58824761D01*
X145685000Y-58872380D01*
X145780238Y-58872380D01*
X145923095Y-58824761D01*
X145970714Y-58777142D01*
X145970714Y-58443809D01*
X145780238Y-58443809D01*
X146399285Y-58872380D02*
X146399285Y-57872380D01*
X146970714Y-58872380D01*
X146970714Y-57872380D01*
X147446904Y-58872380D02*
X147446904Y-57872380D01*
X147685000Y-57872380D01*
X147827857Y-57920000D01*
X147923095Y-58015238D01*
X147970714Y-58110476D01*
X148018333Y-58300952D01*
X148018333Y-58443809D01*
X147970714Y-58634285D01*
X147923095Y-58729523D01*
X147827857Y-58824761D01*
X147685000Y-58872380D01*
X147446904Y-58872380D01*
%TO.C,D4*%
X131976904Y-74747380D02*
X131976904Y-73747380D01*
X132215000Y-73747380D01*
X132357857Y-73795000D01*
X132453095Y-73890238D01*
X132500714Y-73985476D01*
X132548333Y-74175952D01*
X132548333Y-74318809D01*
X132500714Y-74509285D01*
X132453095Y-74604523D01*
X132357857Y-74699761D01*
X132215000Y-74747380D01*
X131976904Y-74747380D01*
X133405476Y-74080714D02*
X133405476Y-74747380D01*
X133167380Y-73699761D02*
X132929285Y-74414047D01*
X133548333Y-74414047D01*
%TO.C,U1*%
X119888095Y-59627380D02*
X119888095Y-60436904D01*
X119935714Y-60532142D01*
X119983333Y-60579761D01*
X120078571Y-60627380D01*
X120269047Y-60627380D01*
X120364285Y-60579761D01*
X120411904Y-60532142D01*
X120459523Y-60436904D01*
X120459523Y-59627380D01*
X121459523Y-60627380D02*
X120888095Y-60627380D01*
X121173809Y-60627380D02*
X121173809Y-59627380D01*
X121078571Y-59770238D01*
X120983333Y-59865476D01*
X120888095Y-59913095D01*
%TO.C,JP1*%
X123626666Y-117352380D02*
X123626666Y-118066666D01*
X123579047Y-118209523D01*
X123483809Y-118304761D01*
X123340952Y-118352380D01*
X123245714Y-118352380D01*
X124102857Y-118352380D02*
X124102857Y-117352380D01*
X124483809Y-117352380D01*
X124579047Y-117400000D01*
X124626666Y-117447619D01*
X124674285Y-117542857D01*
X124674285Y-117685714D01*
X124626666Y-117780952D01*
X124579047Y-117828571D01*
X124483809Y-117876190D01*
X124102857Y-117876190D01*
X125626666Y-118352380D02*
X125055238Y-118352380D01*
X125340952Y-118352380D02*
X125340952Y-117352380D01*
X125245714Y-117495238D01*
X125150476Y-117590476D01*
X125055238Y-117638095D01*
%TO.C,J2*%
X99996666Y-108192380D02*
X99996666Y-108906666D01*
X99949047Y-109049523D01*
X99853809Y-109144761D01*
X99710952Y-109192380D01*
X99615714Y-109192380D01*
X100425238Y-108287619D02*
X100472857Y-108240000D01*
X100568095Y-108192380D01*
X100806190Y-108192380D01*
X100901428Y-108240000D01*
X100949047Y-108287619D01*
X100996666Y-108382857D01*
X100996666Y-108478095D01*
X100949047Y-108620952D01*
X100377619Y-109192380D01*
X100996666Y-109192380D01*
%TO.C,C4*%
X160123333Y-68877142D02*
X160075714Y-68924761D01*
X159932857Y-68972380D01*
X159837619Y-68972380D01*
X159694761Y-68924761D01*
X159599523Y-68829523D01*
X159551904Y-68734285D01*
X159504285Y-68543809D01*
X159504285Y-68400952D01*
X159551904Y-68210476D01*
X159599523Y-68115238D01*
X159694761Y-68020000D01*
X159837619Y-67972380D01*
X159932857Y-67972380D01*
X160075714Y-68020000D01*
X160123333Y-68067619D01*
X160980476Y-68305714D02*
X160980476Y-68972380D01*
X160742380Y-67924761D02*
X160504285Y-68639047D01*
X161123333Y-68639047D01*
%TO.C,C1*%
X109053333Y-63857142D02*
X109005714Y-63904761D01*
X108862857Y-63952380D01*
X108767619Y-63952380D01*
X108624761Y-63904761D01*
X108529523Y-63809523D01*
X108481904Y-63714285D01*
X108434285Y-63523809D01*
X108434285Y-63380952D01*
X108481904Y-63190476D01*
X108529523Y-63095238D01*
X108624761Y-63000000D01*
X108767619Y-62952380D01*
X108862857Y-62952380D01*
X109005714Y-63000000D01*
X109053333Y-63047619D01*
X110005714Y-63952380D02*
X109434285Y-63952380D01*
X109720000Y-63952380D02*
X109720000Y-62952380D01*
X109624761Y-63095238D01*
X109529523Y-63190476D01*
X109434285Y-63238095D01*
%TO.C,A1*%
X146605714Y-64936666D02*
X147081904Y-64936666D01*
X146510476Y-65222380D02*
X146843809Y-64222380D01*
X147177142Y-65222380D01*
X148034285Y-65222380D02*
X147462857Y-65222380D01*
X147748571Y-65222380D02*
X147748571Y-64222380D01*
X147653333Y-64365238D01*
X147558095Y-64460476D01*
X147462857Y-64508095D01*
X146058095Y-104862380D02*
X146058095Y-105671904D01*
X146105714Y-105767142D01*
X146153333Y-105814761D01*
X146248571Y-105862380D01*
X146439047Y-105862380D01*
X146534285Y-105814761D01*
X146581904Y-105767142D01*
X146629523Y-105671904D01*
X146629523Y-104862380D01*
X147058095Y-105814761D02*
X147200952Y-105862380D01*
X147439047Y-105862380D01*
X147534285Y-105814761D01*
X147581904Y-105767142D01*
X147629523Y-105671904D01*
X147629523Y-105576666D01*
X147581904Y-105481428D01*
X147534285Y-105433809D01*
X147439047Y-105386190D01*
X147248571Y-105338571D01*
X147153333Y-105290952D01*
X147105714Y-105243333D01*
X147058095Y-105148095D01*
X147058095Y-105052857D01*
X147105714Y-104957619D01*
X147153333Y-104910000D01*
X147248571Y-104862380D01*
X147486666Y-104862380D01*
X147629523Y-104910000D01*
X148391428Y-105338571D02*
X148534285Y-105386190D01*
X148581904Y-105433809D01*
X148629523Y-105529047D01*
X148629523Y-105671904D01*
X148581904Y-105767142D01*
X148534285Y-105814761D01*
X148439047Y-105862380D01*
X148058095Y-105862380D01*
X148058095Y-104862380D01*
X148391428Y-104862380D01*
X148486666Y-104910000D01*
X148534285Y-104957619D01*
X148581904Y-105052857D01*
X148581904Y-105148095D01*
X148534285Y-105243333D01*
X148486666Y-105290952D01*
X148391428Y-105338571D01*
X148058095Y-105338571D01*
%TO.C,C3*%
X126198333Y-93702142D02*
X126150714Y-93749761D01*
X126007857Y-93797380D01*
X125912619Y-93797380D01*
X125769761Y-93749761D01*
X125674523Y-93654523D01*
X125626904Y-93559285D01*
X125579285Y-93368809D01*
X125579285Y-93225952D01*
X125626904Y-93035476D01*
X125674523Y-92940238D01*
X125769761Y-92845000D01*
X125912619Y-92797380D01*
X126007857Y-92797380D01*
X126150714Y-92845000D01*
X126198333Y-92892619D01*
X126531666Y-92797380D02*
X127150714Y-92797380D01*
X126817380Y-93178333D01*
X126960238Y-93178333D01*
X127055476Y-93225952D01*
X127103095Y-93273571D01*
X127150714Y-93368809D01*
X127150714Y-93606904D01*
X127103095Y-93702142D01*
X127055476Y-93749761D01*
X126960238Y-93797380D01*
X126674523Y-93797380D01*
X126579285Y-93749761D01*
X126531666Y-93702142D01*
%TO.C,D6*%
X122451904Y-81097380D02*
X122451904Y-80097380D01*
X122690000Y-80097380D01*
X122832857Y-80145000D01*
X122928095Y-80240238D01*
X122975714Y-80335476D01*
X123023333Y-80525952D01*
X123023333Y-80668809D01*
X122975714Y-80859285D01*
X122928095Y-80954523D01*
X122832857Y-81049761D01*
X122690000Y-81097380D01*
X122451904Y-81097380D01*
X123880476Y-80097380D02*
X123690000Y-80097380D01*
X123594761Y-80145000D01*
X123547142Y-80192619D01*
X123451904Y-80335476D01*
X123404285Y-80525952D01*
X123404285Y-80906904D01*
X123451904Y-81002142D01*
X123499523Y-81049761D01*
X123594761Y-81097380D01*
X123785238Y-81097380D01*
X123880476Y-81049761D01*
X123928095Y-81002142D01*
X123975714Y-80906904D01*
X123975714Y-80668809D01*
X123928095Y-80573571D01*
X123880476Y-80525952D01*
X123785238Y-80478333D01*
X123594761Y-80478333D01*
X123499523Y-80525952D01*
X123451904Y-80573571D01*
X123404285Y-80668809D01*
%TO.C,K2*%
X103351904Y-69992380D02*
X103351904Y-68992380D01*
X103923333Y-69992380D02*
X103494761Y-69420952D01*
X103923333Y-68992380D02*
X103351904Y-69563809D01*
X104304285Y-69087619D02*
X104351904Y-69040000D01*
X104447142Y-68992380D01*
X104685238Y-68992380D01*
X104780476Y-69040000D01*
X104828095Y-69087619D01*
X104875714Y-69182857D01*
X104875714Y-69278095D01*
X104828095Y-69420952D01*
X104256666Y-69992380D01*
X104875714Y-69992380D01*
%TO.C,Q1*%
X121189761Y-96432619D02*
X121094523Y-96385000D01*
X120999285Y-96289761D01*
X120856428Y-96146904D01*
X120761190Y-96099285D01*
X120665952Y-96099285D01*
X120713571Y-96337380D02*
X120618333Y-96289761D01*
X120523095Y-96194523D01*
X120475476Y-96004047D01*
X120475476Y-95670714D01*
X120523095Y-95480238D01*
X120618333Y-95385000D01*
X120713571Y-95337380D01*
X120904047Y-95337380D01*
X120999285Y-95385000D01*
X121094523Y-95480238D01*
X121142142Y-95670714D01*
X121142142Y-96004047D01*
X121094523Y-96194523D01*
X120999285Y-96289761D01*
X120904047Y-96337380D01*
X120713571Y-96337380D01*
X122094523Y-96337380D02*
X121523095Y-96337380D01*
X121808809Y-96337380D02*
X121808809Y-95337380D01*
X121713571Y-95480238D01*
X121618333Y-95575476D01*
X121523095Y-95623095D01*
%TO.C,R3*%
X135723333Y-76652380D02*
X135390000Y-76176190D01*
X135151904Y-76652380D02*
X135151904Y-75652380D01*
X135532857Y-75652380D01*
X135628095Y-75700000D01*
X135675714Y-75747619D01*
X135723333Y-75842857D01*
X135723333Y-75985714D01*
X135675714Y-76080952D01*
X135628095Y-76128571D01*
X135532857Y-76176190D01*
X135151904Y-76176190D01*
X136056666Y-75652380D02*
X136675714Y-75652380D01*
X136342380Y-76033333D01*
X136485238Y-76033333D01*
X136580476Y-76080952D01*
X136628095Y-76128571D01*
X136675714Y-76223809D01*
X136675714Y-76461904D01*
X136628095Y-76557142D01*
X136580476Y-76604761D01*
X136485238Y-76652380D01*
X136199523Y-76652380D01*
X136104285Y-76604761D01*
X136056666Y-76557142D01*
%TO.C,R5*%
X128738333Y-88717380D02*
X128405000Y-88241190D01*
X128166904Y-88717380D02*
X128166904Y-87717380D01*
X128547857Y-87717380D01*
X128643095Y-87765000D01*
X128690714Y-87812619D01*
X128738333Y-87907857D01*
X128738333Y-88050714D01*
X128690714Y-88145952D01*
X128643095Y-88193571D01*
X128547857Y-88241190D01*
X128166904Y-88241190D01*
X129643095Y-87717380D02*
X129166904Y-87717380D01*
X129119285Y-88193571D01*
X129166904Y-88145952D01*
X129262142Y-88098333D01*
X129500238Y-88098333D01*
X129595476Y-88145952D01*
X129643095Y-88193571D01*
X129690714Y-88288809D01*
X129690714Y-88526904D01*
X129643095Y-88622142D01*
X129595476Y-88669761D01*
X129500238Y-88717380D01*
X129262142Y-88717380D01*
X129166904Y-88669761D01*
X129119285Y-88622142D01*
%TO.C,D3*%
X127531904Y-56752380D02*
X127531904Y-55752380D01*
X127770000Y-55752380D01*
X127912857Y-55800000D01*
X128008095Y-55895238D01*
X128055714Y-55990476D01*
X128103333Y-56180952D01*
X128103333Y-56323809D01*
X128055714Y-56514285D01*
X128008095Y-56609523D01*
X127912857Y-56704761D01*
X127770000Y-56752380D01*
X127531904Y-56752380D01*
X128436666Y-55752380D02*
X129055714Y-55752380D01*
X128722380Y-56133333D01*
X128865238Y-56133333D01*
X128960476Y-56180952D01*
X129008095Y-56228571D01*
X129055714Y-56323809D01*
X129055714Y-56561904D01*
X129008095Y-56657142D01*
X128960476Y-56704761D01*
X128865238Y-56752380D01*
X128579523Y-56752380D01*
X128484285Y-56704761D01*
X128436666Y-56657142D01*
X124198095Y-57072380D02*
X124198095Y-56072380D01*
X124769523Y-57072380D02*
X124340952Y-56500952D01*
X124769523Y-56072380D02*
X124198095Y-56643809D01*
%TO.C,K1*%
X97051904Y-104592380D02*
X97051904Y-103592380D01*
X97623333Y-104592380D02*
X97194761Y-104020952D01*
X97623333Y-103592380D02*
X97051904Y-104163809D01*
X98575714Y-104592380D02*
X98004285Y-104592380D01*
X98290000Y-104592380D02*
X98290000Y-103592380D01*
X98194761Y-103735238D01*
X98099523Y-103830476D01*
X98004285Y-103878095D01*
%TO.C,C2*%
X125563333Y-68937142D02*
X125515714Y-68984761D01*
X125372857Y-69032380D01*
X125277619Y-69032380D01*
X125134761Y-68984761D01*
X125039523Y-68889523D01*
X124991904Y-68794285D01*
X124944285Y-68603809D01*
X124944285Y-68460952D01*
X124991904Y-68270476D01*
X125039523Y-68175238D01*
X125134761Y-68080000D01*
X125277619Y-68032380D01*
X125372857Y-68032380D01*
X125515714Y-68080000D01*
X125563333Y-68127619D01*
X125944285Y-68127619D02*
X125991904Y-68080000D01*
X126087142Y-68032380D01*
X126325238Y-68032380D01*
X126420476Y-68080000D01*
X126468095Y-68127619D01*
X126515714Y-68222857D01*
X126515714Y-68318095D01*
X126468095Y-68460952D01*
X125896666Y-69032380D01*
X126515714Y-69032380D01*
%TO.C,R1*%
X128103333Y-74732380D02*
X127770000Y-74256190D01*
X127531904Y-74732380D02*
X127531904Y-73732380D01*
X127912857Y-73732380D01*
X128008095Y-73780000D01*
X128055714Y-73827619D01*
X128103333Y-73922857D01*
X128103333Y-74065714D01*
X128055714Y-74160952D01*
X128008095Y-74208571D01*
X127912857Y-74256190D01*
X127531904Y-74256190D01*
X129055714Y-74732380D02*
X128484285Y-74732380D01*
X128770000Y-74732380D02*
X128770000Y-73732380D01*
X128674761Y-73875238D01*
X128579523Y-73970476D01*
X128484285Y-74018095D01*
%TO.C,C5*%
X159218333Y-79732142D02*
X159170714Y-79779761D01*
X159027857Y-79827380D01*
X158932619Y-79827380D01*
X158789761Y-79779761D01*
X158694523Y-79684523D01*
X158646904Y-79589285D01*
X158599285Y-79398809D01*
X158599285Y-79255952D01*
X158646904Y-79065476D01*
X158694523Y-78970238D01*
X158789761Y-78875000D01*
X158932619Y-78827380D01*
X159027857Y-78827380D01*
X159170714Y-78875000D01*
X159218333Y-78922619D01*
X160123095Y-78827380D02*
X159646904Y-78827380D01*
X159599285Y-79303571D01*
X159646904Y-79255952D01*
X159742142Y-79208333D01*
X159980238Y-79208333D01*
X160075476Y-79255952D01*
X160123095Y-79303571D01*
X160170714Y-79398809D01*
X160170714Y-79636904D01*
X160123095Y-79732142D01*
X160075476Y-79779761D01*
X159980238Y-79827380D01*
X159742142Y-79827380D01*
X159646904Y-79779761D01*
X159599285Y-79732142D01*
%TO.C,D5*%
X131976904Y-77287380D02*
X131976904Y-76287380D01*
X132215000Y-76287380D01*
X132357857Y-76335000D01*
X132453095Y-76430238D01*
X132500714Y-76525476D01*
X132548333Y-76715952D01*
X132548333Y-76858809D01*
X132500714Y-77049285D01*
X132453095Y-77144523D01*
X132357857Y-77239761D01*
X132215000Y-77287380D01*
X131976904Y-77287380D01*
X133453095Y-76287380D02*
X132976904Y-76287380D01*
X132929285Y-76763571D01*
X132976904Y-76715952D01*
X133072142Y-76668333D01*
X133310238Y-76668333D01*
X133405476Y-76715952D01*
X133453095Y-76763571D01*
X133500714Y-76858809D01*
X133500714Y-77096904D01*
X133453095Y-77192142D01*
X133405476Y-77239761D01*
X133310238Y-77287380D01*
X133072142Y-77287380D01*
X132976904Y-77239761D01*
X132929285Y-77192142D01*
%TO.C,JP3*%
X133786666Y-117352380D02*
X133786666Y-118066666D01*
X133739047Y-118209523D01*
X133643809Y-118304761D01*
X133500952Y-118352380D01*
X133405714Y-118352380D01*
X134262857Y-118352380D02*
X134262857Y-117352380D01*
X134643809Y-117352380D01*
X134739047Y-117400000D01*
X134786666Y-117447619D01*
X134834285Y-117542857D01*
X134834285Y-117685714D01*
X134786666Y-117780952D01*
X134739047Y-117828571D01*
X134643809Y-117876190D01*
X134262857Y-117876190D01*
X135167619Y-117352380D02*
X135786666Y-117352380D01*
X135453333Y-117733333D01*
X135596190Y-117733333D01*
X135691428Y-117780952D01*
X135739047Y-117828571D01*
X135786666Y-117923809D01*
X135786666Y-118161904D01*
X135739047Y-118257142D01*
X135691428Y-118304761D01*
X135596190Y-118352380D01*
X135310476Y-118352380D01*
X135215238Y-118304761D01*
X135167619Y-118257142D01*
%TO.C,Q2*%
X120554761Y-78017619D02*
X120459523Y-77970000D01*
X120364285Y-77874761D01*
X120221428Y-77731904D01*
X120126190Y-77684285D01*
X120030952Y-77684285D01*
X120078571Y-77922380D02*
X119983333Y-77874761D01*
X119888095Y-77779523D01*
X119840476Y-77589047D01*
X119840476Y-77255714D01*
X119888095Y-77065238D01*
X119983333Y-76970000D01*
X120078571Y-76922380D01*
X120269047Y-76922380D01*
X120364285Y-76970000D01*
X120459523Y-77065238D01*
X120507142Y-77255714D01*
X120507142Y-77589047D01*
X120459523Y-77779523D01*
X120364285Y-77874761D01*
X120269047Y-77922380D01*
X120078571Y-77922380D01*
X120888095Y-77017619D02*
X120935714Y-76970000D01*
X121030952Y-76922380D01*
X121269047Y-76922380D01*
X121364285Y-76970000D01*
X121411904Y-77017619D01*
X121459523Y-77112857D01*
X121459523Y-77208095D01*
X121411904Y-77350952D01*
X120840476Y-77922380D01*
X121459523Y-77922380D01*
%TO.C,D1*%
X116101904Y-102052380D02*
X116101904Y-101052380D01*
X116340000Y-101052380D01*
X116482857Y-101100000D01*
X116578095Y-101195238D01*
X116625714Y-101290476D01*
X116673333Y-101480952D01*
X116673333Y-101623809D01*
X116625714Y-101814285D01*
X116578095Y-101909523D01*
X116482857Y-102004761D01*
X116340000Y-102052380D01*
X116101904Y-102052380D01*
X117625714Y-102052380D02*
X117054285Y-102052380D01*
X117340000Y-102052380D02*
X117340000Y-101052380D01*
X117244761Y-101195238D01*
X117149523Y-101290476D01*
X117054285Y-101338095D01*
X119118095Y-99512380D02*
X119118095Y-98512380D01*
X119689523Y-99512380D02*
X119260952Y-98940952D01*
X119689523Y-98512380D02*
X119118095Y-99083809D01*
%TO.C,D2*%
X116101904Y-85542380D02*
X116101904Y-84542380D01*
X116340000Y-84542380D01*
X116482857Y-84590000D01*
X116578095Y-84685238D01*
X116625714Y-84780476D01*
X116673333Y-84970952D01*
X116673333Y-85113809D01*
X116625714Y-85304285D01*
X116578095Y-85399523D01*
X116482857Y-85494761D01*
X116340000Y-85542380D01*
X116101904Y-85542380D01*
X117054285Y-84637619D02*
X117101904Y-84590000D01*
X117197142Y-84542380D01*
X117435238Y-84542380D01*
X117530476Y-84590000D01*
X117578095Y-84637619D01*
X117625714Y-84732857D01*
X117625714Y-84828095D01*
X117578095Y-84970952D01*
X117006666Y-85542380D01*
X117625714Y-85542380D01*
X119118095Y-81732380D02*
X119118095Y-80732380D01*
X119689523Y-81732380D02*
X119260952Y-81160952D01*
X119689523Y-80732380D02*
X119118095Y-81303809D01*
%TO.C,J1*%
X146986666Y-54697380D02*
X146986666Y-55411666D01*
X146939047Y-55554523D01*
X146843809Y-55649761D01*
X146700952Y-55697380D01*
X146605714Y-55697380D01*
X147986666Y-55697380D02*
X147415238Y-55697380D01*
X147700952Y-55697380D02*
X147700952Y-54697380D01*
X147605714Y-54840238D01*
X147510476Y-54935476D01*
X147415238Y-54983095D01*
%TO.C,JP4*%
X135056666Y-72267380D02*
X135056666Y-72981666D01*
X135009047Y-73124523D01*
X134913809Y-73219761D01*
X134770952Y-73267380D01*
X134675714Y-73267380D01*
X135532857Y-73267380D02*
X135532857Y-72267380D01*
X135913809Y-72267380D01*
X136009047Y-72315000D01*
X136056666Y-72362619D01*
X136104285Y-72457857D01*
X136104285Y-72600714D01*
X136056666Y-72695952D01*
X136009047Y-72743571D01*
X135913809Y-72791190D01*
X135532857Y-72791190D01*
X136961428Y-72600714D02*
X136961428Y-73267380D01*
X136723333Y-72219761D02*
X136485238Y-72934047D01*
X137104285Y-72934047D01*
%TO.C,J3*%
X111426666Y-108192380D02*
X111426666Y-108906666D01*
X111379047Y-109049523D01*
X111283809Y-109144761D01*
X111140952Y-109192380D01*
X111045714Y-109192380D01*
X111807619Y-108192380D02*
X112426666Y-108192380D01*
X112093333Y-108573333D01*
X112236190Y-108573333D01*
X112331428Y-108620952D01*
X112379047Y-108668571D01*
X112426666Y-108763809D01*
X112426666Y-109001904D01*
X112379047Y-109097142D01*
X112331428Y-109144761D01*
X112236190Y-109192380D01*
X111950476Y-109192380D01*
X111855238Y-109144761D01*
X111807619Y-109097142D01*
%TO.C,R4*%
X128738333Y-85542380D02*
X128405000Y-85066190D01*
X128166904Y-85542380D02*
X128166904Y-84542380D01*
X128547857Y-84542380D01*
X128643095Y-84590000D01*
X128690714Y-84637619D01*
X128738333Y-84732857D01*
X128738333Y-84875714D01*
X128690714Y-84970952D01*
X128643095Y-85018571D01*
X128547857Y-85066190D01*
X128166904Y-85066190D01*
X129595476Y-84875714D02*
X129595476Y-85542380D01*
X129357380Y-84494761D02*
X129119285Y-85209047D01*
X129738333Y-85209047D01*
%TO.C,JP2*%
X128706666Y-117352380D02*
X128706666Y-118066666D01*
X128659047Y-118209523D01*
X128563809Y-118304761D01*
X128420952Y-118352380D01*
X128325714Y-118352380D01*
X129182857Y-118352380D02*
X129182857Y-117352380D01*
X129563809Y-117352380D01*
X129659047Y-117400000D01*
X129706666Y-117447619D01*
X129754285Y-117542857D01*
X129754285Y-117685714D01*
X129706666Y-117780952D01*
X129659047Y-117828571D01*
X129563809Y-117876190D01*
X129182857Y-117876190D01*
X130135238Y-117447619D02*
X130182857Y-117400000D01*
X130278095Y-117352380D01*
X130516190Y-117352380D01*
X130611428Y-117400000D01*
X130659047Y-117447619D01*
X130706666Y-117542857D01*
X130706666Y-117638095D01*
X130659047Y-117780952D01*
X130087619Y-118352380D01*
X130706666Y-118352380D01*
%TO.C,R2*%
X132533333Y-95702380D02*
X132200000Y-95226190D01*
X131961904Y-95702380D02*
X131961904Y-94702380D01*
X132342857Y-94702380D01*
X132438095Y-94750000D01*
X132485714Y-94797619D01*
X132533333Y-94892857D01*
X132533333Y-95035714D01*
X132485714Y-95130952D01*
X132438095Y-95178571D01*
X132342857Y-95226190D01*
X131961904Y-95226190D01*
X132914285Y-94797619D02*
X132961904Y-94750000D01*
X133057142Y-94702380D01*
X133295238Y-94702380D01*
X133390476Y-94750000D01*
X133438095Y-94797619D01*
X133485714Y-94892857D01*
X133485714Y-94988095D01*
X133438095Y-95130952D01*
X132866666Y-95702380D01*
X133485714Y-95702380D01*
%TO.C,J4*%
X100036666Y-63932380D02*
X100036666Y-64646666D01*
X99989047Y-64789523D01*
X99893809Y-64884761D01*
X99750952Y-64932380D01*
X99655714Y-64932380D01*
X100941428Y-64265714D02*
X100941428Y-64932380D01*
X100703333Y-63884761D02*
X100465238Y-64599047D01*
X101084285Y-64599047D01*
D11*
%TO.C,D4*%
X132355000Y-67920000D02*
X129265000Y-67920000D01*
X130809538Y-73470000D02*
G75*
G03*
X132354830Y-67920000I462J2990000D01*
G01*
X129265170Y-67920000D02*
G75*
G03*
X130810462Y-73470000I1544830J-2560000D01*
G01*
X133310000Y-70480000D02*
G75*
G03*
X133310000Y-70480000I-2500000J0D01*
G01*
%TO.C,U1*%
X125770000Y-61175000D02*
X125770000Y-65816000D01*
X115530000Y-61175000D02*
X125770000Y-61175000D01*
X115530000Y-61175000D02*
X115530000Y-65816000D01*
X115530000Y-65816000D02*
X125770000Y-65816000D01*
X122501000Y-61175000D02*
X122501000Y-62685000D01*
X115530000Y-62685000D02*
X125770000Y-62685000D01*
X118800000Y-61175000D02*
X118800000Y-62685000D01*
%TO.C,JP1*%
X125790000Y-111700000D02*
X123130000Y-111700000D01*
X125790000Y-114300000D02*
X123130000Y-114300000D01*
X125790000Y-114300000D02*
X125790000Y-111700000D01*
X125790000Y-116900000D02*
X124460000Y-116900000D01*
X125790000Y-115570000D02*
X125790000Y-116900000D01*
X123130000Y-114300000D02*
X123130000Y-111700000D01*
%TO.C,J2*%
X95270000Y-118860000D02*
X105390000Y-118860000D01*
X105390000Y-109740000D02*
X105390000Y-118860000D01*
X103900000Y-113525000D02*
X103841000Y-113584000D01*
X104105000Y-113731000D02*
X104011000Y-113824000D01*
X95030000Y-117360000D02*
X95030000Y-119100000D01*
X101820000Y-116016000D02*
X101761000Y-116074000D01*
X95030000Y-119100000D02*
X96530000Y-119100000D01*
X95270000Y-117300000D02*
X105390000Y-117300000D01*
X101650000Y-115776000D02*
X101556000Y-115869000D01*
X95270000Y-109740000D02*
X105390000Y-109740000D01*
X95270000Y-109740000D02*
X95270000Y-118860000D01*
X97041000Y-116284000D02*
G75*
G03*
X97859383Y-116480450I788998J1483995D01*
G01*
X96346000Y-114011000D02*
G75*
G03*
X96346047Y-115589089I1483995J-789000D01*
G01*
X97830000Y-116480000D02*
G75*
G03*
X98618712Y-116283352I0J1680000D01*
G01*
X99314001Y-115589000D02*
G75*
G03*
X99313953Y-114010911I-1484001J789000D01*
G01*
X98619000Y-113316000D02*
G75*
G03*
X97040911Y-113316047I-789000J-1483995D01*
G01*
X104510000Y-114800000D02*
G75*
G03*
X104510000Y-114800000I-1680000J0D01*
G01*
X103730000Y-111800000D02*
G75*
G03*
X103730000Y-111800000I-900000J0D01*
G01*
X98730000Y-111800000D02*
G75*
G03*
X98730000Y-111800000I-900000J0D01*
G01*
%TO.C,C4*%
X159930000Y-67326000D02*
X159930000Y-65810000D01*
X159610000Y-63730000D02*
X159610000Y-62279000D01*
X159529000Y-63730000D02*
X159529000Y-62302000D01*
X159529000Y-67238000D02*
X159529000Y-65810000D01*
X158889000Y-63730000D02*
X158889000Y-62595000D01*
X158569000Y-63730000D02*
X158569000Y-62833000D01*
X158249000Y-66375000D02*
X158249000Y-63165000D01*
X159850000Y-63730000D02*
X159850000Y-62227000D01*
X158449000Y-66596000D02*
X158449000Y-65810000D01*
X158849000Y-66919000D02*
X158849000Y-65810000D01*
X159369000Y-67184000D02*
X159369000Y-65810000D01*
X160130000Y-67346000D02*
X160130000Y-65810000D01*
X158289000Y-63730000D02*
X158289000Y-63117000D01*
X157769000Y-65447000D02*
X157769000Y-64093000D01*
X158769000Y-63730000D02*
X158769000Y-62675000D01*
X162844775Y-66495000D02*
X162844775Y-65995000D01*
X163094775Y-66245000D02*
X162594775Y-66245000D01*
X158449000Y-63730000D02*
X158449000Y-62944000D01*
X160050000Y-63730000D02*
X160050000Y-62201000D01*
X158009000Y-66021000D02*
X158009000Y-63519000D01*
X159209000Y-63730000D02*
X159209000Y-62422000D01*
X159209000Y-67118000D02*
X159209000Y-65810000D01*
X159730000Y-67290000D02*
X159730000Y-65810000D01*
X158729000Y-66835000D02*
X158729000Y-65810000D01*
X158769000Y-66865000D02*
X158769000Y-65810000D01*
X159049000Y-63730000D02*
X159049000Y-62502000D01*
X159970000Y-67331000D02*
X159970000Y-65810000D01*
X160010000Y-63730000D02*
X160010000Y-62205000D01*
X158529000Y-66671000D02*
X158529000Y-65810000D01*
X159409000Y-67198000D02*
X159409000Y-65810000D01*
X159569000Y-63730000D02*
X159569000Y-62290000D01*
X158329000Y-66469000D02*
X158329000Y-65810000D01*
X159249000Y-67135000D02*
X159249000Y-65810000D01*
X158609000Y-66741000D02*
X158609000Y-65810000D01*
X159650000Y-67271000D02*
X159650000Y-65810000D01*
X159009000Y-63730000D02*
X159009000Y-62523000D01*
X158889000Y-66945000D02*
X158889000Y-65810000D01*
X159610000Y-67261000D02*
X159610000Y-65810000D01*
X159930000Y-63730000D02*
X159930000Y-62214000D01*
X157849000Y-65685000D02*
X157849000Y-63855000D01*
X160250000Y-63730000D02*
X160250000Y-62190000D01*
X158809000Y-66892000D02*
X158809000Y-65810000D01*
X160170000Y-63730000D02*
X160170000Y-62192000D01*
X158809000Y-63730000D02*
X158809000Y-62648000D01*
X159409000Y-63730000D02*
X159409000Y-62342000D01*
X160130000Y-63730000D02*
X160130000Y-62194000D01*
X159449000Y-67212000D02*
X159449000Y-65810000D01*
X158329000Y-63730000D02*
X158329000Y-63071000D01*
X158729000Y-63730000D02*
X158729000Y-62705000D01*
X158129000Y-66213000D02*
X158129000Y-63327000D01*
X158929000Y-66970000D02*
X158929000Y-65810000D01*
X159129000Y-67080000D02*
X159129000Y-65810000D01*
X159449000Y-63730000D02*
X159449000Y-62328000D01*
X159770000Y-63730000D02*
X159770000Y-62242000D01*
X159049000Y-67038000D02*
X159049000Y-65810000D01*
X158649000Y-63730000D02*
X158649000Y-62766000D01*
X157809000Y-65575000D02*
X157809000Y-63965000D01*
X158049000Y-66089000D02*
X158049000Y-63451000D01*
X159129000Y-63730000D02*
X159129000Y-62460000D01*
X158849000Y-63730000D02*
X158849000Y-62621000D01*
X157929000Y-65868000D02*
X157929000Y-63672000D01*
X159289000Y-67152000D02*
X159289000Y-65810000D01*
X159690000Y-67281000D02*
X159690000Y-65810000D01*
X159810000Y-67306000D02*
X159810000Y-65810000D01*
X160210000Y-63730000D02*
X160210000Y-62191000D01*
X159970000Y-63730000D02*
X159970000Y-62209000D01*
X158409000Y-63730000D02*
X158409000Y-62985000D01*
X158209000Y-66324000D02*
X158209000Y-63216000D01*
X159009000Y-67017000D02*
X159009000Y-65810000D01*
X160090000Y-63730000D02*
X160090000Y-62197000D01*
X158489000Y-63730000D02*
X158489000Y-62906000D01*
X158409000Y-66555000D02*
X158409000Y-65810000D01*
X159329000Y-67168000D02*
X159329000Y-65810000D01*
X157729000Y-65288000D02*
X157729000Y-64252000D01*
X159169000Y-67099000D02*
X159169000Y-65810000D01*
X158369000Y-63730000D02*
X158369000Y-63027000D01*
X159169000Y-63730000D02*
X159169000Y-62441000D01*
X159329000Y-63730000D02*
X159329000Y-62372000D01*
X158689000Y-63730000D02*
X158689000Y-62735000D01*
X158289000Y-66423000D02*
X158289000Y-65810000D01*
X159690000Y-63730000D02*
X159690000Y-62259000D01*
X159890000Y-63730000D02*
X159890000Y-62220000D01*
X157889000Y-65781000D02*
X157889000Y-63759000D01*
X158369000Y-66513000D02*
X158369000Y-65810000D01*
X159489000Y-67225000D02*
X159489000Y-65810000D01*
X159489000Y-63730000D02*
X159489000Y-62315000D01*
X158649000Y-66774000D02*
X158649000Y-65810000D01*
X159569000Y-67250000D02*
X159569000Y-65810000D01*
X158169000Y-66270000D02*
X158169000Y-63270000D01*
X158089000Y-66153000D02*
X158089000Y-63387000D01*
X159650000Y-63730000D02*
X159650000Y-62269000D01*
X157689000Y-65054000D02*
X157689000Y-64486000D01*
X159289000Y-63730000D02*
X159289000Y-62388000D01*
X160290000Y-63730000D02*
X160290000Y-62190000D01*
X158529000Y-63730000D02*
X158529000Y-62869000D01*
X158489000Y-66634000D02*
X158489000Y-65810000D01*
X157969000Y-65948000D02*
X157969000Y-63592000D01*
X158609000Y-63730000D02*
X158609000Y-62799000D01*
X159890000Y-67320000D02*
X159890000Y-65810000D01*
X160050000Y-67339000D02*
X160050000Y-65810000D01*
X160010000Y-67335000D02*
X160010000Y-65810000D01*
X160090000Y-67343000D02*
X160090000Y-65810000D01*
X159369000Y-63730000D02*
X159369000Y-62356000D01*
X159089000Y-67060000D02*
X159089000Y-65810000D01*
X158689000Y-66805000D02*
X158689000Y-65810000D01*
X159249000Y-63730000D02*
X159249000Y-62405000D01*
X158969000Y-66994000D02*
X158969000Y-65810000D01*
X160250000Y-67350000D02*
X160250000Y-65810000D01*
X158969000Y-63730000D02*
X158969000Y-62546000D01*
X159089000Y-63730000D02*
X159089000Y-62480000D01*
X160290000Y-67350000D02*
X160290000Y-65810000D01*
X159770000Y-67298000D02*
X159770000Y-65810000D01*
X160210000Y-67349000D02*
X160210000Y-65810000D01*
X159810000Y-63730000D02*
X159810000Y-62234000D01*
X159850000Y-67313000D02*
X159850000Y-65810000D01*
X158929000Y-63730000D02*
X158929000Y-62570000D01*
X159730000Y-63730000D02*
X159730000Y-62250000D01*
X158569000Y-66707000D02*
X158569000Y-65810000D01*
X160170000Y-67348000D02*
X160170000Y-65810000D01*
X162910000Y-64770000D02*
G75*
G03*
X162910000Y-64770000I-2620000J0D01*
G01*
%TO.C,C1*%
X110260000Y-66339000D02*
X111488000Y-66339000D01*
X110260000Y-65939000D02*
X111224000Y-65939000D01*
X110260000Y-67260000D02*
X111781000Y-67260000D01*
X106677000Y-67140000D02*
X108180000Y-67140000D01*
X107666000Y-65499000D02*
X110774000Y-65499000D01*
X106640000Y-67540000D02*
X108180000Y-67540000D01*
X108209000Y-65179000D02*
X110231000Y-65179000D01*
X107319000Y-65819000D02*
X108180000Y-65819000D01*
X107155000Y-66019000D02*
X108180000Y-66019000D01*
X110260000Y-66539000D02*
X111585000Y-66539000D01*
X108702000Y-65019000D02*
X109738000Y-65019000D01*
X110260000Y-67020000D02*
X111740000Y-67020000D01*
X107969000Y-65299000D02*
X110471000Y-65299000D01*
X107185000Y-65979000D02*
X108180000Y-65979000D01*
X107283000Y-65859000D02*
X108180000Y-65859000D01*
X110260000Y-66419000D02*
X111530000Y-66419000D01*
X107777000Y-65419000D02*
X110663000Y-65419000D01*
X106670000Y-67180000D02*
X108180000Y-67180000D01*
X107098000Y-66099000D02*
X108180000Y-66099000D01*
X110260000Y-66619000D02*
X111618000Y-66619000D01*
X106952000Y-66339000D02*
X108180000Y-66339000D01*
X110260000Y-67540000D02*
X111800000Y-67540000D01*
X110260000Y-67420000D02*
X111796000Y-67420000D01*
X106692000Y-67060000D02*
X108180000Y-67060000D01*
X110260000Y-66179000D02*
X111395000Y-66179000D01*
X110260000Y-65579000D02*
X110873000Y-65579000D01*
X110260000Y-66699000D02*
X111648000Y-66699000D01*
X107567000Y-65579000D02*
X108180000Y-65579000D01*
X110260000Y-66900000D02*
X111711000Y-66900000D01*
X106973000Y-66299000D02*
X108180000Y-66299000D01*
X106872000Y-66499000D02*
X108180000Y-66499000D01*
X107356000Y-65779000D02*
X108180000Y-65779000D01*
X106641000Y-67500000D02*
X108180000Y-67500000D01*
X106651000Y-67340000D02*
X108180000Y-67340000D01*
X107901000Y-65339000D02*
X110539000Y-65339000D01*
X110260000Y-65859000D02*
X111157000Y-65859000D01*
X106642000Y-67460000D02*
X108180000Y-67460000D01*
X107045000Y-66179000D02*
X108180000Y-66179000D01*
X106930000Y-66379000D02*
X108180000Y-66379000D01*
X110260000Y-66980000D02*
X111731000Y-66980000D01*
X110260000Y-66659000D02*
X111634000Y-66659000D01*
X106910000Y-66419000D02*
X108180000Y-66419000D01*
X110260000Y-67380000D02*
X111793000Y-67380000D01*
X106655000Y-67300000D02*
X108180000Y-67300000D01*
X110260000Y-66819000D02*
X111688000Y-66819000D01*
X110260000Y-65739000D02*
X111046000Y-65739000D01*
X107071000Y-66139000D02*
X108180000Y-66139000D01*
X106765000Y-66779000D02*
X108180000Y-66779000D01*
X106664000Y-67220000D02*
X108180000Y-67220000D01*
X108936000Y-64979000D02*
X109504000Y-64979000D01*
X110260000Y-67300000D02*
X111785000Y-67300000D01*
X106644000Y-67420000D02*
X108180000Y-67420000D01*
X110260000Y-65779000D02*
X111084000Y-65779000D01*
X106659000Y-67260000D02*
X108180000Y-67260000D01*
X110260000Y-66139000D02*
X111369000Y-66139000D01*
X110260000Y-66499000D02*
X111568000Y-66499000D01*
X106752000Y-66819000D02*
X108180000Y-66819000D01*
X106792000Y-66699000D02*
X108180000Y-66699000D01*
X107249000Y-65899000D02*
X108180000Y-65899000D01*
X110260000Y-67340000D02*
X111789000Y-67340000D01*
X106891000Y-66459000D02*
X108180000Y-66459000D01*
X110260000Y-66859000D02*
X111700000Y-66859000D01*
X108042000Y-65259000D02*
X110398000Y-65259000D01*
X110260000Y-67100000D02*
X111756000Y-67100000D01*
X110260000Y-66099000D02*
X111342000Y-66099000D01*
X110260000Y-66259000D02*
X111444000Y-66259000D01*
X106740000Y-66859000D02*
X108180000Y-66859000D01*
X106996000Y-66259000D02*
X108180000Y-66259000D01*
X107125000Y-66059000D02*
X108180000Y-66059000D01*
X110260000Y-65619000D02*
X110919000Y-65619000D01*
X110260000Y-66459000D02*
X111549000Y-66459000D01*
X107615000Y-65539000D02*
X110825000Y-65539000D01*
X110260000Y-65819000D02*
X111121000Y-65819000D01*
X110260000Y-67220000D02*
X111776000Y-67220000D01*
X110260000Y-65659000D02*
X110963000Y-65659000D01*
X106684000Y-67100000D02*
X108180000Y-67100000D01*
X107477000Y-65659000D02*
X108180000Y-65659000D01*
X106647000Y-67380000D02*
X108180000Y-67380000D01*
X106778000Y-66739000D02*
X108180000Y-66739000D01*
X106838000Y-66579000D02*
X108180000Y-66579000D01*
X106700000Y-67020000D02*
X108180000Y-67020000D01*
X106822000Y-66619000D02*
X108180000Y-66619000D01*
X110260000Y-67500000D02*
X111799000Y-67500000D01*
X107020000Y-66219000D02*
X108180000Y-66219000D01*
X110260000Y-66579000D02*
X111602000Y-66579000D01*
X107216000Y-65939000D02*
X108180000Y-65939000D01*
X110260000Y-66739000D02*
X111662000Y-66739000D01*
X107435000Y-65699000D02*
X108180000Y-65699000D01*
X110260000Y-67580000D02*
X111800000Y-67580000D01*
X107394000Y-65739000D02*
X108180000Y-65739000D01*
X106719000Y-66940000D02*
X108180000Y-66940000D01*
X107745000Y-70384775D02*
X107745000Y-69884775D01*
X110260000Y-65699000D02*
X111005000Y-65699000D01*
X106640000Y-67580000D02*
X108180000Y-67580000D01*
X106855000Y-66539000D02*
X108180000Y-66539000D01*
X110260000Y-66940000D02*
X111721000Y-66940000D01*
X107521000Y-65619000D02*
X108180000Y-65619000D01*
X110260000Y-66219000D02*
X111420000Y-66219000D01*
X108415000Y-65099000D02*
X110025000Y-65099000D01*
X106709000Y-66980000D02*
X108180000Y-66980000D01*
X110260000Y-66059000D02*
X111315000Y-66059000D01*
X107495000Y-70134775D02*
X107995000Y-70134775D01*
X106806000Y-66659000D02*
X108180000Y-66659000D01*
X110260000Y-65979000D02*
X111255000Y-65979000D01*
X108122000Y-65219000D02*
X110318000Y-65219000D01*
X110260000Y-66019000D02*
X111285000Y-66019000D01*
X110260000Y-65899000D02*
X111191000Y-65899000D01*
X107720000Y-65459000D02*
X110720000Y-65459000D01*
X110260000Y-66779000D02*
X111675000Y-66779000D01*
X108305000Y-65139000D02*
X110135000Y-65139000D01*
X110260000Y-67180000D02*
X111770000Y-67180000D01*
X108543000Y-65059000D02*
X109897000Y-65059000D01*
X110260000Y-67060000D02*
X111748000Y-67060000D01*
X110260000Y-67140000D02*
X111763000Y-67140000D01*
X107837000Y-65379000D02*
X110603000Y-65379000D01*
X110260000Y-67460000D02*
X111798000Y-67460000D01*
X110260000Y-66299000D02*
X111467000Y-66299000D01*
X110260000Y-66379000D02*
X111510000Y-66379000D01*
X106729000Y-66900000D02*
X108180000Y-66900000D01*
X111840000Y-67580000D02*
G75*
G03*
X111840000Y-67580000I-2620000J0D01*
G01*
%TO.C,A1*%
X153670000Y-68580000D02*
X156340000Y-68580000D01*
X156340000Y-65910000D02*
X138300000Y-65910000D01*
X138300000Y-71120000D02*
X138300000Y-109350000D01*
X140970000Y-71120000D02*
X138300000Y-71120000D01*
X153670000Y-106680000D02*
X156340000Y-106680000D01*
X153670000Y-68580000D02*
X153670000Y-106680000D01*
X143380000Y-101470000D02*
X151260000Y-101470000D01*
X156340000Y-109350000D02*
X151260000Y-109350000D01*
X140970000Y-106680000D02*
X138300000Y-106680000D01*
X138300000Y-109350000D02*
X143380000Y-109350000D01*
X156340000Y-109350000D02*
X156340000Y-65910000D01*
X138300000Y-65910000D02*
X138300000Y-68580000D01*
X151260000Y-111890000D02*
X143380000Y-111890000D01*
X140970000Y-68580000D02*
X138300000Y-68580000D01*
X140970000Y-71120000D02*
X140970000Y-106680000D01*
X140970000Y-71120000D02*
X140970000Y-68580000D01*
X143380000Y-111890000D02*
X143380000Y-101470000D01*
X151260000Y-101470000D02*
X151260000Y-111890000D01*
%TO.C,C3*%
X128150000Y-96450000D02*
X128465000Y-96450000D01*
X130890000Y-96450000D02*
X130890000Y-91510000D01*
X128150000Y-96450000D02*
X128150000Y-91510000D01*
X130575000Y-96450000D02*
X130890000Y-96450000D01*
X130575000Y-91510000D02*
X130890000Y-91510000D01*
X128150000Y-91510000D02*
X128465000Y-91510000D01*
%TO.C,D6*%
X124735000Y-81890000D02*
X121645000Y-81890000D01*
X123189538Y-87440000D02*
G75*
G03*
X124734830Y-81890000I462J2990000D01*
G01*
X121645170Y-81890000D02*
G75*
G03*
X123190462Y-87440000I1544830J-2560000D01*
G01*
X125690000Y-84450000D02*
G75*
G03*
X125690000Y-84450000I-2500000J0D01*
G01*
%TO.C,K2*%
X108690000Y-77240000D02*
X108690000Y-80240000D01*
X97990000Y-74440000D02*
X97990000Y-76740000D01*
X97990000Y-83040000D02*
X97990000Y-80740000D01*
X94490000Y-71040000D02*
X113690000Y-71040000D01*
X106190000Y-84740000D02*
X108490000Y-84740000D01*
X108690000Y-80240000D02*
X103690000Y-80240000D01*
X103690000Y-80240000D02*
X103690000Y-77240000D01*
X106190000Y-77240000D02*
X106190000Y-72740000D01*
X94490000Y-86440000D02*
X94490000Y-71040000D01*
X113690000Y-86440000D02*
X94490000Y-86440000D01*
X108490000Y-72740000D02*
X106190000Y-72740000D01*
X113690000Y-86440000D02*
X113690000Y-79940000D01*
X109590000Y-78740000D02*
X110490000Y-78740000D01*
X103690000Y-77240000D02*
X108690000Y-77240000D01*
X113690000Y-77540000D02*
X113690000Y-71040000D01*
X102690000Y-78740000D02*
X102690000Y-75040000D01*
X102690000Y-75040000D02*
X109590000Y-75040000D01*
X109590000Y-78740000D02*
X109590000Y-75040000D01*
X103690000Y-77240000D02*
X108690000Y-80240000D01*
X101190000Y-78740000D02*
X96690000Y-81440000D01*
X106190000Y-84740000D02*
X106190000Y-80240000D01*
X102690000Y-78740000D02*
X101190000Y-78740000D01*
%TO.C,Q1*%
X125040000Y-94510000D02*
X125040000Y-90910000D01*
X125028478Y-90871522D02*
G75*
G03*
X120590000Y-92710000I-1838478J-1838478D01*
G01*
X120589999Y-92710000D02*
G75*
G03*
X125028478Y-94548478I2600001J0D01*
G01*
%TO.C,R3*%
X136810000Y-81930000D02*
X136810000Y-78090000D01*
X134970000Y-81930000D02*
X134970000Y-78090000D01*
%TO.C,R5*%
X135905000Y-87345000D02*
X132065000Y-87345000D01*
X135905000Y-89185000D02*
X132065000Y-89185000D01*
%TO.C,D3*%
X131040000Y-58420000D02*
X130390000Y-58420000D01*
X126870000Y-57300000D02*
X126870000Y-59540000D01*
X126990000Y-57300000D02*
X126990000Y-59540000D01*
X126150000Y-57300000D02*
X126150000Y-59540000D01*
X126150000Y-59540000D02*
X130390000Y-59540000D01*
X130390000Y-59540000D02*
X130390000Y-57300000D01*
X130390000Y-57300000D02*
X126150000Y-57300000D01*
X126750000Y-57300000D02*
X126750000Y-59540000D01*
X125500000Y-58420000D02*
X126150000Y-58420000D01*
%TO.C,K1*%
X106190000Y-101250000D02*
X106190000Y-96750000D01*
X108490000Y-89250000D02*
X106190000Y-89250000D01*
X103690000Y-93750000D02*
X108690000Y-96750000D01*
X108690000Y-96750000D02*
X103690000Y-96750000D01*
X94490000Y-102950000D02*
X94490000Y-87550000D01*
X103690000Y-96750000D02*
X103690000Y-93750000D01*
X102690000Y-95250000D02*
X101190000Y-95250000D01*
X106190000Y-101250000D02*
X108490000Y-101250000D01*
X106190000Y-93750000D02*
X106190000Y-89250000D01*
X103690000Y-93750000D02*
X108690000Y-93750000D01*
X101190000Y-95250000D02*
X96690000Y-97950000D01*
X102690000Y-91550000D02*
X109590000Y-91550000D01*
X109590000Y-95250000D02*
X110490000Y-95250000D01*
X97990000Y-90950000D02*
X97990000Y-93250000D01*
X109590000Y-95250000D02*
X109590000Y-91550000D01*
X94490000Y-87550000D02*
X113690000Y-87550000D01*
X97990000Y-99550000D02*
X97990000Y-97250000D01*
X113690000Y-102950000D02*
X113690000Y-96450000D01*
X113690000Y-102950000D02*
X94490000Y-102950000D01*
X108690000Y-93750000D02*
X108690000Y-96750000D01*
X102690000Y-95250000D02*
X102690000Y-91550000D01*
X113690000Y-94050000D02*
X113690000Y-87550000D01*
%TO.C,C2*%
X123120000Y-69635000D02*
X123120000Y-69950000D01*
X123120000Y-67210000D02*
X123120000Y-67525000D01*
X118180000Y-69635000D02*
X118180000Y-69950000D01*
X118180000Y-67210000D02*
X118180000Y-67525000D01*
X118180000Y-67210000D02*
X123120000Y-67210000D01*
X118180000Y-69950000D02*
X123120000Y-69950000D01*
%TO.C,R1*%
X126350000Y-77120000D02*
X130190000Y-77120000D01*
X126350000Y-75280000D02*
X130190000Y-75280000D01*
%TO.C,C5*%
X158650000Y-72460000D02*
X158965000Y-72460000D01*
X161075000Y-77400000D02*
X161390000Y-77400000D01*
X158650000Y-77400000D02*
X158650000Y-72460000D01*
X161075000Y-72460000D02*
X161390000Y-72460000D01*
X158650000Y-77400000D02*
X158965000Y-77400000D01*
X161390000Y-77400000D02*
X161390000Y-72460000D01*
%TO.C,D5*%
X132355000Y-78080000D02*
X129265000Y-78080000D01*
X130809538Y-83630000D02*
G75*
G03*
X132354830Y-78080000I462J2990000D01*
G01*
X129265170Y-78080000D02*
G75*
G03*
X130810462Y-83630000I1544830J-2560000D01*
G01*
X133310000Y-80640000D02*
G75*
G03*
X133310000Y-80640000I-2500000J0D01*
G01*
%TO.C,JP3*%
X135950000Y-111700000D02*
X133290000Y-111700000D01*
X135950000Y-115570000D02*
X135950000Y-116900000D01*
X135950000Y-116900000D02*
X134620000Y-116900000D01*
X135950000Y-114300000D02*
X133290000Y-114300000D01*
X133290000Y-114300000D02*
X133290000Y-111700000D01*
X135950000Y-114300000D02*
X135950000Y-111700000D01*
%TO.C,Q2*%
X120070000Y-71860000D02*
X120070000Y-75460000D01*
X120081522Y-75498478D02*
G75*
G03*
X124520000Y-73660000I1838478J1838478D01*
G01*
X124520001Y-73660000D02*
G75*
G03*
X120081522Y-71821522I-2600001J0D01*
G01*
%TO.C,D1*%
X115370000Y-91260000D02*
X115370000Y-96700000D01*
X115370000Y-95800000D02*
X118310000Y-95800000D01*
X115370000Y-96700000D02*
X118310000Y-96700000D01*
X116840000Y-90240000D02*
X116840000Y-91260000D01*
X118310000Y-96700000D02*
X118310000Y-91260000D01*
X115370000Y-95920000D02*
X118310000Y-95920000D01*
X115370000Y-95680000D02*
X118310000Y-95680000D01*
X116840000Y-97720000D02*
X116840000Y-96700000D01*
X118310000Y-91260000D02*
X115370000Y-91260000D01*
%TO.C,D2*%
X115370000Y-80190000D02*
X118310000Y-80190000D01*
X118310000Y-74750000D02*
X115370000Y-74750000D01*
X115370000Y-79290000D02*
X118310000Y-79290000D01*
X115370000Y-74750000D02*
X115370000Y-80190000D01*
X116840000Y-81210000D02*
X116840000Y-80190000D01*
X115370000Y-79170000D02*
X118310000Y-79170000D01*
X115370000Y-79410000D02*
X118310000Y-79410000D01*
X116840000Y-73730000D02*
X116840000Y-74750000D01*
X118310000Y-80190000D02*
X118310000Y-74750000D01*
%TO.C,J1*%
X136170000Y-59695000D02*
X136229000Y-59636000D01*
X145040000Y-55860000D02*
X145040000Y-54120000D01*
X138420000Y-57444000D02*
X138514000Y-57351000D01*
X134680000Y-63480000D02*
X134680000Y-54360000D01*
X144800000Y-63480000D02*
X134680000Y-63480000D01*
X135965000Y-59489000D02*
X136059000Y-59396000D01*
X144800000Y-54360000D02*
X134680000Y-54360000D01*
X138250000Y-57204000D02*
X138309000Y-57146000D01*
X144800000Y-63480000D02*
X144800000Y-54360000D01*
X144800000Y-55920000D02*
X134680000Y-55920000D01*
X145040000Y-54120000D02*
X143540000Y-54120000D01*
X143724000Y-59209000D02*
G75*
G03*
X143723953Y-57630911I-1483995J789000D01*
G01*
X142240000Y-56740000D02*
G75*
G03*
X141451288Y-56936648I0J-1680000D01*
G01*
X141451000Y-59904000D02*
G75*
G03*
X143029089Y-59903953I789000J1483995D01*
G01*
X140755999Y-57631000D02*
G75*
G03*
X140756047Y-59209089I1484001J-789000D01*
G01*
X143029000Y-56936000D02*
G75*
G03*
X142210617Y-56739550I-788998J-1483995D01*
G01*
X138920000Y-58420000D02*
G75*
G03*
X138920000Y-58420000I-1680000J0D01*
G01*
X138140000Y-61420000D02*
G75*
G03*
X138140000Y-61420000I-900000J0D01*
G01*
X143140000Y-61420000D02*
G75*
G03*
X143140000Y-61420000I-900000J0D01*
G01*
%TO.C,JP4*%
X137220000Y-66615000D02*
X134560000Y-66615000D01*
X134560000Y-69215000D02*
X134560000Y-66615000D01*
X137220000Y-71815000D02*
X135890000Y-71815000D01*
X137220000Y-69215000D02*
X137220000Y-66615000D01*
X137220000Y-70485000D02*
X137220000Y-71815000D01*
X137220000Y-69215000D02*
X134560000Y-69215000D01*
%TO.C,J3*%
X113250000Y-116016000D02*
X113191000Y-116074000D01*
X115330000Y-113525000D02*
X115271000Y-113584000D01*
X113080000Y-115776000D02*
X112986000Y-115869000D01*
X115535000Y-113731000D02*
X115441000Y-113824000D01*
X106700000Y-109740000D02*
X116820000Y-109740000D01*
X106700000Y-109740000D02*
X106700000Y-118860000D01*
X116820000Y-109740000D02*
X116820000Y-118860000D01*
X106700000Y-118860000D02*
X116820000Y-118860000D01*
X106700000Y-117300000D02*
X116820000Y-117300000D01*
X106460000Y-119100000D02*
X107960000Y-119100000D01*
X106460000Y-117360000D02*
X106460000Y-119100000D01*
X109260000Y-116480000D02*
G75*
G03*
X110048712Y-116283352I0J1680000D01*
G01*
X110049000Y-113316000D02*
G75*
G03*
X108470911Y-113316047I-789000J-1483995D01*
G01*
X110744001Y-115589000D02*
G75*
G03*
X110743953Y-114010911I-1484001J789000D01*
G01*
X107776000Y-114011000D02*
G75*
G03*
X107776047Y-115589089I1483995J-789000D01*
G01*
X108471000Y-116284000D02*
G75*
G03*
X109289383Y-116480450I788998J1483995D01*
G01*
X115940000Y-114800000D02*
G75*
G03*
X115940000Y-114800000I-1680000J0D01*
G01*
X110160000Y-111800000D02*
G75*
G03*
X110160000Y-111800000I-900000J0D01*
G01*
X115160000Y-111800000D02*
G75*
G03*
X115160000Y-111800000I-900000J0D01*
G01*
%TO.C,R4*%
X135905000Y-86010000D02*
X132065000Y-86010000D01*
X135905000Y-84170000D02*
X132065000Y-84170000D01*
%TO.C,JP2*%
X128210000Y-114300000D02*
X128210000Y-111700000D01*
X130870000Y-114300000D02*
X128210000Y-114300000D01*
X130870000Y-114300000D02*
X130870000Y-111700000D01*
X130870000Y-115570000D02*
X130870000Y-116900000D01*
X130870000Y-111700000D02*
X128210000Y-111700000D01*
X130870000Y-116900000D02*
X129540000Y-116900000D01*
%TO.C,R2*%
X133700000Y-97170000D02*
X133700000Y-93330000D01*
X135540000Y-97170000D02*
X135540000Y-93330000D01*
%TO.C,J4*%
X96800000Y-59695000D02*
X96859000Y-59636000D01*
X105430000Y-55920000D02*
X95310000Y-55920000D01*
X95310000Y-63480000D02*
X95310000Y-54360000D01*
X99050000Y-57444000D02*
X99144000Y-57351000D01*
X105670000Y-54120000D02*
X104170000Y-54120000D01*
X105670000Y-55860000D02*
X105670000Y-54120000D01*
X105430000Y-63480000D02*
X95310000Y-63480000D01*
X96595000Y-59489000D02*
X96689000Y-59396000D01*
X105430000Y-54360000D02*
X95310000Y-54360000D01*
X105430000Y-63480000D02*
X105430000Y-54360000D01*
X98880000Y-57204000D02*
X98939000Y-57146000D01*
X102870000Y-56740000D02*
G75*
G03*
X102081288Y-56936648I0J-1680000D01*
G01*
X104354000Y-59209000D02*
G75*
G03*
X104353953Y-57630911I-1483995J789000D01*
G01*
X101385999Y-57631000D02*
G75*
G03*
X101386047Y-59209089I1484001J-789000D01*
G01*
X103659000Y-56936000D02*
G75*
G03*
X102840617Y-56739550I-788998J-1483995D01*
G01*
X102081000Y-59904000D02*
G75*
G03*
X103659089Y-59903953I789000J1483995D01*
G01*
X99550000Y-58420000D02*
G75*
G03*
X99550000Y-58420000I-1680000J0D01*
G01*
X98770000Y-61420000D02*
G75*
G03*
X98770000Y-61420000I-900000J0D01*
G01*
X103770000Y-61420000D02*
G75*
G03*
X103770000Y-61420000I-900000J0D01*
G01*
%TD*%
M02*
